<svg xmlns="http://www.w3.org/2000/svg" width="173" height="36" viewBox="0 0 173 36">
    <g fill="none" fill-rule="nonzero">
        <path fill="#FFF" d="M51.257 22.733h1.436c.768 0 1.559-.023 2.32-.125a6.369 6.369 0 0 0 1.574-.399 5.215 5.215 0 0 0 1.292-.78 5.704 5.704 0 0 0 1.605-2.03 5.923 5.923 0 0 0 .553-2.54c0-1.87-.73-3.35-2.171-4.497a5.886 5.886 0 0 0-1.612-.896 6.23 6.23 0 0 0-1.415-.31c-.703-.075-1.44-.082-2.146-.082h-1.436v11.659zm113.58-3.473l-1.872.005v5.444a.549.549 0 0 1-.541.554h-1.525a.549.549 0 0 1-.541-.554V9.097c0-.305.243-.553.541-.553h3.644c.892 0 1.861.02 2.741.175.654.115 1.29.323 1.87.656a5.155 5.155 0 0 1 1.938 1.982c.479.854.714 1.782.714 2.767 0 .757-.13 1.467-.399 2.119a4.815 4.815 0 0 1-1.355 1.863 6.81 6.81 0 0 1-.791.558l2.882 5.71c.233.385-.128.889-.553.889h-1.647a.448.448 0 0 1-.403-.222l-2.93-5.828c-.656.036-1.264.039-1.773.047zm-.87-2.184c.49 0 .985.006 1.478-.01.75-.023 1.385-.062 2.101-.355.5-.24.897-.593 1.2-1.066.3-.47.452-.98.452-1.54 0-.48-.106-.929-.32-1.356a2.91 2.91 0 0 0-1.983-1.531c-.628-.136-1.396-.144-2.036-.144h-1.894v6.002h1.001zm-14.504-6.002v4.364h6.843c.3 0 .542.249.542.553v1.424a.549.549 0 0 1-.542.553h-6.843v4.765h7.08c.298 0 .541.248.541.553v1.423a.549.549 0 0 1-.542.554h-9.145a.549.549 0 0 1-.542-.554V9.097c0-.305.243-.553.542-.553h9.145c.299 0 .542.248.542.553v1.423a.549.549 0 0 1-.542.554h-7.079zm-12.307-1.977a.549.549 0 0 0-.542-.553h-1.524a.549.549 0 0 0-.542.553V24.71a.55.55 0 0 0 .542.554h9.353a.549.549 0 0 0 .542-.554v-1.556a.549.549 0 0 0-.542-.554h-7.287V9.097zm-12.306 0a.549.549 0 0 0-.542-.553h-1.524a.549.549 0 0 0-.542.553V24.71c0 .305.243.554.542.554h9.353a.549.549 0 0 0 .542-.554v-1.556a.549.549 0 0 0-.542-.554h-7.287V9.097zm-13.515 1.977v4.364h6.843c.299 0 .542.249.542.553v1.424a.549.549 0 0 1-.542.553h-6.843v4.765h7.08c.298 0 .541.248.541.553v1.423a.549.549 0 0 1-.542.554h-9.145a.549.549 0 0 1-.542-.554V9.097c0-.305.243-.553.542-.553h9.145c.299 0 .542.248.542.553v1.423a.549.549 0 0 1-.542.554h-7.079zm-5.411 9.151a5.128 5.128 0 0 1-.338 1.916c-.957 2.488-3.478 3.511-6.023 3.39-2.207-.106-4.437-1.354-5.469-3.524a.556.556 0 0 1 .222-.78l1.42-.719a.547.547 0 0 1 .735.254c.461 1.013 1.728 2.146 3.272 2.227 1.165.06 2.558-.352 3.151-1.354a2.57 2.57 0 0 0 .359-1.369c-.016-1.307-.85-1.898-2.013-2.278-.805-.263-1.817-.522-2.786-.824-1.42-.443-2.575-1.368-3.157-2.637a4.414 4.414 0 0 1 .198-4.066 4.463 4.463 0 0 1 1.803-1.706c.784-.414 1.896-.645 2.782-.622 1.396.036 3.25.377 4.693 2.279a.557.557 0 0 1-.2.79l-1.33.713a.54.54 0 0 1-.701-.174c-.766-1.137-2.748-1.391-3.943-.775-1.808.933-1.405 3.32 1.101 4.035.83.236 1.7.492 2.577.752 2.117.627 3.618 2.176 3.647 4.472zM89.36 25.262a.549.549 0 0 1-.542-.554V9.098c0-.304.243-.553.542-.553h1.524c.298 0 .542.249.542.553v15.61a.549.549 0 0 1-.542.554H89.36zm-4.82-13.395a.536.536 0 0 1-.747.177l-.367-.234-.882-.498a5.93 5.93 0 0 0-2.656-.612 5.768 5.768 0 0 0-3.021.842c-1.807 1.083-3.123 3.022-3.126 5.34.003.88.18 1.723.553 2.518a5.712 5.712 0 0 0 1.604 2.029c.395.32.826.588 1.293.78.5.206 1.04.327 1.573.399.762.102 1.554.125 2.321.125h1.436v-5.852c0-.305.244-.553.542-.553h1.524c.299 0 .542.248.542.553v7.828a.549.549 0 0 1-.541.554h-4.232c-.874 0-1.762-.057-2.623-.217a7.929 7.929 0 0 1-2.132-.696 7.942 7.942 0 0 1-1.792-1.26 8.123 8.123 0 0 1-1.97-2.806 8.547 8.547 0 0 1-.706-3.403 8.68 8.68 0 0 1 1.184-4.39 8.968 8.968 0 0 1 3.154-3.254 8.137 8.137 0 0 1 4.287-1.21 8.97 8.97 0 0 1 4.5 1.172c.139.08.255.164.389.25l.526.335c.254.161.331.504.173.762l-.806 1.321zM66.13 25.262a.549.549 0 0 1-.541-.554V9.098c0-.304.243-.553.542-.553h1.524a.55.55 0 0 1 .542.553v15.61a.549.549 0 0 1-.542.554h-1.524zm-17.482-.553V9.097c0-.305.243-.553.542-.553h4.122c2.258 0 4.546.474 6.345 1.945a7.803 7.803 0 0 1 1.59 1.785c.448.688.802 1.43 1.042 2.219.236.776.355 1.576.355 2.388 0 1.182-.24 2.32-.706 3.403a8.13 8.13 0 0 1-1.97 2.805 7.95 7.95 0 0 1-1.792 1.26c-.673.34-1.395.56-2.132.697a14.41 14.41 0 0 1-2.623.217h-4.231a.549.549 0 0 1-.542-.554z"/>
        <path fill="#6D6E70" d="M48 33.662V28.18h1.29v2.579l1.74-2.58h1.53l-1.947 2.686 2.27 2.797h-1.74l-1.852-2.567v2.567H48zM56.285 28c.53 0 1.017.129 1.46.387.442.257.79.611 1.044 1.06.255.449.381.94.381 1.478 0 .527-.128 1.015-.385 1.462a2.871 2.871 0 0 1-1.046 1.064c-.442.26-.923.39-1.443.39-.518 0-.994-.13-1.435-.392a2.92 2.92 0 0 1-1.05-1.069 2.89 2.89 0 0 1-.387-1.466c0-.523.128-1.007.386-1.453.26-.447.61-.801 1.05-1.065A2.73 2.73 0 0 1 56.286 28zm0 1.289a1.608 1.608 0 0 0-1.56 1.627c0 .463.15.85.454 1.165a1.49 1.49 0 0 0 1.117.472c.292 0 .562-.07.803-.211a1.53 1.53 0 0 0 .573-.585c.138-.248.208-.521.208-.82 0-.294-.072-.567-.214-.82a1.675 1.675 0 0 0-.57-.605 1.418 1.418 0 0 0-.77-.223h-.041zm7.3.96v-2.07h1.301v5.483h-1.301v-2.24h-2.322v2.24h-1.29V28.18h1.29v2.07h2.322zm6.225 1.628h1.456c-.09.246-.172.433-.243.563-.07.13-.165.266-.288.408a2.884 2.884 0 0 1-.977.737 2.772 2.772 0 0 1-1.167.257c-.525 0-1.008-.13-1.451-.393a2.884 2.884 0 0 1-1.055-1.073 2.918 2.918 0 0 1-.387-1.473c0-.527.129-1.014.383-1.46.257-.447.604-.799 1.045-1.056A2.78 2.78 0 0 1 68.559 28c.278 0 .55.04.816.121a2.935 2.935 0 0 1 1.38.904c.122.142.22.281.29.419.072.136.145.32.221.554H69.81c-.158-.253-.333-.435-.524-.544-.193-.11-.432-.165-.716-.165-.306 0-.578.068-.816.204-.238.137-.422.33-.555.574-.134.246-.2.524-.2.838 0 .474.151.866.453 1.178.304.313.682.47 1.139.47.51 0 .915-.226 1.22-.676zm3.375-2.536H71.79V28.18h4.091v1.161h-1.405v4.321h-1.291v-4.32zm3.353 6.159v-7.322h1.186v.711c.137-.181.255-.317.354-.405.097-.088.219-.169.363-.241.296-.162.647-.243 1.053-.243a2.574 2.574 0 0 1 1.919.841c.248.266.439.576.574.928.136.352.203.73.203 1.134 0 .542-.12 1.039-.36 1.488-.239.45-.566.804-.983 1.063a2.554 2.554 0 0 1-1.374.388c-.35 0-.663-.064-.939-.19-.22-.105-.454-.298-.706-.581V35.5h-1.29zm2.831-6.211c-.304 0-.578.07-.824.212a1.514 1.514 0 0 0-.582.59 1.721 1.721 0 0 0-.208.845c0 .298.068.57.203.818.138.248.325.442.56.584.237.142.498.215.787.215.293 0 .562-.073.806-.219.247-.144.44-.342.578-.593.141-.25.21-.524.21-.825 0-.29-.069-.56-.208-.812a1.61 1.61 0 0 0-.562-.595 1.416 1.416 0 0 0-.76-.22zm4.12 6.211l1-2.356-1.978-4.964h1.466l1.24 3.507 1.304-3.507h1.466l-3.104 7.32H83.49zm5.154-1.838V28.18h1.291v2.579l1.738-2.58h1.53l-1.946 2.686 2.27 2.797h-1.74l-1.852-2.567v2.567h-1.291zm6.663-4.32H93.91V28.18h4.091v1.161h-1.405v4.321h-1.291v-4.32zM101.28 28c.53 0 1.017.129 1.459.387.442.257.792.611 1.044 1.06.256.449.382.94.382 1.478 0 .527-.128 1.015-.385 1.462a2.876 2.876 0 0 1-1.046 1.064c-.442.26-.924.39-1.444.39-.517 0-.994-.13-1.435-.392a2.913 2.913 0 0 1-1.05-1.069 2.884 2.884 0 0 1-.387-1.466c0-.523.129-1.007.388-1.453a2.93 2.93 0 0 1 1.05-1.065c.44-.264.915-.396 1.424-.396zm0 1.289a1.61 1.61 0 0 0-1.355.822 1.618 1.618 0 0 0-.205.805c0 .463.15.85.454 1.165a1.49 1.49 0 0 0 1.116.472c.293 0 .562-.07.804-.211s.434-.337.572-.585c.14-.248.209-.521.209-.82 0-.294-.072-.567-.214-.82a1.675 1.675 0 0 0-.57-.605 1.416 1.416 0 0 0-.77-.223h-.041zm3.687 6.211v-7.322h1.187v.711c.137-.181.255-.317.354-.405.097-.088.218-.169.363-.241.296-.162.647-.243 1.053-.243a2.571 2.571 0 0 1 1.919.841c.248.266.438.576.574.928.135.352.203.73.203 1.134 0 .542-.12 1.039-.36 1.488-.238.45-.567.804-.983 1.063a2.55 2.55 0 0 1-1.374.388c-.35 0-.663-.064-.939-.19-.22-.105-.454-.298-.706-.581V35.5h-1.29zm2.831-6.211c-.303 0-.577.07-.824.212-.248.142-.44.339-.58.59a1.721 1.721 0 0 0-.209.845c0 .298.068.57.203.818.137.248.324.442.56.584.236.142.499.215.786.215.294 0 .563-.073.807-.219a1.54 1.54 0 0 0 .578-.593c.14-.25.21-.524.21-.825a1.652 1.652 0 0 0-.77-1.407 1.413 1.413 0 0 0-.76-.22zm6.351 4.373V28.18h2.176l.935 3.456h.073l1.053-3.456h1.947v5.482h-1.301v-4.194h-.094l-1.282 4.194h-.843l-1.281-4.194h-.092v4.194h-1.29zm12.67-5.484v5.484h-1.189v-.741c-.147.177-.27.308-.37.39-.1.082-.237.168-.409.254a2.306 2.306 0 0 1-1.113.277c-.497 0-.944-.127-1.344-.38a2.62 2.62 0 0 1-.94-1.053 3.277 3.277 0 0 1-.34-1.506c0-.535.118-1.026.355-1.47.238-.446.562-.794.974-1.05.41-.254.862-.383 1.355-.383.4 0 .746.08 1.043.243.16.08.293.169.4.266.108.097.238.243.39.442v-.773h1.188zm-1.229 2.758a1.81 1.81 0 0 0-.197-.853 1.432 1.432 0 0 0-.554-.585 1.573 1.573 0 0 0-.81-.209 1.63 1.63 0 0 0-.83.214c-.246.143-.438.34-.577.592a1.748 1.748 0 0 0-.207.852c0 .3.07.574.208.82.139.245.332.437.575.576.244.14.517.21.818.21.3 0 .57-.07.81-.21.239-.14.426-.334.561-.58.136-.247.203-.522.203-.827zm5.485-2.756v1.161h-1.988v4.321h-1.291V28.18h3.28zm6.195-.002v5.484h-1.19v-.741c-.147.177-.27.308-.369.39-.1.082-.237.168-.409.254a2.307 2.307 0 0 1-1.114.277 2.45 2.45 0 0 1-1.343-.38 2.62 2.62 0 0 1-.94-1.053 3.27 3.27 0 0 1-.34-1.506c0-.535.118-1.026.355-1.47.238-.446.563-.794.974-1.05.409-.254.861-.383 1.355-.383.399 0 .746.08 1.042.243.16.08.294.169.401.266.108.097.238.243.389.442v-.773h1.189zm-1.23 2.758a1.81 1.81 0 0 0-.196-.853 1.432 1.432 0 0 0-.554-.585 1.573 1.573 0 0 0-.81-.209c-.306 0-.584.072-.83.214a1.51 1.51 0 0 0-.577.592 1.748 1.748 0 0 0-.207.852c0 .3.07.574.208.82.139.245.331.437.575.576.244.14.516.21.819.21.3 0 .569-.07.808-.21.24-.14.427-.334.562-.58.135-.247.203-.522.203-.827zm3.31.907c.04.488.297.731.77.731a.766.766 0 0 0 .538-.194.64.64 0 0 0 .212-.492c0-.458-.34-.687-1.02-.687l-.252.02v-.876c.058.007.12.01.19.01.232 0 .414-.045.544-.135a.438.438 0 0 0 .194-.382c0-.16-.059-.29-.177-.389-.117-.1-.274-.15-.468-.15-.396 0-.606.201-.625.603h-1.207l.01-.106.01-.18c.021-.34.145-.656.365-.95.322-.445.846-.666 1.572-.666.267 0 .51.037.73.113.22.076.41.183.567.322.158.14.28.306.365.503.085.196.129.412.129.647 0 .277-.067.505-.197.681-.13.176-.338.315-.626.417.79.196 1.187.664 1.187 1.405 0 .352-.085.662-.254.928-.168.266-.408.47-.718.616-.309.146-.666.22-1.069.22-.403 0-.762-.083-1.082-.246a1.855 1.855 0 0 1-.75-.685 1.857 1.857 0 0 1-.27-.993v-.085h1.332zm7.223-3.663h1.301v5.482h-1.301v-3.75l-2.322 3.75h-1.29V28.18h1.29v3.74l2.322-3.74zm5.966 2.07v-2.07h1.3v5.482h-1.3v-2.24h-2.322v2.24h-1.291V28.18h1.291v2.07h2.322zm4.974-2.25c.53 0 1.017.129 1.46.387.442.257.79.611 1.044 1.06.255.449.381.94.381 1.478 0 .527-.128 1.015-.385 1.462a2.876 2.876 0 0 1-1.046 1.064c-.442.26-.923.39-1.444.39-.517 0-.994-.13-1.434-.392a2.915 2.915 0 0 1-1.05-1.069 2.89 2.89 0 0 1-.387-1.466c0-.523.128-1.007.387-1.453a2.93 2.93 0 0 1 1.05-1.065c.44-.264.915-.396 1.424-.396zm0 1.289a1.608 1.608 0 0 0-1.56 1.627c0 .463.15.85.455 1.165.304.315.675.472 1.115.472.294 0 .563-.07.804-.211a1.53 1.53 0 0 0 .573-.585c.138-.248.208-.521.208-.82 0-.294-.071-.567-.214-.82a1.671 1.671 0 0 0-.57-.605 1.414 1.414 0 0 0-.769-.223h-.042zm3.687 4.373V28.18h1.456c.613 0 .987.007 1.126.02.233.029.445.089.635.18.229.122.413.297.552.529.139.228.208.471.208.727 0 .366-.108.647-.323.846-.08.081-.218.159-.416.233.167.033.293.068.384.106.206.084.37.235.494.452.123.216.184.462.184.73 0 .535-.219.969-.658 1.3-.34.24-.838.36-1.497.36H161.2zm1.26-1.173h1.07c.028 0 .09-.007.19-.02a.654.654 0 0 0 .38-.203.554.554 0 0 0 .14-.387.55.55 0 0 0-.127-.35.641.641 0 0 0-.326-.225 2.228 2.228 0 0 0-.6-.06h-.727v1.245zm0-2.144h.874a.582.582 0 0 0 .398-.137.454.454 0 0 0 .154-.361.583.583 0 0 0-.104-.338.6.6 0 0 0-.198-.117.965.965 0 0 0-.229-.05h-.895v1.003z"/>
        <path fill="#6E6F6F" d="M31.454 30.405c-1.436 0-2.6 1.199-2.6 2.676 0 1.478 1.164 2.676 2.6 2.676 1.436 0 2.6-1.198 2.6-2.676 0-1.477-1.164-2.676-2.6-2.676zm-17.421 0c-1.436 0-2.6 1.199-2.6 2.676 0 1.478 1.164 2.676 2.6 2.676 1.436 0 2.6-1.198 2.6-2.676 0-1.477-1.164-2.676-2.6-2.676z"/>
        <path fill="#3488D2" d="M29.595 20.919c1.917 0 3.486 1.587 3.486 3.527 0 1.94-1.57 3.527-3.486 3.527H15.648c-1.917 0-3.486-1.587-3.486-3.527 0-1.94 1.569-3.527 3.486-3.527zm2.284 2.948a2.354 2.354 0 0 0-2.857-1.732c-1.262.32-2.029 1.614-1.712 2.89a2.353 2.353 0 0 0 2.857 1.732c1.262-.32 2.028-1.613 1.712-2.89zm-13.946 0a2.354 2.354 0 0 0-2.857-1.732c-1.262.32-2.028 1.614-1.712 2.89a2.353 2.353 0 0 0 2.857 1.732c1.261-.32 2.028-1.613 1.712-2.89zm4.688-1.454c-1.11 0-2.01.91-2.01 2.033 0 1.123.9 2.033 2.01 2.033 1.11 0 2.01-.91 2.01-2.033 0-1.123-.9-2.033-2.01-2.033zm7.815 1.82a.878.878 0 0 1-.631 1.064.866.866 0 0 1-1.052-.638.879.879 0 0 1 .63-1.064.867.867 0 0 1 1.053.638zm-13.946 0a.878.878 0 0 1-.63 1.064.867.867 0 0 1-1.053-.638.879.879 0 0 1 .63-1.064.867.867 0 0 1 1.053.638z"/>
        <path fill="#67C23F" d="M10.399 0c1.906 0 3.466 1.587 3.466 3.527 0 1.94-1.56 3.527-3.466 3.527H3.466C1.56 7.054 0 5.467 0 3.527 0 1.587 1.56 0 3.466 0H10.4zm2.27 2.948c-.313-1.276-1.585-2.052-2.84-1.732-1.254.32-2.016 1.614-1.702 2.89.315 1.277 1.586 2.052 2.84 1.733 1.255-.32 2.017-1.615 1.703-2.891zM3.467 1.494c-1.104 0-1.998.91-1.998 2.033 0 1.123.894 2.033 1.998 2.033s1.998-.91 1.998-2.033c0-1.123-.894-2.033-1.998-2.033z"/>
        <path fill="#67C23F" d="M11.235 3.314a.878.878 0 0 1-.627 1.064.861.861 0 0 1-1.046-.638.879.879 0 0 1 .627-1.064.861.861 0 0 1 1.046.638z"/>
        <path fill="#6E6F6F" d="M13.89 2.676l.999 4.06h-2.691c-1.906 0-3.465 1.595-3.465 3.545s1.559 3.546 3.465 3.546h4.427l1.618 6.607H15.54c-1.905 0-3.464 1.595-3.464 3.545 0 .3.037.59.106.868l-.002-.006-4.395-17.95h2.703c1.905 0 3.465-1.596 3.465-3.546 0-.136-.008-.27-.023-.4l-.04-.27zm1.903 14.058c-.269-1.095-1.353-1.76-2.423-1.486s-1.72 1.384-1.452 2.48c.268 1.094 1.353 1.76 2.423 1.485 1.07-.274 1.72-1.384 1.452-2.48zM36.73 10.946l-.029.118-3.621 13.743.049-.216c.028-.147.047-.296.057-.448l.007-.23c0-1.96-1.577-3.564-3.504-3.564H27l1.75-6.643h4.567c1.655 0 3.052-1.184 3.413-2.76zm-7.179 5.68c-.288 1.095.351 2.222 1.429 2.516 1.078.293 2.185-.357 2.474-1.453.289-1.096-.351-2.223-1.429-2.516-1.077-.294-2.185.356-2.474 1.452z"/>
        <path fill="#E71C0F" d="M33.02 7.297c1.907 0 3.466 1.587 3.466 3.527 0 1.875-1.457 3.421-3.276 3.522l-.19.005H12.224c-1.906 0-3.466-1.587-3.466-3.527 0-1.875 1.458-3.42 3.277-3.521l.19-.006H33.02zm-.568 1.216c-1.255.32-2.017 1.614-1.703 2.89.315 1.277 1.586 2.052 2.84 1.732 1.255-.32 2.017-1.613 1.703-2.89-.314-1.276-1.586-2.052-2.84-1.732zm-20.824-.058c-1.254.32-2.017 1.614-1.702 2.89.314 1.277 1.586 2.052 2.84 1.733 1.255-.32 2.017-1.614 1.702-2.89-.314-1.277-1.585-2.052-2.84-1.733zm7.528.336c-1.104 0-1.999.91-1.999 2.033 0 1.123.895 2.033 1.999 2.033 1.103 0 1.998-.91 1.998-2.033 0-1.123-.895-2.033-1.998-2.033zm6.932 0c-1.104 0-1.998.91-1.998 2.033 0 1.123.894 2.033 1.998 2.033 1.103 0 1.998-.91 1.998-2.033 0-1.123-.895-2.033-1.998-2.033zm7.77 1.82a.879.879 0 0 1-.628 1.064.861.861 0 0 1-1.046-.637.878.878 0 0 1 .627-1.065.861.861 0 0 1 1.046.638zm-20.824-.058a.879.879 0 0 1-.627 1.065.861.861 0 0 1-1.046-.638.878.878 0 0 1 .627-1.065.861.861 0 0 1 1.046.638z"/>
    </g>
</svg>
