<?xml version="1.0" encoding="UTF-8" ?>
<!DOCTYPE svg PUBLIC "-//W3C//DTD SVG 1.1//EN" "http://www.w3.org/Graphics/SVG/1.1/DTD/svg11.dtd">
<svg width="36pt" height="36pt" viewBox="0 0 36 36" version="1.1" xmlns="http://www.w3.org/2000/svg">
<g id="#00a0e9ff">
<path fill="#00a0e9" opacity="1.00" d=" M 4.99 10.99 C 8.92 3.42 19.52 0.67 26.65 5.36 C 32.87 9.02 35.31 17.03 33.22 23.77 C 30.34 22.78 27.46 21.79 24.58 20.82 C 25.37 18.71 26.16 16.59 27.02 14.50 C 24.39 14.35 21.75 14.01 19.28 13.01 C 22.21 11.62 25.55 12.27 28.58 11.29 C 25.92 10.94 23.24 10.97 20.57 11.00 C 20.53 10.25 20.47 8.75 20.43 8.00 C 19.60 8.00 17.92 7.99 17.08 7.99 C 17.03 8.77 16.92 10.32 16.87 11.10 C 14.26 11.02 11.58 10.79 9.07 11.71 C 11.70 12.05 14.36 12.03 17.00 12.05 C 17.00 12.72 17.00 14.06 17.00 14.73 C 15.07 14.76 13.14 14.79 11.20 14.81 L 11.17 16.26 C 15.10 16.24 19.03 16.33 22.97 16.31 C 22.53 17.48 22.08 18.65 21.64 19.81 C 17.62 18.76 12.95 16.67 9.06 19.15 C 5.74 21.06 6.72 26.65 10.26 27.73 C 14.92 29.59 19.69 26.78 22.94 23.55 C 25.68 24.90 28.42 26.27 31.14 27.68 C 26.61 33.36 18.27 35.82 11.66 32.36 C 3.90 28.80 0.64 18.34 4.99 10.99 Z" />
<path fill="#00a0e9" opacity="1.00" d=" M 9.78 19.64 C 13.33 17.96 17.03 20.15 20.23 21.62 C 17.63 24.07 14.24 27.13 10.37 25.63 C 7.69 24.94 7.05 20.71 9.78 19.64 Z" />
</g>
</svg>
