<?xml version="1.0" encoding="UTF-8" ?>
<!DOCTYPE svg PUBLIC "-//W3C//DTD SVG 1.1//EN" "http://www.w3.org/Graphics/SVG/1.1/DTD/svg11.dtd">
<svg width="16pt" height="16pt" viewBox="0 0 16 16" version="1.1" xmlns="http://www.w3.org/2000/svg">
<g id="#9c854bff">
<path fill="#9c854b" opacity="1.00" d=" M 0.00 2.00 C 5.33 2.00 10.67 2.00 16.00 2.00 L 16.00 3.00 L 15.00 3.00 C 10.33 3.00 5.67 3.00 1.00 3.00 L 0.00 3.00 L 0.00 2.00 Z" />
<path fill="#9c854b" opacity="1.00" d=" M 4.00 4.00 C 4.75 4.00 6.25 4.00 7.00 4.00 L 7.00 9.00 L 8.00 9.00 C 8.00 9.75 8.00 11.25 8.00 12.00 C 6.50 12.00 3.50 12.00 2.00 12.00 C 2.00 11.25 2.00 9.75 2.00 9.00 L 3.00 9.00 C 3.00 7.67 3.00 6.33 3.00 5.00 L 4.00 5.00 L 4.00 4.00 M 4.14 6.14 C 4.14 6.57 4.14 7.43 4.14 7.86 C 4.57 7.86 5.43 7.86 5.86 7.86 C 5.86 7.43 5.86 6.57 5.86 6.14 C 5.43 6.14 4.57 6.14 4.14 6.14 M 4.14 9.14 C 4.14 9.57 4.14 10.43 4.14 10.86 C 4.57 10.86 5.43 10.86 5.86 10.86 C 5.86 10.43 5.86 9.57 5.86 9.14 C 5.43 9.14 4.57 9.14 4.14 9.14 Z" />
</g>
<g id="#5d4b1aff">
<path fill="#5d4b1a" opacity="1.00" d=" M 0.00 3.00 L 1.00 3.00 C 1.00 6.33 1.00 9.67 1.00 13.00 C 5.67 13.00 10.33 13.00 15.00 13.00 C 15.00 9.67 15.00 6.33 15.00 3.00 L 16.00 3.00 L 16.00 14.00 C 11.00 14.02 6.00 13.97 1.00 14.00 L 0.00 14.03 L 0.00 3.00 Z" />
<path fill="#5d4b1a" opacity="1.00" d=" M 9.14 5.23 C 10.38 4.68 11.62 4.68 12.86 5.23 L 12.86 5.77 C 11.62 6.32 10.38 6.32 9.14 5.77 L 9.14 5.23 Z" />
<path fill="#5d4b1a" opacity="1.00" d=" M 9.14 7.23 C 10.38 6.68 11.62 6.68 12.86 7.23 L 12.86 7.77 C 11.62 8.32 10.38 8.32 9.14 7.77 L 9.14 7.23 Z" />
<path fill="#5d4b1a" opacity="1.00" d=" M 9.14 9.23 C 10.38 8.68 11.62 8.68 12.86 9.23 L 12.86 9.77 C 11.62 10.32 10.38 10.32 9.14 9.77 L 9.14 9.23 Z" />
</g>
<g id="#fbe35dff">
<path fill="#fbe35d" opacity="1.00" d=" M 1.00 3.00 C 5.67 3.00 10.33 3.00 15.00 3.00 C 15.00 6.33 15.00 9.67 15.00 13.00 C 10.33 13.00 5.67 13.00 1.00 13.00 C 1.00 9.67 1.00 6.33 1.00 3.00 M 4.00 4.00 L 4.00 5.00 L 3.00 5.00 C 3.00 6.33 3.00 7.67 3.00 9.00 L 2.00 9.00 C 2.00 9.75 2.00 11.25 2.00 12.00 C 3.50 12.00 6.50 12.00 8.00 12.00 C 8.00 11.25 8.00 9.75 8.00 9.00 L 7.00 9.00 L 7.00 4.00 C 6.25 4.00 4.75 4.00 4.00 4.00 M 9.14 5.23 L 9.14 5.77 C 10.38 6.32 11.62 6.32 12.86 5.77 L 12.86 5.23 C 11.62 4.68 10.38 4.68 9.14 5.23 M 9.14 7.23 L 9.14 7.77 C 10.38 8.32 11.62 8.32 12.86 7.77 L 12.86 7.23 C 11.62 6.68 10.38 6.68 9.14 7.23 M 9.14 9.23 L 9.14 9.77 C 10.38 10.32 11.62 10.32 12.86 9.77 L 12.86 9.23 C 11.62 8.68 10.38 8.68 9.14 9.23 Z" />
<path fill="#fbe35d" opacity="1.00" d=" M 4.14 6.14 C 4.57 6.14 5.43 6.14 5.86 6.14 C 5.86 6.57 5.86 7.43 5.86 7.86 C 5.43 7.86 4.57 7.86 4.14 7.86 C 4.14 7.43 4.14 6.57 4.14 6.14 Z" />
</g>
<g id="#bcbebbff">
<path fill="#bcbebb" opacity="1.00" d=" M 4.14 9.14 C 4.57 9.14 5.43 9.14 5.86 9.14 C 5.86 9.57 5.86 10.43 5.86 10.86 C 5.43 10.86 4.57 10.86 4.14 10.86 C 4.14 10.43 4.14 9.57 4.14 9.14 Z" />
<path fill="#bcbebb" opacity="1.00" d=" M 1.00 14.00 C 6.00 13.97 11.00 14.02 16.00 14.00 L 16.00 15.00 C 11.00 15.00 6.00 15.00 1.00 15.00 L 1.00 14.00 Z" />
</g>
</svg>
