<?xml version="1.0" encoding="UTF-8" ?>
<!DOCTYPE svg PUBLIC "-//W3C//DTD SVG 1.1//EN" "http://www.w3.org/Graphics/SVG/1.1/DTD/svg11.dtd">
<svg width="185pt" height="176pt" viewBox="0 0 185 176" version="1.1" xmlns="http://www.w3.org/2000/svg">
<g id="#ffffffff">
</g>
<g id="#030303ff">
<path fill="#030303" opacity="1.00" d=" M 73.53 3.74 C 83.63 2.14 93.97 1.16 104.16 2.91 C 105.81 3.41 107.53 3.61 109.25 3.78 C 110.57 4.37 112.01 4.60 113.46 4.64 L 113.52 5.19 C 120.85 6.60 127.64 10.15 134.10 13.81 C 138.99 16.81 143.68 20.20 147.71 24.30 C 149.17 25.49 150.45 26.88 151.67 28.31 C 152.62 29.14 153.43 30.13 153.97 31.27 C 112.32 31.48 70.68 31.36 29.03 31.22 C 32.80 26.94 36.80 22.83 41.33 19.35 C 44.23 17.20 47.09 14.97 50.31 13.31 C 52.79 11.76 55.34 10.29 58.08 9.24 C 61.74 7.77 65.33 6.00 69.21 5.15 C 70.56 4.55 72.02 4.32 73.49 4.35 L 73.53 3.74 Z" />
<path fill="#030303" opacity="1.00" d=" M 12.26 66.30 C 65.34 65.92 118.42 66.23 171.51 66.20 C 171.59 67.26 171.67 68.32 171.75 69.38 L 172.28 69.47 C 173.43 78.82 173.41 88.18 172.28 97.54 L 171.75 97.60 C 171.65 98.77 171.55 99.94 171.45 101.10 C 118.41 101.10 65.29 101.75 12.31 100.77 L 11.58 100.63 C 11.51 98.94 11.37 97.26 11.27 95.57 L 10.71 95.50 C 10.19 87.51 10.17 79.50 10.71 71.51 L 11.25 71.42 C 11.36 69.72 11.52 68.02 11.65 66.33 L 12.26 66.30 Z" />
<path fill="#030303" opacity="1.00" d=" M 29.01 135.82 C 70.52 136.15 112.20 134.95 153.60 136.50 C 148.36 142.66 142.19 148.01 135.37 152.35 C 131.74 154.53 128.09 156.69 124.15 158.25 C 122.03 159.08 119.96 160.04 117.81 160.78 C 116.44 161.39 114.96 161.63 113.49 161.76 L 113.46 162.33 C 112.01 162.41 110.58 162.66 109.19 163.10 C 94.95 166.28 79.97 165.31 66.09 160.94 C 62.91 159.98 59.99 158.39 56.88 157.27 C 53.48 155.69 50.30 153.70 47.10 151.76 C 40.30 147.40 34.36 141.84 29.01 135.82 Z" />
</g>
<g id="#fdc720ff">
<path fill="#fdc720" opacity="1.00" d=" M 12.26 66.30 C 14.14 53.34 20.83 41.31 29.03 31.22 C 70.68 31.36 112.32 31.48 153.97 31.27 L 154.52 31.26 C 162.70 41.45 168.74 53.40 171.51 66.20 C 118.42 66.23 65.34 65.92 12.26 66.30 Z" />
<path fill="#fdc720" opacity="1.00" d=" M 12.31 100.77 C 65.29 101.75 118.41 101.10 171.45 101.10 C 168.43 114.07 162.48 126.53 153.60 136.50 C 112.20 134.95 70.52 136.15 29.01 135.82 C 20.94 125.66 14.12 113.72 12.31 100.77 Z" />
</g>
</svg>
