<svg xmlns="http://www.w3.org/2000/svg" width="26" height="26" viewBox="0 0 26 26">
    <g fill="none" fill-rule="evenodd">
        <path fill="#F7931A" d="M10.05 24.722C3.582 23.109-.356 16.556 1.258 10.086 2.87 3.616 9.423-.322 15.892 1.291c6.47 1.613 10.407 8.167 8.794 14.637-1.613 6.47-8.166 10.407-14.636 8.794z"/>
        <path fill="#FFF" d="M18.295 11.286c.24-1.607-.983-2.47-2.656-3.047l.543-2.177-1.326-.33-.528 2.12a55.43 55.43 0 0 0-1.062-.25l.533-2.134-1.325-.33-.543 2.176c-.288-.066-.571-.13-.846-.2l.002-.006-1.828-.456-.352 1.415s.983.225.962.24c.537.133.634.488.617.77l-.618 2.48c.037.01.085.023.138.044l-.14-.035L9 15.04c-.066.163-.233.408-.608.315.013.02-.963-.24-.963-.24l-.658 1.517 1.725.43c.32.08.635.164.944.243l-.548 2.202 1.324.33.543-2.178c.361.098.712.189 1.056.274l-.542 2.168 1.325.33.549-2.197c2.26.427 3.958.255 4.674-1.789.576-1.645-.03-2.595-1.218-3.214.866-.2 1.518-.769 1.692-1.945zm-3.028 4.245c-.409 1.646-3.18.756-4.078.533l.728-2.917c.898.224 3.778.668 3.35 2.384zm.41-4.269c-.373 1.497-2.68.736-3.427.55l.66-2.646c.747.187 3.156.535 2.767 2.096z"/>
    </g>
</svg>
