<svg xmlns="http://www.w3.org/2000/svg" width="7" height="10" viewBox="0 0 7 10">
    <g fill-rule="evenodd">
        <rect width="3" height="2" x="2" rx="1"/>
        <g transform="translate(0 1)">
            <path d="M1 3h5a1 1 0 0 1 1 1v4a1 1 0 0 1-1 1H1a1 1 0 0 1-1-1V4a1 1 0 0 1 1-1zm2 2v1h1V5H3zm0 1v1h1V6H3z"/>
            <rect width="1" height="4" x="1" rx=".5"/>
            <rect width="1" height="4" x="5" rx=".5"/>
            <rect width="5" height="1" x="1" rx=".5"/>
        </g>
    </g>
</svg>
