<?xml version="1.0" encoding="UTF-8" ?>
<!DOCTYPE svg PUBLIC "-//W3C//DTD SVG 1.1//EN" "http://www.w3.org/Graphics/SVG/1.1/DTD/svg11.dtd">
<svg width="64pt" height="64pt" viewBox="0 0 64 64" version="1.1" xmlns="http://www.w3.org/2000/svg">
<g id="#333a47ff">
<path fill="#333a47" opacity="1.00" d=" M 5.41 0.00 L 56.85 0.00 L 58.86 0.51 C 56.92 0.77 54.97 1.08 53.00 1.09 C 41.00 1.01 29.00 1.06 17.01 1.05 C 13.66 1.03 10.28 1.33 6.97 0.70 L 5.41 0.00 Z" />
<path fill="#333a47" opacity="1.00" d=" M 60.60 36.38 C 62.74 34.90 63.11 31.72 64.00 29.37 L 64.00 44.62 C 63.20 46.27 62.28 47.85 61.35 49.43 C 56.86 49.92 52.34 49.90 47.85 49.47 C 47.60 47.80 47.35 46.13 47.10 44.47 C 47.79 43.12 48.40 41.74 49.04 40.37 C 47.82 39.44 46.60 38.52 45.44 37.52 C 50.43 36.42 55.56 36.85 60.60 36.38 Z" />
<path fill="#333a47" opacity="1.00" d=" M 0.00 30.68 C 0.74 32.65 1.68 34.55 2.65 36.41 C 7.19 36.83 12.21 37.42 16.01 34.32 C 16.52 38.43 18.02 42.36 20.20 45.87 C 19.56 47.10 18.90 48.32 18.24 49.54 C 13.06 49.88 7.85 49.93 2.68 49.41 C 1.76 47.90 0.83 46.39 0.00 44.83 L 0.00 30.68 Z" />
</g>
<g id="#4c5965ff">
<path fill="#4c5965" opacity="1.00" d=" M 0.05 6.03 C 0.58 3.39 2.53 1.44 4.93 0.38 L 6.97 0.70 C 10.28 1.33 13.66 1.03 17.01 1.05 C 29.00 1.06 41.00 1.01 53.00 1.09 C 54.97 1.08 56.92 0.77 58.86 0.51 C 61.24 1.09 63.21 3.06 63.77 5.44 C 63.55 9.03 63.53 12.76 62.17 16.15 C 61.41 18.26 58.95 18.51 57.02 18.52 C 51.78 18.59 46.51 18.82 41.31 18.07 C 40.87 16.29 40.41 14.51 40.07 12.70 C 40.30 11.42 40.51 10.14 40.71 8.86 C 36.88 9.52 33.46 12.24 32.62 16.15 C 30.26 17.40 27.77 18.66 25.01 18.54 C 19.34 18.57 13.67 18.51 8.00 18.56 C 5.81 18.49 2.78 18.64 1.83 16.14 C 0.64 12.92 0.41 9.42 0.05 6.03 Z" />
</g>
<g id="#3f4955ff">
<path fill="#3f4955" opacity="1.00" d=" M 0.00 5.02 L 0.05 6.03 C 0.41 9.42 0.64 12.92 1.83 16.14 C 2.78 18.64 5.81 18.49 8.00 18.56 C 13.67 18.51 19.34 18.57 25.01 18.54 C 27.77 18.66 30.26 17.40 32.62 16.15 C 32.55 16.79 32.39 18.08 32.32 18.73 C 35.84 18.35 38.90 16.07 40.07 12.70 C 40.41 14.51 40.87 16.29 41.31 18.07 C 46.51 18.82 51.78 18.59 57.02 18.52 C 58.95 18.51 61.41 18.26 62.17 16.15 C 63.53 12.76 63.55 9.03 63.77 5.44 L 64.00 6.50 L 64.00 29.37 C 63.11 31.72 62.74 34.90 60.60 36.38 C 55.56 36.85 50.43 36.42 45.44 37.52 C 43.76 35.08 43.04 31.95 43.94 29.08 C 44.47 26.76 46.41 25.25 47.98 23.62 C 46.29 22.03 44.40 20.49 42.04 20.10 C 38.87 19.16 35.80 20.92 32.83 21.78 C 29.55 20.72 25.92 19.04 22.53 20.73 C 17.29 22.88 15.45 29.10 16.01 34.32 C 12.21 37.42 7.19 36.83 2.65 36.41 C 1.68 34.55 0.74 32.65 0.00 30.68 L 0.00 5.02 Z" />
</g>
<g id="#ffffffff">
<path fill="#ffffff" opacity="1.00" d=" M 32.62 16.15 C 33.46 12.24 36.88 9.52 40.71 8.86 C 40.51 10.14 40.30 11.42 40.07 12.70 C 38.90 16.07 35.84 18.35 32.32 18.73 C 32.39 18.08 32.55 16.79 32.62 16.15 Z" />
<path fill="#ffffff" opacity="1.00" d=" M 22.53 20.73 C 25.92 19.04 29.55 20.72 32.83 21.78 C 35.80 20.92 38.87 19.16 42.04 20.10 C 44.40 20.49 46.29 22.03 47.98 23.62 C 46.41 25.25 44.47 26.76 43.94 29.08 C 43.04 31.95 43.76 35.08 45.44 37.52 C 46.60 38.52 47.82 39.44 49.04 40.37 C 48.40 41.74 47.79 43.12 47.10 44.47 C 45.56 47.01 43.89 49.92 40.91 50.93 C 38.82 51.25 36.87 50.11 34.87 49.70 C 31.55 48.51 28.48 51.78 25.17 50.80 C 22.94 49.88 21.55 47.75 20.20 45.87 C 18.02 42.36 16.52 38.43 16.01 34.32 C 15.45 29.10 17.29 22.88 22.53 20.73 Z" />
</g>
<g id="#282e3aff">
<path fill="#282e3a" opacity="1.00" d=" M 0.00 44.83 C 0.83 46.39 1.76 47.90 2.68 49.41 C 7.85 49.93 13.06 49.88 18.24 49.54 C 18.90 48.32 19.56 47.10 20.20 45.87 C 21.55 47.75 22.94 49.88 25.17 50.80 C 28.48 51.78 31.55 48.51 34.87 49.70 C 36.87 50.11 38.82 51.25 40.91 50.93 C 43.89 49.92 45.56 47.01 47.10 44.47 C 47.35 46.13 47.60 47.80 47.85 49.47 C 52.34 49.90 56.86 49.92 61.35 49.43 C 62.28 47.85 63.20 46.27 64.00 44.62 L 64.00 58.15 C 63.31 60.86 61.29 62.88 58.79 64.00 L 5.23 64.00 C 2.76 62.93 0.85 60.94 0.00 58.37 L 0.00 44.83 Z" />
</g>
</svg>
