<svg xmlns="http://www.w3.org/2000/svg" width="22" height="18" viewBox="0 0 22 18">
    <path fill="#2C97DE" fill-rule="nonzero" d="M17.5 9.854c0 1.09-.874 1.98-1.942 1.975H6.834l-2.459 2.895a.78.78 0 0 1-.59.276.787.787 0 0 1-.783-.793v-2.373h-.556c-1.072 0-1.946-.89-1.946-1.98V1.98C.5.89 1.374 0 2.446 0h13.108C16.626 0 17.5.89 17.5 1.98v7.874zm-10.911.907h8.965a.9.9 0 0 0 .891-.907V1.98a.9.9 0 0 0-.891-.907H2.446a.9.9 0 0 0-.891.907v7.87c0 .499.4.906.891.906h1.077c.293 0 .53.241.53.539v2.159l2.135-2.51a.526.526 0 0 1 .4-.183zm11.185 6.963l-2.37-2.885H8.01a.524.524 0 0 1-.51-.539c0-.297.228-.538.51-.538h7.626c.149 0 .29.065.385.184l2.056 2.508v-2.158c0-.298.228-.539.51-.539h1.04c.472 0 .858-.407.858-.906V4.98c0-.5-.386-.906-.858-.906a.524.524 0 0 1-.51-.539c0-.293.228-.534.51-.534 1.032 0 1.873.889 1.873 1.979v7.872c0 1.09-.841 1.98-1.873 1.98h-.535v2.372c0 .337-.19.626-.489.744a.716.716 0 0 1-.265.053.725.725 0 0 1-.564-.276zM9 7a.5.5 0 1 1 0-1 .5.5 0 0 1 0 1zm2 0a.5.5 0 1 1 0-1 .5.5 0 0 1 0 1zM7 7a.5.5 0 1 1 0-1 .5.5 0 0 1 0 1z"/>
</svg>
