<?xml version="1.0" encoding="UTF-8" ?>
<!DOCTYPE svg PUBLIC "-//W3C//DTD SVG 1.1//EN" "http://www.w3.org/Graphics/SVG/1.1/DTD/svg11.dtd">
<svg width="24pt" height="24pt" viewBox="0 0 24 24" version="1.1" xmlns="http://www.w3.org/2000/svg">
<g id="#90c229ff">
<path fill="#90c229" opacity="1.00" d=" M 0.76 0.00 L 23.28 0.00 L 23.28 0.72 L 24.00 0.72 L 24.00 13.14 L 23.03 12.86 L 23.00 14.00 C 22.25 14.00 20.75 14.00 20.00 14.00 L 20.00 13.00 L 19.00 13.00 C 19.00 11.67 19.00 10.33 19.00 9.00 C 18.50 9.00 17.50 9.00 17.00 9.00 C 17.00 9.50 17.00 10.50 17.00 11.00 L 16.00 11.00 C 16.00 10.50 16.00 9.50 16.00 9.00 C 13.33 9.00 10.67 9.00 8.00 9.00 C 8.00 10.33 8.00 11.67 8.00 13.00 L 7.00 13.00 C 7.00 11.67 7.00 10.33 7.00 9.00 C 6.50 9.00 5.50 9.00 5.00 9.00 C 5.00 10.33 5.00 11.67 5.00 13.00 L 4.00 13.00 L 4.00 14.00 C 3.25 14.00 1.75 14.00 1.00 14.00 L 0.97 12.86 L 0.00 13.14 L 0.00 0.72 L 0.67 0.73 L 0.76 0.00 M 9.00 3.00 C 9.00 3.75 9.00 5.25 9.00 6.00 L 8.00 6.00 C 8.00 6.50 8.00 7.50 8.00 8.00 C 10.67 8.00 13.33 8.00 16.00 8.00 C 16.00 7.50 16.00 6.50 16.00 6.00 L 15.00 6.00 C 15.00 5.25 15.00 3.75 15.00 3.00 L 14.00 3.00 L 14.00 4.00 L 13.00 4.00 L 13.00 5.00 C 12.50 5.00 11.50 5.00 11.00 5.00 L 11.00 4.00 L 10.00 4.00 L 10.00 3.00 L 9.00 3.00 Z" />
<path fill="#90c229" opacity="1.00" d=" M 10.17 6.17 L 10.83 6.17 L 10.83 6.83 L 10.17 6.83 L 10.17 6.17 Z" />
<path fill="#90c229" opacity="1.00" d=" M 13.17 6.17 L 13.83 6.17 L 13.83 6.83 L 13.17 6.83 L 13.17 6.17 Z" />
</g>
<g id="#ffffffff">
<path fill="#ffffff" opacity="1.00" d=" M 9.00 3.00 L 10.00 3.00 L 10.00 4.00 L 11.00 4.00 L 11.00 5.00 C 11.50 5.00 12.50 5.00 13.00 5.00 L 13.00 4.00 L 14.00 4.00 L 14.00 3.00 L 15.00 3.00 C 15.00 3.75 15.00 5.25 15.00 6.00 L 16.00 6.00 C 16.00 6.50 16.00 7.50 16.00 8.00 C 13.33 8.00 10.67 8.00 8.00 8.00 C 8.00 7.50 8.00 6.50 8.00 6.00 L 9.00 6.00 C 9.00 5.25 9.00 3.75 9.00 3.00 M 10.17 6.17 L 10.17 6.83 L 10.83 6.83 L 10.83 6.17 L 10.17 6.17 M 13.17 6.17 L 13.17 6.83 L 13.83 6.83 L 13.83 6.17 L 13.17 6.17 Z" />
<path fill="#ffffff" opacity="1.00" d=" M 5.00 9.00 C 5.50 9.00 6.50 9.00 7.00 9.00 C 7.00 10.33 7.00 11.67 7.00 13.00 C 7.00 13.50 7.00 14.50 7.00 15.00 C 6.50 15.00 5.50 15.00 5.00 15.00 C 5.00 14.50 5.00 13.50 5.00 13.00 C 5.00 11.67 5.00 10.33 5.00 9.00 Z" />
<path fill="#ffffff" opacity="1.00" d=" M 8.00 9.00 C 10.67 9.00 13.33 9.00 16.00 9.00 C 16.00 9.50 16.00 10.50 16.00 11.00 C 16.00 12.50 16.00 15.50 16.00 17.00 L 15.00 17.00 C 15.00 17.75 15.00 19.25 15.00 20.00 C 14.50 20.00 13.50 20.00 13.00 20.00 C 13.00 19.25 13.00 17.75 13.00 17.00 C 12.50 17.00 11.50 17.00 11.00 17.00 C 11.00 17.75 11.00 19.25 11.00 20.00 C 10.50 20.00 9.50 20.00 9.00 20.00 C 9.00 19.25 9.00 17.75 9.00 17.00 L 8.00 17.00 C 8.00 15.67 8.00 14.33 8.00 13.00 C 8.00 11.67 8.00 10.33 8.00 9.00 Z" />
<path fill="#ffffff" opacity="1.00" d=" M 17.00 9.00 C 17.50 9.00 18.50 9.00 19.00 9.00 C 19.00 10.33 19.00 11.67 19.00 13.00 C 19.00 13.50 19.00 14.50 19.00 15.00 C 18.50 15.00 17.50 15.00 17.00 15.00 C 17.00 13.67 17.00 12.33 17.00 11.00 C 17.00 10.50 17.00 9.50 17.00 9.00 Z" />
</g>
<g id="#75a512ff">
<path fill="#75a512" opacity="1.00" d=" M 16.00 11.00 L 17.00 11.00 C 17.00 12.33 17.00 13.67 17.00 15.00 C 17.50 15.00 18.50 15.00 19.00 15.00 C 19.00 14.50 19.00 13.50 19.00 13.00 L 20.00 13.00 L 20.00 14.00 C 20.75 14.00 22.25 14.00 23.00 14.00 L 23.03 12.86 L 24.00 13.14 L 24.00 23.28 L 23.28 23.28 L 23.28 24.00 L 0.76 24.00 L 0.67 23.27 L 0.00 23.28 L 0.00 13.14 L 0.97 12.86 L 1.00 14.00 C 1.75 14.00 3.25 14.00 4.00 14.00 L 4.00 13.00 L 5.00 13.00 C 5.00 13.50 5.00 14.50 5.00 15.00 C 5.50 15.00 6.50 15.00 7.00 15.00 C 7.00 14.50 7.00 13.50 7.00 13.00 L 8.00 13.00 C 8.00 14.33 8.00 15.67 8.00 17.00 L 9.00 17.00 C 9.00 17.75 9.00 19.25 9.00 20.00 C 9.50 20.00 10.50 20.00 11.00 20.00 C 11.00 19.25 11.00 17.75 11.00 17.00 C 11.50 17.00 12.50 17.00 13.00 17.00 C 13.00 17.75 13.00 19.25 13.00 20.00 C 13.50 20.00 14.50 20.00 15.00 20.00 C 15.00 19.25 15.00 17.75 15.00 17.00 L 16.00 17.00 C 16.00 15.50 16.00 12.50 16.00 11.00 Z" />
</g>
</svg>
