<svg xmlns="http://www.w3.org/2000/svg" width="15" height="20" viewBox="0 0 15 20">
    <g fill="#78909C" fill-rule="nonzero">
        <path d="M1.748 19.011c.023.539.466.964 1.004.964h9.385c.539 0 .982-.425 1.004-.964l.67-14.147H1.078l.67 14.147zm7.82-10.633c0-.225.182-.408.408-.408h.653c.225 0 .408.182.408.408v8.083a.408.408 0 0 1-.408.408h-.653a.408.408 0 0 1-.409-.408V8.378zm-2.858 0c0-.225.183-.408.408-.408h.653c.226 0 .408.182.408.408v8.083a.408.408 0 0 1-.408.408h-.653a.408.408 0 0 1-.408-.408V8.378zm-2.858 0c0-.225.183-.408.408-.408h.653c.226 0 .409.182.409.408v8.083a.408.408 0 0 1-.409.408H4.26a.408.408 0 0 1-.408-.408V8.378zM14.258 1.029h-4.33V.211A.21.21 0 0 0 9.718 0H5.17a.21.21 0 0 0-.21.21v.819H.631a.63.63 0 0 0-.63.63v1.983h14.887V1.66a.63.63 0 0 0-.63-.631z"/>
    </g>
</svg>
