<?xml version="1.0" encoding="UTF-8" ?>
<!DOCTYPE svg PUBLIC "-//W3C//DTD SVG 1.1//EN" "http://www.w3.org/Graphics/SVG/1.1/DTD/svg11.dtd">
<svg width="18pt" height="18pt" viewBox="0 0 18 18" version="1.1" xmlns="http://www.w3.org/2000/svg">
<g id="#cdd6dafd">
<path fill="#cdd6da" opacity="1.00" d=" M 2.00 0.00 L 16.00 0.00 L 16.00 1.00 C 11.33 1.00 6.67 1.00 2.00 1.00 L 2.00 0.00 Z" />
<path fill="#cdd6da" opacity="1.00" d=" M 0.00 1.00 L 0.99 1.00 C 0.99 4.75 0.99 12.25 0.99 16.00 L 0.00 16.00 L 0.00 1.00 Z" />
<path fill="#cdd6da" opacity="1.00" d=" M 17.01 1.00 L 18.00 1.00 L 18.00 16.00 L 17.01 16.00 C 17.01 12.25 17.01 4.75 17.01 1.00 Z" />
<path fill="#cdd6da" opacity="1.00" d=" M 5.00 5.00 C 7.67 5.00 10.33 5.00 13.00 5.00 C 13.00 5.50 13.00 6.50 13.00 7.00 C 10.33 7.00 7.67 7.00 5.00 7.00 C 5.00 6.50 5.00 5.50 5.00 5.00 Z" />
<path fill="#cdd6da" opacity="1.00" d=" M 5.00 8.00 C 7.67 8.00 10.33 8.00 13.00 8.00 C 13.00 8.50 13.00 9.50 13.00 10.00 C 10.33 10.00 7.67 10.00 5.00 10.00 C 5.00 9.50 5.00 8.50 5.00 8.00 Z" />
<path fill="#cdd6da" opacity="1.00" d=" M 5.00 11.00 C 7.67 11.00 10.33 11.00 13.00 11.00 C 13.00 11.50 13.00 12.50 13.00 13.00 C 10.33 13.00 7.67 13.00 5.00 13.00 C 5.00 12.50 5.00 11.50 5.00 11.00 Z" />
<path fill="#cdd6da" opacity="1.00" d=" M 1.00 17.00 C 6.33 17.00 11.67 17.00 17.00 17.00 L 17.00 18.00 L 1.00 18.00 L 1.00 17.00 Z" />
</g>
</svg>
