<?xml version="1.0" encoding="UTF-8"?>
<svg width="16px" height="10px" viewBox="0 0 16 10" version="1.1" xmlns="http://www.w3.org/2000/svg" xmlns:xlink="http://www.w3.org/1999/xlink">
    <!-- Generator: Sketch 48.2 (47327) - http://www.bohemiancoding.com/sketch -->
    <title>eye</title>
    <desc>Created with Sketch.</desc>
    <defs></defs>
    <g id="Artboard-3" stroke="none" stroke-width="1" transform="translate(-271.000000, -183.000000)">
        <g id="eye" transform="translate(271.000000, 183.000000)" >
            <path d="M7.99754601,0.0237218814 C4.94151329,0.0237218814 2.17014315,1.69570552 0.125153374,4.41145194 C-0.0417177914,4.63394683 -0.0417177914,4.94478528 0.125153374,5.16728016 C2.17014315,7.88629857 4.94151329,9.55828221 7.99754601,9.55828221 C11.0535787,9.55828221 13.8249489,7.88629857 15.8699387,5.17055215 C16.0368098,4.94805726 16.0368098,4.63721881 15.8699387,4.41472393 C13.8249489,1.69570552 11.0535787,0.0237218814 7.99754601,0.0237218814 Z M8.21676892,8.14805726 C6.18813906,8.27566462 4.51288344,6.60368098 4.6404908,4.57177914 C4.74519427,2.89652352 6.10306748,1.53865031 7.77832311,1.43394683 C9.80695297,1.30633947 11.4822086,2.97832311 11.3546012,5.01022495 C11.2466258,6.68220859 9.88875256,8.0400818 8.21676892,8.14805726 Z M8.11533742,6.59713701 C7.02249489,6.66584867 6.1194274,5.76605317 6.19141104,4.67321063 C6.24703476,3.77014315 6.9799591,3.0404908 7.88302658,2.98159509 C8.97586912,2.91288344 9.87893661,3.81267894 9.80695297,4.90552147 C9.74805726,5.81186094 9.01513292,6.54151329 8.11533742,6.59713701 Z" id="Shape"></path>
        </g>
    </g>
</svg>