<?xml version="1.0" encoding="UTF-8" ?>
<!DOCTYPE svg PUBLIC "-//W3C//DTD SVG 1.1//EN" "http://www.w3.org/Graphics/SVG/1.1/DTD/svg11.dtd">
<svg width="768pt" height="227pt" viewBox="0 0 768 227" version="1.1" xmlns="http://www.w3.org/2000/svg">
<g id="#a6a6a6ff">
<path fill="#a6a6a6" opacity="1.00" d=" M 24.83 0.00 L 742.62 0.00 C 755.50 1.39 766.24 12.11 768.00 24.89 L 768.00 204.12 L 767.99 201.70 C 766.57 214.54 755.87 225.21 743.14 227.00 L 25.41 227.00 C 12.53 225.63 1.76 214.92 0.00 202.15 L 0.00 23.08 L 0.01 25.13 C 1.52 12.37 12.16 1.77 24.83 0.00 M 21.39 5.61 C 13.45 8.01 7.04 14.82 5.19 22.91 C 4.40 26.22 4.55 29.63 4.54 33.00 C 4.57 88.33 4.51 143.67 4.57 199.00 C 4.45 211.82 16.22 223.00 28.99 222.46 C 265.65 222.47 502.32 222.47 738.98 222.46 C 751.76 223.02 763.53 211.86 763.42 199.03 C 763.47 142.04 763.47 85.05 763.42 28.05 C 763.57 15.22 751.81 3.98 739.02 4.54 C 504.34 4.53 269.67 4.54 34.99 4.53 C 30.45 4.57 25.79 4.21 21.39 5.61 Z" />
</g>
<g id="#000000ff">
<path fill="#000000" opacity="1.00" d=" M 21.39 5.61 C 25.79 4.21 30.45 4.57 34.99 4.53 C 269.67 4.54 504.34 4.53 739.02 4.54 C 751.81 3.98 763.57 15.22 763.42 28.05 C 763.47 85.05 763.47 142.04 763.42 199.03 C 763.53 211.86 751.76 223.02 738.98 222.46 C 502.32 222.47 265.65 222.47 28.99 222.46 C 16.22 223.00 4.45 211.82 4.57 199.00 C 4.51 143.67 4.57 88.33 4.54 33.00 C 4.55 29.63 4.40 26.22 5.19 22.91 C 7.04 14.82 13.45 8.01 21.39 5.61 M 239.36 43.39 C 233.96 48.27 232.44 56.47 234.81 63.22 C 237.19 69.91 243.83 74.83 250.95 75.05 C 257.03 75.51 263.36 72.76 266.70 67.56 C 269.15 63.89 269.43 59.28 268.98 55.01 C 263.10 54.99 257.23 55.00 251.35 55.00 C 251.35 56.76 251.35 58.51 251.36 60.27 C 255.49 60.28 259.63 60.22 263.76 60.32 C 262.81 68.85 251.69 72.37 245.11 67.79 C 237.99 63.43 237.38 51.95 243.81 46.72 C 248.72 42.34 257.08 42.82 261.31 47.94 C 262.57 46.70 263.83 45.45 265.09 44.21 C 258.76 36.79 246.19 36.50 239.36 43.39 M 274.34 39.14 C 274.35 50.85 274.32 62.56 274.35 74.27 C 281.34 74.26 288.32 74.27 295.30 74.26 C 295.30 72.51 295.30 70.76 295.31 69.00 C 290.14 69.00 284.98 69.00 279.82 69.00 C 279.82 65.78 279.82 62.56 279.82 59.34 C 284.47 59.33 289.13 59.33 293.78 59.33 C 293.79 57.60 293.79 55.87 293.79 54.14 C 289.14 54.13 284.48 54.14 279.82 54.13 C 279.82 50.91 279.82 47.69 279.82 44.48 C 284.98 44.45 290.14 44.48 295.30 44.46 C 295.30 42.69 295.30 40.91 295.30 39.14 C 288.31 39.13 281.33 39.13 274.34 39.14 M 298.77 39.14 C 298.76 40.91 298.76 42.69 298.77 44.46 C 301.93 44.47 305.10 44.46 308.27 44.47 C 308.28 54.43 308.26 64.38 308.29 74.34 C 310.10 74.33 311.91 74.33 313.73 74.34 C 313.75 64.38 313.73 54.43 313.74 44.47 C 316.91 44.46 320.08 44.47 323.25 44.46 C 323.24 42.69 323.25 40.91 323.25 39.14 C 315.09 39.13 306.93 39.13 298.77 39.14 M 339.01 39.13 C 339.00 50.87 339.00 62.60 339.01 74.33 C 340.82 74.33 342.64 74.33 344.47 74.33 C 344.47 62.60 344.47 50.87 344.47 39.13 C 342.64 39.13 340.82 39.13 339.01 39.13 M 348.93 39.14 C 348.93 40.91 348.93 42.69 348.94 44.47 C 352.11 44.46 355.27 44.47 358.44 44.47 C 358.45 54.43 358.43 64.38 358.45 74.34 C 360.27 74.33 362.09 74.33 363.91 74.33 C 363.92 64.38 363.90 54.42 363.92 44.47 C 367.08 44.47 370.25 44.47 373.42 44.46 C 373.41 42.69 373.41 40.91 373.41 39.13 C 365.25 39.13 357.09 39.13 348.93 39.14 M 399.12 39.16 C 392.90 41.04 387.93 46.64 386.84 53.06 C 385.35 60.29 388.48 68.23 394.73 72.25 C 401.72 76.86 412.05 75.82 417.68 69.49 C 424.18 62.77 424.29 51.01 417.87 44.20 C 413.33 38.98 405.66 37.20 399.12 39.16 M 427.63 39.13 C 427.62 50.87 427.63 62.60 427.63 74.33 C 429.43 74.33 431.23 74.33 433.04 74.33 C 432.99 65.49 433.16 56.64 432.91 47.80 C 438.42 56.64 443.95 65.46 449.44 74.32 C 451.25 74.33 453.06 74.33 454.88 74.34 C 454.88 62.60 454.88 50.87 454.88 39.13 C 453.05 39.13 451.23 39.14 449.41 39.14 C 449.47 47.57 449.29 56.00 449.55 64.42 C 444.27 56.00 439.05 47.55 433.78 39.13 C 431.73 39.13 429.68 39.13 427.63 39.13 M 59.01 42.47 C 57.40 45.01 56.42 47.92 56.54 50.96 C 56.53 92.63 56.51 134.30 56.53 175.97 C 56.40 179.01 57.40 181.92 59.09 184.42 C 62.44 187.11 67.01 186.75 70.56 184.66 C 98.30 169.03 125.88 153.12 153.64 137.51 C 162.89 132.09 172.29 126.94 181.55 121.55 C 184.87 119.66 188.05 116.13 187.17 112.03 C 186.38 108.22 182.83 106.01 179.69 104.23 C 170.99 99.33 162.33 94.35 153.63 89.44 L 153.73 89.33 C 127.64 74.80 101.82 59.81 75.80 45.15 C 72.35 43.30 69.01 40.76 64.97 40.50 C 62.77 40.26 60.86 41.47 59.01 42.47 M 239.74 112.52 C 233.78 120.63 231.38 131.24 233.36 141.11 C 235.67 153.42 244.70 164.07 256.27 168.73 C 269.29 174.01 285.74 172.07 295.88 161.88 C 304.22 154.06 306.80 141.73 305.10 130.73 C 293.57 130.73 282.04 130.73 270.51 130.73 C 270.50 134.17 270.50 137.62 270.51 141.06 C 278.67 141.08 286.84 141.05 295.01 141.07 C 294.21 146.06 292.56 151.25 288.65 154.69 C 278.95 163.88 262.17 163.53 252.53 154.41 C 244.01 146.75 241.42 133.57 246.01 123.14 C 249.83 114.00 259.07 107.40 269.00 107.00 C 276.34 106.44 283.66 109.24 289.04 114.21 C 291.44 111.81 293.85 109.41 296.24 106.99 C 290.00 100.96 281.67 97.09 272.96 96.75 C 260.14 95.86 247.19 102.08 239.74 112.52 M 468.17 99.33 C 468.16 122.97 468.16 146.62 468.16 170.26 C 471.69 170.27 475.21 170.27 478.74 170.26 C 478.74 146.62 478.74 122.98 478.74 99.33 C 475.21 99.33 471.69 99.33 468.17 99.33 M 551.44 99.34 C 551.45 122.98 551.43 146.63 551.46 170.27 C 554.97 170.26 558.50 170.27 562.02 170.26 C 562.04 161.31 562.01 152.35 562.04 143.39 C 567.01 143.38 571.99 143.45 576.96 143.38 C 584.77 143.31 592.66 139.39 596.81 132.66 C 601.27 125.56 600.99 115.79 596.09 108.98 C 591.80 102.94 584.43 99.40 577.08 99.35 C 568.53 99.31 559.99 99.34 551.44 99.34 M 605.82 99.35 C 605.83 122.99 605.82 146.62 605.83 170.26 C 609.35 170.27 612.87 170.27 616.40 170.26 C 616.41 146.62 616.40 122.98 616.41 99.34 C 612.88 99.33 609.35 99.32 605.82 99.35 M 327.11 124.22 C 320.51 125.81 314.68 130.37 311.67 136.48 C 307.40 144.99 308.48 156.02 314.74 163.29 C 319.65 169.16 327.50 172.28 335.10 171.67 C 342.77 171.19 350.15 166.85 354.03 160.17 C 359.72 150.76 358.16 137.46 349.99 129.96 C 344.02 124.27 335.05 122.22 327.11 124.22 M 378.40 124.63 C 372.44 126.47 367.26 130.78 364.46 136.37 C 360.21 144.74 361.15 155.60 367.16 162.90 C 372.11 169.10 380.29 172.38 388.16 171.64 C 396.02 171.06 403.52 166.38 407.23 159.38 C 412.60 149.66 410.49 136.26 401.81 129.14 C 395.48 123.72 386.30 122.13 378.40 124.63 M 414.73 145.08 C 413.31 156.34 420.97 167.92 431.96 170.84 C 438.55 172.87 446.13 171.05 450.83 165.92 C 450.77 170.17 450.93 174.75 448.56 178.49 C 444.92 184.38 435.98 185.41 430.60 181.38 C 428.38 179.85 426.99 177.48 425.59 175.24 C 422.60 176.60 419.57 177.83 416.55 179.11 C 419.70 186.15 426.25 191.82 433.99 193.00 C 441.55 194.17 450.14 192.19 455.22 186.14 C 459.50 181.15 460.84 174.37 460.83 167.96 C 460.85 153.60 460.84 139.23 460.84 124.87 C 457.51 124.86 454.17 124.86 450.84 124.87 C 450.84 126.26 450.84 127.66 450.85 129.06 C 447.67 125.87 443.48 123.63 438.92 123.46 C 426.75 122.62 415.71 133.15 414.73 145.08 M 492.96 127.96 C 482.20 136.10 480.82 153.46 489.60 163.53 C 495.42 170.47 505.41 173.23 514.06 170.85 C 519.70 169.44 524.52 165.69 527.88 161.01 C 525.16 159.18 522.44 157.36 519.73 155.52 C 518.04 157.59 516.24 159.70 513.77 160.83 C 507.44 164.03 499.03 161.43 496.07 154.87 C 506.82 150.41 517.57 145.94 528.32 141.49 C 526.33 136.06 523.43 130.71 518.64 127.26 C 511.19 121.72 500.20 122.35 492.96 127.96 M 623.46 134.15 C 626.56 135.45 629.67 136.74 632.78 138.03 C 637.55 129.28 653.75 132.12 653.87 142.66 C 645.42 138.65 634.56 139.18 627.22 145.23 C 621.65 149.72 620.70 158.48 624.77 164.26 C 631.21 173.61 647.40 174.39 653.67 164.40 C 653.65 166.30 653.65 168.22 653.66 170.13 C 657.06 170.13 660.46 170.13 663.86 170.13 C 663.87 162.09 663.85 154.05 663.87 146.01 C 664.02 141.26 663.60 136.22 660.89 132.16 C 652.56 119.70 630.14 120.31 623.46 134.15 M 664.58 124.87 C 670.87 139.21 677.17 153.53 683.46 167.87 C 679.87 175.82 676.29 183.77 672.71 191.73 C 676.38 191.73 680.05 191.73 683.73 191.73 C 693.39 169.44 703.10 147.16 712.75 124.87 C 708.86 124.86 704.96 124.87 701.07 124.87 C 696.94 135.21 692.94 145.61 688.75 155.94 C 684.35 145.64 680.25 135.21 675.96 124.87 C 672.16 124.87 668.37 124.86 664.58 124.87 Z" />
<path fill="#000000" opacity="1.00" d=" M 401.12 44.18 C 408.27 41.91 416.41 47.38 416.92 54.87 C 418.25 62.08 412.52 69.86 404.98 69.76 C 397.63 70.28 391.37 63.22 392.18 56.01 C 392.22 50.69 395.95 45.58 401.12 44.18 Z" />
<path fill="#000000" opacity="1.00" d=" M 562.02 109.13 C 567.36 109.19 572.70 109.03 578.05 109.20 C 583.80 109.45 588.75 114.33 589.36 120.01 C 590.18 126.61 584.65 133.16 577.99 133.42 C 572.66 133.56 567.33 133.42 562.01 133.47 C 562.01 125.35 562.01 117.24 562.02 109.13 Z" />
<path fill="#000000" opacity="1.00" d=" M 329.40 133.53 C 336.10 131.28 343.84 135.48 345.92 142.15 C 348.82 149.63 344.93 159.46 336.89 161.63 C 330.11 163.79 322.47 159.31 320.50 152.59 C 317.90 145.24 321.58 135.76 329.40 133.53 Z" />
<path fill="#000000" opacity="1.00" d=" M 383.24 133.24 C 390.43 131.50 397.95 136.88 399.20 144.04 C 400.98 151.24 396.91 159.78 389.47 161.68 C 382.50 163.79 374.77 158.95 373.07 152.01 C 370.63 144.38 375.03 134.82 383.24 133.24 Z" />
<path fill="#000000" opacity="1.00" d=" M 434.48 133.66 C 440.35 131.41 447.31 134.59 449.81 140.26 C 453.40 147.50 451.14 158.16 443.10 161.30 C 435.84 164.36 427.20 159.04 425.72 151.53 C 423.86 144.53 427.34 136.03 434.48 133.66 Z" />
<path fill="#000000" opacity="1.00" d=" M 504.19 133.19 C 508.59 131.94 513.78 133.68 515.98 137.82 C 508.74 140.87 501.51 143.92 494.22 146.85 C 494.05 140.71 498.16 134.71 504.19 133.19 Z" />
<path fill="#000000" opacity="1.00" d=" M 635.79 150.71 C 641.18 147.44 648.22 148.15 653.69 150.92 C 652.80 159.18 642.80 165.12 635.44 160.66 C 631.60 158.61 632.22 152.70 635.79 150.71 Z" />
</g>
<g id="#ffffffff">
<path fill="#ffffff" opacity="1.00" d=" M 239.36 43.39 C 246.19 36.50 258.76 36.79 265.09 44.21 C 263.83 45.45 262.57 46.70 261.31 47.94 C 257.08 42.82 248.72 42.34 243.81 46.72 C 237.38 51.95 237.99 63.43 245.11 67.79 C 251.69 72.37 262.81 68.85 263.76 60.32 C 259.63 60.22 255.49 60.28 251.36 60.27 C 251.35 58.51 251.35 56.76 251.35 55.00 C 257.23 55.00 263.10 54.99 268.98 55.01 C 269.43 59.28 269.15 63.89 266.70 67.56 C 263.36 72.76 257.03 75.51 250.95 75.05 C 243.83 74.83 237.19 69.91 234.81 63.22 C 232.44 56.47 233.96 48.27 239.36 43.39 Z" />
<path fill="#ffffff" opacity="1.00" d=" M 274.34 39.14 C 281.33 39.13 288.31 39.13 295.30 39.14 C 295.30 40.91 295.30 42.69 295.30 44.46 C 290.14 44.48 284.98 44.45 279.82 44.48 C 279.82 47.69 279.82 50.91 279.82 54.13 C 284.48 54.14 289.14 54.13 293.79 54.14 C 293.79 55.87 293.79 57.60 293.78 59.33 C 289.13 59.33 284.47 59.33 279.82 59.34 C 279.82 62.56 279.82 65.78 279.82 69.00 C 284.98 69.00 290.14 69.00 295.31 69.00 C 295.30 70.76 295.30 72.51 295.30 74.26 C 288.32 74.27 281.34 74.26 274.35 74.27 C 274.32 62.56 274.35 50.85 274.34 39.14 Z" />
<path fill="#ffffff" opacity="1.00" d=" M 298.77 39.14 C 306.93 39.13 315.09 39.13 323.25 39.14 C 323.25 40.91 323.24 42.69 323.25 44.46 C 320.08 44.47 316.91 44.46 313.74 44.47 C 313.73 54.43 313.75 64.38 313.73 74.34 C 311.91 74.33 310.10 74.33 308.29 74.34 C 308.26 64.38 308.28 54.43 308.27 44.47 C 305.10 44.46 301.93 44.47 298.77 44.46 C 298.76 42.69 298.76 40.91 298.77 39.14 Z" />
<path fill="#ffffff" opacity="1.00" d=" M 339.01 39.13 C 340.82 39.13 342.64 39.13 344.47 39.13 C 344.47 50.87 344.47 62.60 344.47 74.33 C 342.64 74.33 340.82 74.33 339.01 74.33 C 339.00 62.60 339.00 50.87 339.01 39.13 Z" />
<path fill="#ffffff" opacity="1.00" d=" M 348.93 39.14 C 357.09 39.13 365.25 39.13 373.41 39.13 C 373.41 40.91 373.41 42.69 373.42 44.46 C 370.25 44.47 367.08 44.47 363.92 44.47 C 363.90 54.42 363.92 64.38 363.91 74.33 C 362.09 74.33 360.27 74.33 358.45 74.34 C 358.43 64.38 358.45 54.43 358.44 44.47 C 355.27 44.47 352.11 44.46 348.94 44.47 C 348.93 42.69 348.93 40.91 348.93 39.14 Z" />
<path fill="#ffffff" opacity="1.00" d=" M 399.12 39.16 C 405.66 37.20 413.33 38.98 417.87 44.20 C 424.29 51.01 424.18 62.77 417.68 69.49 C 412.05 75.82 401.72 76.86 394.73 72.25 C 388.48 68.23 385.35 60.29 386.84 53.06 C 387.93 46.64 392.90 41.04 399.12 39.16 M 401.12 44.18 C 395.95 45.58 392.22 50.69 392.18 56.01 C 391.37 63.22 397.63 70.28 404.98 69.76 C 412.52 69.86 418.25 62.08 416.92 54.87 C 416.41 47.38 408.27 41.91 401.12 44.18 Z" />
<path fill="#ffffff" opacity="1.00" d=" M 427.63 39.13 C 429.68 39.13 431.73 39.13 433.78 39.13 C 439.05 47.55 444.27 56.00 449.55 64.42 C 449.29 56.00 449.47 47.57 449.41 39.14 C 451.23 39.14 453.05 39.13 454.88 39.13 C 454.88 50.87 454.88 62.60 454.88 74.34 C 453.06 74.33 451.25 74.33 449.44 74.32 C 443.95 65.46 438.42 56.64 432.91 47.80 C 433.16 56.64 432.99 65.49 433.04 74.33 C 431.23 74.33 429.43 74.33 427.63 74.33 C 427.63 62.60 427.62 50.87 427.63 39.13 Z" />
<path fill="#ffffff" opacity="1.00" d=" M 239.74 112.52 C 247.19 102.08 260.14 95.86 272.96 96.75 C 281.67 97.09 290.00 100.96 296.24 106.99 C 293.85 109.41 291.44 111.81 289.04 114.21 C 283.66 109.24 276.34 106.44 269.00 107.00 C 259.07 107.40 249.83 114.00 246.01 123.14 C 241.42 133.57 244.01 146.75 252.53 154.41 C 262.17 163.53 278.95 163.88 288.65 154.69 C 292.56 151.25 294.21 146.06 295.01 141.07 C 286.84 141.05 278.67 141.08 270.51 141.06 C 270.50 137.62 270.50 134.17 270.51 130.73 C 282.04 130.73 293.57 130.73 305.10 130.73 C 306.80 141.73 304.22 154.06 295.88 161.88 C 285.74 172.07 269.29 174.01 256.27 168.73 C 244.70 164.07 235.67 153.42 233.36 141.11 C 231.38 131.24 233.78 120.63 239.74 112.52 Z" />
<path fill="#ffffff" opacity="1.00" d=" M 468.17 99.33 C 471.69 99.33 475.21 99.33 478.74 99.33 C 478.74 122.98 478.74 146.62 478.74 170.26 C 475.21 170.27 471.69 170.27 468.16 170.26 C 468.16 146.62 468.16 122.97 468.17 99.33 Z" />
<path fill="#ffffff" opacity="1.00" d=" M 551.44 99.34 C 559.99 99.34 568.53 99.31 577.08 99.35 C 584.43 99.40 591.80 102.94 596.09 108.98 C 600.99 115.79 601.27 125.56 596.81 132.66 C 592.66 139.39 584.77 143.31 576.96 143.38 C 571.99 143.45 567.01 143.38 562.04 143.39 C 562.01 152.35 562.04 161.31 562.02 170.26 C 558.50 170.27 554.97 170.26 551.46 170.27 C 551.43 146.63 551.45 122.98 551.44 99.34 M 562.02 109.13 C 562.01 117.24 562.01 125.35 562.01 133.47 C 567.33 133.42 572.66 133.56 577.99 133.42 C 584.65 133.16 590.18 126.61 589.36 120.01 C 588.75 114.33 583.80 109.45 578.05 109.20 C 572.70 109.03 567.36 109.19 562.02 109.13 Z" />
<path fill="#ffffff" opacity="1.00" d=" M 605.82 99.35 C 609.35 99.32 612.88 99.33 616.41 99.34 C 616.40 122.98 616.41 146.62 616.40 170.26 C 612.87 170.27 609.35 170.27 605.83 170.26 C 605.82 146.62 605.83 122.99 605.82 99.35 Z" />
<path fill="#ffffff" opacity="1.00" d=" M 327.11 124.22 C 335.05 122.22 344.02 124.27 349.99 129.96 C 358.16 137.46 359.72 150.76 354.03 160.17 C 350.15 166.85 342.77 171.19 335.10 171.67 C 327.50 172.28 319.65 169.16 314.74 163.29 C 308.48 156.02 307.40 144.99 311.67 136.48 C 314.68 130.37 320.51 125.81 327.11 124.22 M 329.40 133.53 C 321.58 135.76 317.90 145.24 320.50 152.59 C 322.47 159.31 330.11 163.79 336.89 161.63 C 344.93 159.46 348.82 149.63 345.92 142.15 C 343.84 135.48 336.10 131.28 329.40 133.53 Z" />
<path fill="#ffffff" opacity="1.00" d=" M 378.40 124.63 C 386.30 122.13 395.48 123.72 401.81 129.14 C 410.49 136.26 412.60 149.66 407.23 159.38 C 403.52 166.38 396.02 171.06 388.16 171.64 C 380.29 172.38 372.11 169.10 367.16 162.90 C 361.15 155.60 360.21 144.74 364.46 136.37 C 367.26 130.78 372.44 126.47 378.40 124.63 M 383.24 133.24 C 375.03 134.82 370.63 144.38 373.07 152.01 C 374.77 158.95 382.50 163.79 389.47 161.68 C 396.91 159.78 400.98 151.24 399.20 144.04 C 397.95 136.88 390.43 131.50 383.24 133.24 Z" />
<path fill="#ffffff" opacity="1.00" d=" M 414.73 145.08 C 415.71 133.15 426.75 122.62 438.92 123.46 C 443.48 123.63 447.67 125.87 450.85 129.06 C 450.84 127.66 450.84 126.26 450.84 124.87 C 454.17 124.86 457.51 124.86 460.84 124.87 C 460.84 139.23 460.85 153.60 460.83 167.96 C 460.84 174.37 459.50 181.15 455.22 186.14 C 450.14 192.19 441.55 194.17 433.99 193.00 C 426.25 191.82 419.70 186.15 416.55 179.11 C 419.57 177.83 422.60 176.60 425.59 175.24 C 426.99 177.48 428.38 179.85 430.60 181.38 C 435.98 185.41 444.92 184.38 448.56 178.49 C 450.93 174.75 450.77 170.17 450.83 165.92 C 446.13 171.05 438.55 172.87 431.96 170.84 C 420.97 167.92 413.31 156.34 414.73 145.08 M 434.48 133.66 C 427.34 136.03 423.86 144.53 425.72 151.53 C 427.20 159.04 435.84 164.36 443.10 161.30 C 451.14 158.16 453.40 147.50 449.81 140.26 C 447.31 134.59 440.35 131.41 434.48 133.66 Z" />
<path fill="#ffffff" opacity="1.00" d=" M 492.96 127.96 C 500.20 122.35 511.19 121.72 518.64 127.26 C 523.43 130.71 526.33 136.06 528.32 141.49 C 517.57 145.94 506.82 150.41 496.07 154.87 C 499.03 161.43 507.44 164.03 513.77 160.83 C 516.24 159.70 518.04 157.59 519.73 155.52 C 522.44 157.36 525.16 159.18 527.88 161.01 C 524.52 165.69 519.70 169.44 514.06 170.85 C 505.41 173.23 495.42 170.47 489.60 163.53 C 480.82 153.46 482.20 136.10 492.96 127.96 M 504.19 133.19 C 498.16 134.71 494.05 140.71 494.22 146.85 C 501.51 143.92 508.74 140.87 515.98 137.82 C 513.78 133.68 508.59 131.94 504.19 133.19 Z" />
<path fill="#ffffff" opacity="1.00" d=" M 623.46 134.15 C 630.14 120.31 652.56 119.70 660.89 132.16 C 663.60 136.22 664.02 141.26 663.87 146.01 C 663.85 154.05 663.87 162.09 663.86 170.13 C 660.46 170.13 657.06 170.13 653.66 170.13 C 653.65 168.22 653.65 166.30 653.67 164.40 C 647.40 174.39 631.21 173.61 624.77 164.26 C 620.70 158.48 621.65 149.72 627.22 145.23 C 634.56 139.18 645.42 138.65 653.87 142.66 C 653.75 132.12 637.55 129.28 632.78 138.03 C 629.67 136.74 626.56 135.45 623.46 134.15 M 635.79 150.71 C 632.22 152.70 631.60 158.61 635.44 160.66 C 642.80 165.12 652.80 159.18 653.69 150.92 C 648.22 148.15 641.18 147.44 635.79 150.71 Z" />
<path fill="#ffffff" opacity="1.00" d=" M 664.58 124.87 C 668.37 124.86 672.16 124.87 675.96 124.87 C 680.25 135.21 684.35 145.64 688.75 155.94 C 692.94 145.61 696.94 135.21 701.07 124.87 C 704.96 124.87 708.86 124.86 712.75 124.87 C 703.10 147.16 693.39 169.44 683.73 191.73 C 680.05 191.73 676.38 191.73 672.71 191.73 C 676.29 183.77 679.87 175.82 683.46 167.87 C 677.17 153.53 670.87 139.21 664.58 124.87 Z" />
</g>
<g id="#01ee76ff">
<path fill="#01ee76" opacity="1.00" d=" M 59.01 42.47 C 60.86 41.47 62.77 40.26 64.97 40.50 C 69.01 40.76 72.35 43.30 75.80 45.15 C 101.82 59.81 127.64 74.80 153.73 89.33 L 153.63 89.44 C 145.87 97.60 137.78 105.45 129.81 113.40 L 129.62 113.58 C 106.39 89.59 82.27 66.44 59.01 42.47 Z" />
</g>
<g id="#00cfffff">
<path fill="#00cfff" opacity="1.00" d=" M 59.01 42.47 C 82.27 66.44 106.39 89.59 129.62 113.58 C 106.12 137.21 82.53 160.73 59.09 184.42 C 57.40 181.92 56.40 179.01 56.53 175.97 C 56.51 134.30 56.53 92.63 56.54 50.96 C 56.42 47.92 57.40 45.01 59.01 42.47 Z" />
</g>
<g id="#ffcb00ff">
<path fill="#ffcb00" opacity="1.00" d=" M 129.81 113.40 C 137.78 105.45 145.87 97.60 153.63 89.44 C 162.33 94.35 170.99 99.33 179.69 104.23 C 182.83 106.01 186.38 108.22 187.17 112.03 C 188.05 116.13 184.87 119.66 181.55 121.55 C 172.29 126.94 162.89 132.09 153.64 137.51 C 145.81 129.36 137.64 121.54 129.81 113.40 Z" />
</g>
<g id="#f4324aff">
<path fill="#f4324a" opacity="1.00" d=" M 129.62 113.58 L 129.81 113.40 C 137.64 121.54 145.81 129.36 153.64 137.51 C 125.88 153.12 98.30 169.03 70.56 184.66 C 67.01 186.75 62.44 187.11 59.09 184.42 C 82.53 160.73 106.12 137.21 129.62 113.58 Z" />
</g>
</svg>
