<?xml version="1.0" encoding="UTF-8" ?>
<!DOCTYPE svg PUBLIC "-//W3C//DTD SVG 1.1//EN" "http://www.w3.org/Graphics/SVG/1.1/DTD/svg11.dtd">
<svg width="16pt" height="16pt" viewBox="0 0 16 16" version="1.1" xmlns="http://www.w3.org/2000/svg">
<g id="#77bc21ff">
<path fill="#77bc21" opacity="1.00" d=" M 7.00 0.00 L 7.77 0.00 C 12.13 -0.19 15.81 3.57 15.99 7.85 L 16.00 5.26 L 16.00 7.18 C 16.29 11.70 12.70 15.67 8.24 16.00 L 8.16 16.00 C 4.16 15.97 0.70 12.99 0.00 9.09 L 0.00 8.21 C -0.21 4.11 3.06 0.60 7.00 0.00 M 6.83 8.69 C 6.06 7.93 5.28 7.18 4.50 6.45 L 3.10 7.97 C 4.34 9.22 5.59 10.46 6.83 11.71 C 8.81 9.70 10.81 7.72 12.81 5.73 C 12.45 5.35 11.73 4.58 11.37 4.19 C 9.85 5.68 8.33 7.18 6.83 8.69 Z" />
</g>
</svg>
