<?xml version="1.0" encoding="iso-8859-1"?>
<!-- Generator: Adobe Illustrator 17.1.0, SVG Export Plug-In . SVG Version: 6.00 Build 0)  -->
<!DOCTYPE svg PUBLIC "-//W3C//DTD SVG 1.1//EN" "http://www.w3.org/Graphics/SVG/1.1/DTD/svg11.dtd">
<svg version="1.1" id="Capa_1" xmlns="http://www.w3.org/2000/svg" xmlns:xlink="http://www.w3.org/1999/xlink" x="0px" y="0px"
	 viewBox="0 0 465 465" style="enable-background:new 0 0 465 465;" xml:space="preserve">
<g>
	<path d="M390.624,50.379H349.63c-4.143,0-7.5,3.357-7.5,7.5s3.357,7.5,7.5,7.5h33.494V450H81.876V65.379h33.494
		c4.143,0,7.5-3.357,7.5-7.5s-3.357-7.5-7.5-7.5H74.376c-4.143,0-7.5,3.357-7.5,7.5V457.5c0,4.143,3.357,7.5,7.5,7.5h316.248
		c4.143,0,7.5-3.357,7.5-7.5V57.879C398.124,53.736,394.767,50.379,390.624,50.379z"/>
	<path d="M145.37,88.415h124.879c4.143,0,7.5-3.357,7.5-7.5s-3.357-7.5-7.5-7.5H152.87v-25.39c0-3.127,2.544-5.671,5.671-5.671
		h46.604c4.143,0,7.5-3.357,7.5-7.5C212.645,23.906,221.552,15,232.5,15s19.855,8.906,19.855,19.854c0,4.143,3.357,7.5,7.5,7.5
		h46.604c3.127,0,5.671,2.544,5.671,5.671v25.39h-11.881c-4.143,0-7.5,3.357-7.5,7.5s3.357,7.5,7.5,7.5h19.381
		c4.143,0,7.5-3.357,7.5-7.5v-32.89c0-11.398-9.272-20.671-20.671-20.671h-39.916C263.104,11.728,249.146,0,232.5,0
		s-30.604,11.728-34.043,27.354h-39.916c-11.398,0-20.671,9.272-20.671,20.671v32.89C137.87,85.058,141.228,88.415,145.37,88.415z"
		/>
	<path d="M145.37,418.483h36c4.143,0,7.5-3.357,7.5-7.5v-36c0-4.143-3.357-7.5-7.5-7.5h-36c-4.143,0-7.5,3.357-7.5,7.5v36
		C137.87,415.126,141.228,418.483,145.37,418.483z M152.87,382.483h21v21h-21V382.483z"/>
	<path d="M319.63,385.483H211.37c-4.143,0-7.5,3.357-7.5,7.5s3.357,7.5,7.5,7.5h108.26c4.143,0,7.5-3.357,7.5-7.5
		S323.772,385.483,319.63,385.483z"/>
	<path d="M145.37,335.966h36c4.143,0,7.5-3.357,7.5-7.5v-36c0-4.143-3.357-7.5-7.5-7.5h-36c-4.143,0-7.5,3.357-7.5,7.5v36
		C137.87,332.608,141.228,335.966,145.37,335.966z M152.87,299.966h21v21h-21V299.966z"/>
	<path d="M319.63,302.966H211.37c-4.143,0-7.5,3.357-7.5,7.5s3.357,7.5,7.5,7.5h108.26c4.143,0,7.5-3.357,7.5-7.5
		S323.772,302.966,319.63,302.966z"/>
	<path d="M145.37,253.449h36c4.143,0,7.5-3.357,7.5-7.5v-36c0-4.143-3.357-7.5-7.5-7.5h-36c-4.143,0-7.5,3.357-7.5,7.5v36
		C137.87,250.092,141.228,253.449,145.37,253.449z M152.87,217.449h21v21h-21V217.449z"/>
	<path d="M319.63,220.449H211.37c-4.143,0-7.5,3.357-7.5,7.5s3.357,7.5,7.5,7.5h108.26c4.143,0,7.5-3.357,7.5-7.5
		S323.772,220.449,319.63,220.449z"/>
	<path d="M145.37,170.932h36c4.143,0,7.5-3.357,7.5-7.5v-36c0-4.143-3.357-7.5-7.5-7.5h-36c-4.143,0-7.5,3.357-7.5,7.5v36
		C137.87,167.574,141.228,170.932,145.37,170.932z M152.87,134.932h21v21h-21V134.932z"/>
	<path d="M319.63,137.932H211.37c-4.143,0-7.5,3.357-7.5,7.5s3.357,7.5,7.5,7.5h108.26c4.143,0,7.5-3.357,7.5-7.5
		S323.772,137.932,319.63,137.932z"/>
</g>
<g>
</g>
<g>
</g>
<g>
</g>
<g>
</g>
<g>
</g>
<g>
</g>
<g>
</g>
<g>
</g>
<g>
</g>
<g>
</g>
<g>
</g>
<g>
</g>
<g>
</g>
<g>
</g>
<g>
</g>
</svg>
