<svg xmlns="http://www.w3.org/2000/svg" width="18" height="18" viewBox="0 0 18 18">
    <g fill="#2C97DE" fill-rule="nonzero">
        <path d="M9.23 16.5H2.309a.76.76 0 0 1-.77-.75V2.25a.76.76 0 0 1 .77-.75H9.23A.76.76 0 0 0 10 .75.76.76 0 0 0 9.23 0H2.309C1.035 0 0 1.01 0 2.25v13.5C0 16.99 1.035 18 2.308 18H9.23a.76.76 0 0 0 .769-.75.76.76 0 0 0-.77-.75z"/>
        <path d="M17.778 8.491L13.24 4.206a.77.77 0 0 0-1.055.007.692.692 0 0 0 .008 1.01l3.242 3.063H6.746C6.334 8.286 6 8.605 6 9c0 .395.334.714.746.714h8.69l-3.243 3.063a.693.693 0 0 0-.008 1.01.763.763 0 0 0 .531.213.76.76 0 0 0 .524-.206l4.538-4.285a.7.7 0 0 0 .222-.51.7.7 0 0 0-.222-.508z"/>
    </g>
</svg>
