<?xml version="1.0" encoding="UTF-8" ?>
<!DOCTYPE svg PUBLIC "-//W3C//DTD SVG 1.1//EN" "http://www.w3.org/Graphics/SVG/1.1/DTD/svg11.dtd">
<svg width="16pt" height="16pt" viewBox="0 0 16 16" version="1.1" xmlns="http://www.w3.org/2000/svg">
<g id="#ffffffff">
<path fill="#000" opacity="1.00" d=" M 6.12 0.00 L 6.65 0.00 C 11.28 0.35 13.68 5.57 11.61 9.55 C 13.07 11.02 14.59 12.44 16.00 13.96 L 16.00 15.40 L 15.48 15.57 L 15.53 16.00 L 14.37 16.00 C 12.61 14.70 11.06 13.15 9.49 11.65 C 5.56 13.59 0.50 11.33 0.00 6.84 L 0.00 6.15 C 0.07 2.83 2.81 0.10 6.12 0.00 M 4.21 3.05 C 2.27 4.13 1.83 7.06 3.43 8.62 C 5.24 10.93 9.48 9.80 9.82 6.86 C 10.57 3.86 6.70 1.18 4.21 3.05 Z" />
</g>
<g id="#85858586">
<path fill="#000" opacity="0.53" d=" M 15.48 15.57 L 16.00 15.40 L 16.00 16.00 L 15.53 16.00 L 15.48 15.57 Z" />
</g>
</svg>
