<svg xmlns="http://www.w3.org/2000/svg" width="23" height="18" viewBox="0 0 23 18">
    <path fill="#2C97DE" fill-rule="nonzero" d="M20.192 0C21.744 0 23.005 1.302 23 2.897v12.21C23 16.704 21.739 18 20.187 18H2.813C1.26 18 0 16.703 0 15.108V2.892C0 1.297 1.261 0 2.813 0h17.38zm1.528 15.108h-.005V2.898c0-.867-.685-1.572-1.528-1.572H2.813c-.843 0-1.528.705-1.528 1.571v12.21c0 .867.685 1.572 1.528 1.572h17.38c.842 0 1.527-.705 1.527-1.571zM14.5 8.849l5.647 5.346a.642.642 0 1 1-.885.93l-5.718-5.417-1.603 1.432a.64.64 0 0 1-.856.005l-1.56-1.39-5.751 5.365a.645.645 0 0 1-.88-.94l5.665-5.288-5.689-5.07a.643.643 0 0 1 .856-.958l6.156 5.492a.95.95 0 0 1 .104.09c0 .005.005.01.01.014l1.512 1.347 7.754-6.939a.642.642 0 1 1 .861.953L14.5 8.85z"/>
</svg>
