<?xml version="1.0" encoding="UTF-8" ?>
<!DOCTYPE svg PUBLIC "-//W3C//DTD SVG 1.1//EN" "http://www.w3.org/Graphics/SVG/1.1/DTD/svg11.dtd">
<svg width="126pt" height="150pt" viewBox="0 0 126 150" version="1.1" xmlns="http://www.w3.org/2000/svg">
<g id="#00eebcff">
<path fill="#00eebc" opacity="1.00" d=" M 36.84 20.91 C 43.41 14.60 49.73 8.04 56.22 1.65 C 69.14 14.13 81.67 27.03 94.44 39.68 C 94.59 39.92 94.90 40.41 95.05 40.66 C 84.14 52.07 72.73 63.01 61.71 74.32 C 53.99 67.05 46.63 59.41 39.05 51.99 C 34.28 47.35 31.62 40.59 32.28 33.93 C 32.43 29.22 34.87 25.05 36.84 20.91 Z" />
<path fill="#00eebc" opacity="1.00" d=" M 100.36 55.51 C 106.84 53.46 114.45 55.00 119.38 59.76 C 124.61 64.44 127.12 72.16 125.17 78.97 C 123.39 86.72 116.33 92.83 108.43 93.60 C 98.03 95.04 87.38 86.49 86.91 75.96 C 85.68 67.08 91.77 57.97 100.36 55.51 Z" />
</g>
<g id="#0698f1ff">
<path fill="#0698f1" opacity="1.00" d=" M 19.80 37.79 C 25.50 32.18 31.02 26.38 36.84 20.91 C 34.87 25.05 32.43 29.22 32.28 33.93 C 31.62 40.59 34.28 47.35 39.05 51.99 C 46.63 59.41 53.99 67.05 61.71 74.32 C 72.80 85.34 83.98 96.29 94.79 107.59 C 82.00 120.59 69.06 133.46 56.11 146.30 C 41.20 131.77 26.60 116.87 11.80 102.19 C 5.15 95.69 1.21 86.85 0.00 77.70 L 0.00 70.43 C 0.87 65.32 2.02 60.23 4.55 55.65 C 8.14 48.55 14.35 43.40 19.80 37.79 Z" />
</g>
</svg>
