<?xml version="1.0" encoding="UTF-8" standalone="no"?>
<svg width="32px" height="32px" viewBox="0 0 32 32" version="1.1" xmlns="http://www.w3.org/2000/svg" xmlns:xlink="http://www.w3.org/1999/xlink">
    <!-- Generator: Sketch 46 (44423) - http://www.bohemiancoding.com/sketch -->
    <title>IconPay/SteamSkin</title>
    <desc>Created with Sketch.</desc>
    <defs></defs>
    <g id="Steam" stroke="none" stroke-width="1" fill="none" fill-rule="evenodd">
        <g id="SteamSkin/index2" transform="translate(-33.000000, -227.000000)">
            <g id="SteamSkin2" transform="translate(33.000000, 227.000000)">
                <g id="steam-logo">
                    <circle id="Oval-5" fill="#4A4A4A" cx="16" cy="16" r="16"></circle>
                    <g id="Group" transform="translate(2.000000, 8.000000)">
                        <path d="M23.0568331,9.18249311 C23.5766248,8.9627075 24.0314855,8.65765391 24.421415,8.26777335 C24.8112466,7.8778928 25.1211516,7.42303216 25.3512772,6.90319142 C25.5810597,6.38335069 25.6960245,5.82352221 25.6960245,5.22370597 C25.6960245,4.62388974 25.5810597,4.06406126 25.3512772,3.54422052 C25.1212986,3.02437979 24.8112466,2.56951914 24.421415,2.17963859 C24.0314855,1.78975804 23.5766738,1.47985299 23.0568331,1.24992343 C22.5369433,1.01999387 21.9771149,0.905029096 21.3772986,0.905029096 C20.7974763,0.905029096 20.2476937,1.01499541 19.728,1.23492802 C19.2081103,1.45486064 18.7582481,1.75476876 18.3783645,2.13465237 C17.9984809,2.51453599 17.6934273,2.96439816 17.4636447,3.4842389 C17.2337642,4.00407963 17.1087534,4.55391118 17.0887596,5.13373354 L14.2996141,9.06252986 C13.6699541,9.06252986 13.1000306,9.22248086 12.560196,9.54238285 L7.49165084,6.51326187 C7.43166922,5.79348239 7.15675345,5.15867688 6.66690352,4.60884533 C6.1770536,4.05901378 5.55224502,3.71411945 4.79247779,3.57416233 C4.33261868,3.5141807 3.89275345,3.53417458 3.47288208,3.63414395 C3.05301072,3.73411332 2.67312711,3.90905972 2.33323124,4.15898315 C1.99333538,4.40890658 1.70842266,4.71381317 1.47849311,5.07370291 C1.24856355,5.43359265 1.10360796,5.83347014 1.04362634,6.27333538 C0.963650842,6.71320061 0.978646248,7.14306891 1.08861256,7.56294028 C1.19857887,7.98281164 1.37352527,8.36269525 1.61345176,8.70259112 C1.85337825,9.04258499 2.15328637,9.32739969 2.51317611,9.55732925 C2.87306585,9.78725881 3.27294334,9.94221133 3.71280858,10.0221868 C4.03271057,10.0821685 4.34261562,10.0870199 4.64252374,10.0371822 C4.94243185,9.98734456 5.23234303,9.91222052 5.51225727,9.81225115 L10.970536,12.8713629 C11.0705054,13.6911118 11.4303951,14.375902 12.0502052,14.9257335 C12.6700153,15.4755651 13.4097887,15.7504809 14.2695253,15.7504809 C14.7295314,15.7504809 15.1592527,15.6605084 15.5591302,15.4805636 C15.9590077,15.3006187 16.3088515,15.0606922 16.6088086,14.7607841 C16.9086677,14.460925 17.1486432,14.1109832 17.3285881,13.7111057 C17.5085329,13.3112282 17.5985054,12.8813599 17.5985054,12.4216478 L21.3473568,9.51253905 C21.9771149,9.51239204 22.5369433,9.40242573 23.0568331,9.18249311 Z" id="Path" fill="#FFFFFF"></path>
                        <path d="M2.60309954,6.78322818 C2.60309954,7.12312404 2.69307198,7.42303216 2.87301685,7.68295253 C3.05296172,7.94287289 3.28289127,8.1328147 3.56280551,8.25277795 L5.06234609,9.06252986 C4.78243185,9.18234609 4.49252067,9.24247473 4.19261256,9.24247473 C3.51282083,9.24247473 2.93299847,9.00254824 2.45314548,8.52269525 C1.9732925,8.04284227 1.733366,7.46301991 1.733366,6.78322818 C1.733366,6.10343645 1.9732925,5.52861256 2.45314548,5.05875651 C2.93299847,4.58890046 3.51282083,4.35397243 4.19261256,4.35397243 C4.77243492,4.35397243 5.28727718,4.53891577 5.73713936,4.90880245 C6.18700153,5.27868913 6.47191424,5.75354364 6.59187749,6.333366 L5.09233691,5.49362328 C4.81242266,5.31367841 4.51251455,5.22370597 4.19261256,5.22370597 C3.75274732,5.22370597 3.37786217,5.37366003 3.06795712,5.67356815 C2.75805207,5.97347626 2.60309954,6.34336294 2.60309954,6.78322818 Z" id="Path" fill="#4A4A4A"></path>
                        <path d="M14.2695253,9.9322634 C14.949268,9.9322634 15.5242389,10.1721899 15.9939479,10.6520429 C16.463657,11.1318959 16.698781,11.7117182 16.698781,12.39151 C16.698781,13.0713017 16.463804,13.6461256 15.9939479,14.1159326 C15.5240919,14.5858377 14.949268,14.8207657 14.2695253,14.8207657 C13.669807,14.8207657 13.1448698,14.6358224 12.6950077,14.2659357 C12.2451455,13.896049 11.9702297,13.4211945 11.8702603,12.8413721 L13.3698009,13.6812619 C13.6097274,13.8612067 13.9096845,13.9511792 14.2694273,13.9511792 C14.7094395,13.9511792 15.0791302,13.8010781 15.3791853,13.50117 C15.6790444,13.2014089 15.8290475,12.8313752 15.8290475,12.39151 C15.8290475,12.0516141 15.739075,11.751706 15.5591302,11.4917856 C15.3791853,11.2318652 15.1492067,11.0419234 14.8693415,10.9219602 L13.3997427,10.1123553 C13.6597611,9.99224502 13.9496723,9.9322634 14.2695253,9.9322634 Z" id="Path" fill="#4A4A4A"></path>
                        <path d="M21.3772986,3.30429403 C21.8971884,3.30429403 22.3470505,3.49423583 22.7269342,3.87411945 C23.1068178,4.25400306 23.2967106,4.70386524 23.2967106,5.22370597 C23.2967106,5.74354671 23.1068178,6.18841041 22.7269342,6.55829709 C22.3470505,6.92818377 21.8971884,7.11312711 21.3772986,7.11312711 C20.8576049,7.11312711 20.4125942,6.92818377 20.0429035,6.55829709 C19.6729678,6.18841041 19.4880735,5.74354671 19.4880735,5.22370597 C19.4880735,4.70386524 19.6729678,4.25400306 20.0429035,3.87411945 C20.4126922,3.49423583 20.8575069,3.30429403 21.3772986,3.30429403 Z" id="Path" fill="#FFFFFF"></path>
                        <path d="M21.3772986,8.1328147 C22.1971455,8.1328147 22.8918346,7.85290046 23.461709,7.29307198 C24.0314855,6.73324349 24.3163982,6.04345482 24.3163982,5.22370597 C24.3163982,4.40395712 24.0314855,3.70916998 23.461709,3.13934456 C22.8918346,2.56951914 22.1970475,2.28460643 21.3772986,2.28460643 C20.9776172,2.28460643 20.602585,2.35958346 20.2527902,2.50953752 C19.9027504,2.65949158 19.5928453,2.86942726 19.322928,3.13934456 C19.0530107,3.40926187 18.843124,3.72416539 18.693121,4.08405513 C18.5430199,4.44394487 18.4681899,4.82382848 18.4681899,5.22370597 C18.4681899,5.62358346 18.5430199,6.00346708 18.693121,6.36335681 C18.843124,6.72324655 19.0530107,7.03315161 19.322928,7.29307198 C19.5928453,7.55299234 19.9027504,7.75792956 20.2527902,7.90788361 C20.602585,8.05783767 20.9775191,8.1328147 21.3772986,8.1328147 Z" id="Path" fill="#4A4A4A"></path>
                    </g>
                </g>
            </g>
        </g>
    </g>
</svg>