<svg xmlns="http://www.w3.org/2000/svg" width="16" height="16" viewBox="0 0 16 16">
    <path d="M7.236 3.946c0 .582-.099 1.11-.297 1.585a3.822 3.822 0 0 1-.801 1.224 3.519 3.519 0 0 1-1.162.787 3.515 3.515 0 0 1-1.369.275 3.705 3.705 0 0 1-1.443-.275 3.295 3.295 0 0 1-1.14-.787A3.654 3.654 0 0 1 .27 5.53 4.43 4.43 0 0 1 0 3.946c0-.604.09-1.148.27-1.633.18-.486.432-.899.754-1.24A3.359 3.359 0 0 1 2.164.28C2.603.093 3.084 0 3.607 0a3.72 3.72 0 0 1 1.454.28c.446.187.83.451 1.151.793.322.341.573.754.754 1.24.18.485.27 1.03.27 1.633zm-2.25 0c0-.388-.035-.713-.105-.976a1.758 1.758 0 0 0-.292-.63 1.057 1.057 0 0 0-.44-.34 1.436 1.436 0 0 0-.542-.102c-.19 0-.37.034-.535.102a.993.993 0 0 0-.425.34 1.817 1.817 0 0 0-.276.63c-.067.263-.1.588-.1.976 0 .381.033.697.1.949.068.251.16.455.276.609a.967.967 0 0 0 .425.329c.166.065.344.097.535.097.191 0 .372-.032.542-.097a1.03 1.03 0 0 0 .44-.329c.124-.154.22-.358.292-.61.07-.25.106-.567.106-.948zM12.224.615a1.79 1.79 0 0 1 .355-.313c.138-.094.33-.14.578-.14h2.133L3.777 15.375a1.31 1.31 0 0 1-.36.307 1.015 1.015 0 0 1-.52.124H.72L12.223.615zM16 12.129c0 .583-.099 1.11-.297 1.585a3.822 3.822 0 0 1-.801 1.224 3.519 3.519 0 0 1-1.162.787 3.515 3.515 0 0 1-1.369.275 3.705 3.705 0 0 1-1.443-.275 3.296 3.296 0 0 1-1.14-.787 3.654 3.654 0 0 1-.754-1.224 4.43 4.43 0 0 1-.27-1.585c0-.603.09-1.148.27-1.633.18-.485.432-.899.754-1.24a3.296 3.296 0 0 1 1.14-.787c.439-.183.92-.275 1.443-.275.524 0 1.008.092 1.454.275.446.183.83.446 1.151.787.322.341.573.755.753 1.24.18.485.271 1.03.271 1.633zm-2.25 0c0-.388-.035-.713-.105-.975a1.758 1.758 0 0 0-.292-.631 1.057 1.057 0 0 0-.44-.34 1.436 1.436 0 0 0-.542-.102c-.19 0-.37.034-.535.102a.993.993 0 0 0-.425.34 1.817 1.817 0 0 0-.276.63c-.067.263-.1.588-.1.976 0 .381.033.698.1.95.067.25.16.454.276.608a.967.967 0 0 0 .425.33c.166.064.344.096.535.096.191 0 .372-.032.541-.097a1.03 1.03 0 0 0 .44-.329c.125-.154.222-.357.293-.609.07-.251.106-.568.106-.949z"/>
</svg>
