<?xml version="1.0" encoding="UTF-8"?>
<svg width="17px" height="17px" viewBox="0 0 17 17" version="1.1" xmlns="http://www.w3.org/2000/svg" xmlns:xlink="http://www.w3.org/1999/xlink">
    <title>01E04D29-475A-43A5-8A13-46999D8CC8B7</title>
    <g id="Pay" stroke="none" stroke-width="1" fill="none" fill-rule="evenodd">
        <g id="PayCheck_all" transform="translate(-73.000000, -1164.000000)" fill="#2C97DE" fill-rule="nonzero">
            <g id="Group-18" transform="translate(73.000000, 1164.000000)">
                <path d="M8.5,0 C3.80557963,0 0,3.80557963 0,8.5 C0,13.1944204 3.80557963,17 8.5,17 C13.1944204,17 17,13.1944204 17,8.5 C17,3.80557963 13.1944204,0 8.5,0 Z M8.5,1 C12.6421356,1 16,4.35786438 16,8.5 C16,12.6421356 12.6421356,16 8.5,16 C4.35786438,16 1,12.6421356 1,8.5 C1,4.35786438 4.35786438,1 8.5,1 Z" id="Oval"></path>
                <path d="M6.323,11.231 L6.323,10.692 C7.989,10.594 8.871,9.81 8.871,8.536 C8.871,7.255 7.982,6.485 6.323,6.373 L6.323,5.869 L5.056,5.869 L5.056,6.373 C3.397,6.499 2.508,7.255 2.508,8.536 C2.508,9.81 3.397,10.573 5.056,10.692 L5.056,11.231 L6.323,11.231 Z M6.323,9.614 L6.323,7.458 C7.135,7.549 7.527,7.885 7.527,8.529 C7.527,9.173 7.156,9.523 6.323,9.614 Z M5.056,9.607 C4.265,9.509 3.852,9.18 3.852,8.536 C3.852,7.885 4.216,7.556 5.056,7.458 L5.056,9.607 Z M9.795,11.084 C11.041,11.084 11.3,9.908 11.363,7.997 L11.391,7.199 L12.798,7.199 L12.798,11 L14.163,11 L14.163,6.1 L10.215,6.1 L10.145,8.053 C10.103,9.159 9.998,9.887 9.431,9.887 C9.368,9.887 9.305,9.88 9.242,9.866 L9.165,11 C9.396,11.056 9.606,11.084 9.795,11.084 Z" id="ФЛ"></path>
            </g>
        </g>
    </g>
</svg>