<?xml version="1.0" encoding="UTF-8"?>
<svg width="17px" height="17px" viewBox="0 0 17 17" version="1.1" xmlns="http://www.w3.org/2000/svg" xmlns:xlink="http://www.w3.org/1999/xlink">
    <title>D7363051-6B8E-4489-82D0-4C3F5D1E10C8</title>
    <g id="Pay" stroke="none" stroke-width="1" fill="none" fill-rule="evenodd">
        <g id="PayCheck_all" transform="translate(-506.000000, -1164.000000)" fill="#2C97DE" fill-rule="nonzero">
            <g id="Group-24" transform="translate(506.000000, 1164.000000)">
                <path d="M8.5,0 C3.80557963,0 0,3.80557963 0,8.5 C0,13.1944204 3.80557963,17 8.5,17 C13.1944204,17 17,13.1944204 17,8.5 C17,3.80557963 13.1944204,0 8.5,0 Z M8.5,1 C12.6421356,1 16,4.35786438 16,8.5 C16,12.6421356 12.6421356,16 8.5,16 C4.35786438,16 1,12.6421356 1,8.5 C1,4.35786438 4.35786438,1 8.5,1 Z" id="Oval-Copy-4"></path>
                <path d="M4.6395,11 L6.6555,8.13 L6.6555,11 L8.0205,11 L8.0205,6.1 L6.7185,6.1 L4.6955,8.977 L4.6955,6.1 L3.3305,6.1 L3.3305,11 L4.6395,11 Z M10.4355,11 L10.4355,7.199 L12.2975,7.199 L12.2975,11 L13.6695,11 L13.6695,6.1 L9.0705,6.1 L9.0705,11 L10.4355,11 Z" id="ИП"></path>
            </g>
        </g>
    </g>
</svg>