<?xml version="1.0" encoding="UTF-8"?>
<svg width="17px" height="17px" viewBox="0 0 17 17" version="1.1" xmlns="http://www.w3.org/2000/svg" xmlns:xlink="http://www.w3.org/1999/xlink">
    <title>1FB42B0E-CC8F-4AD7-BA0B-FA8AD996181C</title>
    <g id="Pay" stroke="none" stroke-width="1" fill="none" fill-rule="evenodd">
        <g id="PayCheck_all" transform="translate(-381.000000, -1164.000000)" fill="#2C97DE" fill-rule="nonzero">
            <g id="Group-23" transform="translate(381.000000, 1164.000000)">
                <path d="M8.5,0 C3.80557963,0 0,3.80557963 0,8.5 C0,13.1944204 3.80557963,17 8.5,17 C13.1944204,17 17,13.1944204 17,8.5 C17,3.80557963 13.1944204,0 8.5,0 Z M8.5,1 C12.6421356,1 16,4.35786438 16,8.5 C16,12.6421356 12.6421356,16 8.5,16 C4.35786438,16 1,12.6421356 1,8.5 C1,4.35786438 4.35786438,1 8.5,1 Z" id="Oval-Copy-3"></path>
                <path d="M6.5295,11.098 C7.4325,11.098 8.1605,10.769 8.6365,10.174 L7.7545,9.376 C7.4465,9.747 7.0685,9.95 6.5995,9.95 C5.7945,9.95 5.2345,9.39 5.2345,8.55 C5.2345,7.71 5.7945,7.15 6.5995,7.15 C7.0685,7.15 7.4465,7.353 7.7545,7.724 L8.6365,6.926 C8.1605,6.331 7.4325,6.002 6.5295,6.002 C4.9755,6.002 3.8345,7.059 3.8345,8.55 C3.8345,10.041 4.9755,11.098 6.5295,11.098 Z M10.8625,11.105 C12.1085,11.105 13.1585,10.559 13.1585,9.621 C13.1585,9.082 12.8295,8.655 12.2905,8.452 C12.7035,8.249 12.9625,7.878 12.9625,7.416 C12.9625,6.506 11.9125,5.988 10.7225,5.988 C10.1485,5.988 9.5395,6.107 9.0005,6.366 L9.4065,7.416 C9.8265,7.192 10.3095,7.08 10.7085,7.08 C11.1915,7.08 11.5625,7.248 11.5625,7.577 C11.5625,7.829 11.3525,7.99 10.9745,7.99 L9.8335,7.99 L9.8335,9.005 L11.0865,9.005 C11.4785,9.005 11.7585,9.131 11.7585,9.432 C11.7585,9.81 11.2965,10.006 10.7085,10.006 C10.2605,10.006 9.7355,9.894 9.2805,9.663 L8.8675,10.629 C9.5045,10.951 10.2115,11.105 10.8625,11.105 Z" id="СЗ"></path>
            </g>
        </g>
    </g>
</svg>