<?xml version="1.0" encoding="UTF-8"?>
<svg width="17px" height="17px" viewBox="0 0 17 17" version="1.1" xmlns="http://www.w3.org/2000/svg" xmlns:xlink="http://www.w3.org/1999/xlink">
    <title>22AF9AAE-6F59-424C-9300-AF301F3A42FA</title>
    <g id="Pay" stroke="none" stroke-width="1" fill="none" fill-rule="evenodd">
        <g id="PayCheck_all" transform="translate(-222.000000, -1164.000000)" fill="#2C97DE" fill-rule="nonzero">
            <g id="Group-22" transform="translate(222.000000, 1164.000000)">
                <path d="M8.5,0 C3.80557963,0 0,3.80557963 0,8.5 C0,13.1944204 3.80557963,17 8.5,17 C13.1944204,17 17,13.1944204 17,8.5 C17,3.80557963 13.1944204,0 8.5,0 Z M8.5,1 C12.6421356,1 16,4.35786438 16,8.5 C16,12.6421356 12.6421356,16 8.5,16 C4.35786438,16 1,12.6421356 1,8.5 C1,4.35786438 4.35786438,1 8.5,1 Z" id="Oval-Copy-2"></path>
                <path d="M7.0125,11.098 C8.5315,11.098 9.6515,10.02 9.6515,8.55 C9.6515,7.08 8.5315,6.002 7.0125,6.002 C5.7035,6.002 4.6955,6.786 4.4295,7.934 L3.9045,7.934 L3.9045,6.1 L2.5395,6.1 L2.5395,11 L3.9045,11 L3.9045,9.096 L4.4155,9.096 C4.6535,10.279 5.6755,11.098 7.0125,11.098 Z M14.498,6 L14.498,10.9 L13.133,10.9 L13.133,7.099 L11.726,7.099 L11.698,7.897 C11.635,9.808 11.376,10.984 10.13,10.984 C9.941,10.984 9.731,10.956 9.5,10.9 L9.5,10.9 L9.577,9.766 C9.64,9.78 9.703,9.787 9.766,9.787 C10.333,9.787 10.438,9.059 10.48,7.953 L10.48,7.953 L10.55,6 L14.498,6 Z M7.0125,7.15 C7.7055,7.15 8.2515,7.696 8.2515,8.55 C8.2515,9.404 7.7055,9.95 7.0125,9.95 C6.3125,9.95 5.7665,9.404 5.7665,8.55 C5.7665,7.696 6.3125,7.15 7.0125,7.15 Z" id="л«ла"></path>
            </g>
        </g>
    </g>
</svg>