<svg xmlns="http://www.w3.org/2000/svg" width="12" height="12" viewBox="0 0 12 12">
    <path fill="#455a64" fill-rule="nonzero" d="M11.962 5.334c-.019-.169-.215-.296-.385-.296-.55 0-1.038-.323-1.243-.822a1.336 1.336 0 0 1 .336-1.484.333.333 0 0 0 .036-.452 5.937 5.937 0 0 0-.95-.96.334.334 0 0 0-.456.037c-.358.396-1 .543-1.497.336A1.333 1.333 0 0 1 6.993.39a.333.333 0 0 0-.295-.35 5.99 5.99 0 0 0-1.35-.004.334.334 0 0 0-.297.344c.02.556-.31 1.07-.821 1.28-.49.2-1.129.054-1.486-.338a.335.335 0 0 0-.452-.038 5.96 5.96 0 0 0-.971.96.334.334 0 0 0 .036.455c.417.378.552.98.335 1.497-.207.494-.719.811-1.305.811a.326.326 0 0 0-.347.295 6.01 6.01 0 0 0-.002 1.364c.018.17.221.295.393.295a1.316 1.316 0 0 1 1.235.823c.21.511.075 1.107-.336 1.483a.333.333 0 0 0-.036.452c.278.356.598.679.949.96.137.112.337.096.456-.035.36-.397 1.002-.544 1.496-.337.518.217.844.74.812 1.302-.01.177.12.33.295.35a5.964 5.964 0 0 0 1.35.005.334.334 0 0 0 .297-.344c-.02-.556.31-1.07.82-1.28a1.385 1.385 0 0 1 1.486.338.335.335 0 0 0 .453.038c.36-.281.686-.604.97-.96a.333.333 0 0 0-.035-.455 1.33 1.33 0 0 1-.336-1.497 1.343 1.343 0 0 1 1.227-.813l.075.001a.334.334 0 0 0 .35-.294c.054-.45.054-.91.003-1.364zM6.01 8.014a2.004 2.004 0 0 1-2.002-2.001c0-1.104.898-2.002 2.002-2.002 1.103 0 2 .898 2 2.002a2.004 2.004 0 0 1-2 2.001z"/>
</svg>
