<svg xmlns="http://www.w3.org/2000/svg" width="20" height="25" viewBox="0 0 20 25">
    <g fill="none" fill-rule="evenodd">
        <path fill="#F59700" d="M17.752 5.016H20v19H0v-19h2.247C1.525 4.619 1 3.744 1 3.219 1 2.264 1.044.957 3.002.234 5.758-.816 8 2.002 8 2.002v3.014h4V2.012S14.241-.815 16.998.234C18.956.957 19 2.264 19 3.22c0 .525-.525 1.4-1.248 1.797zm-1.585 0c.802-.962.761-2.195-.19-2.76C13.477.953 12.048 4.882 12 5.015h4.166zm-12.334 0h4.163C7.915 4.79 6.49.97 4.023 2.256c-.951.565-.993 1.798-.19 2.76zm4.167-3h4v3H8v-3z"/>
        <path fill="#FFF" d="M8 5h4v19H8z"/>
        <path fill="#FFF" d="M0 10h20v1H0z"/>
    </g>
</svg>
