<?xml version="1.0" encoding="UTF-8" ?>
<!DOCTYPE svg PUBLIC "-//W3C//DTD SVG 1.1//EN" "http://www.w3.org/Graphics/SVG/1.1/DTD/svg11.dtd">
<svg width="32pt" height="32pt" viewBox="0 0 32 32" version="1.1" xmlns="http://www.w3.org/2000/svg">
<g id="#2f3938a7">
<path fill="#2f3938" opacity="0.65" d=" M 11.99 1.96 C 12.52 2.02 13.60 2.14 14.14 2.19 L 14.14 2.81 C 11.92 4.30 10.18 6.42 8.17 8.18 L 8.00 9.00 L 7.00 9.00 L 7.00 10.00 L 6.00 10.00 L 6.00 11.00 L 5.05 11.08 L 5.13 12.14 L 5.19 12.83 L 4.00 13.00 L 4.00 14.00 L 2.81 14.05 L 2.90 15.17 L 2.01 15.19 L 1.36 15.20 L 1.16 14.22 C 4.43 10.51 7.56 6.59 11.20 3.17 L 12.00 3.00 L 11.99 1.96 Z" />
<path fill="#2f3938" opacity="0.65" d=" M 17.06 2.36 L 17.76 2.33 L 17.78 3.05 L 17.10 3.01 L 17.06 2.36 Z" />
<path fill="#2f3938" opacity="0.65" d=" M 17.92 3.92 L 18.63 4.01 C 18.94 4.36 19.54 5.05 19.84 5.40 L 19.80 6.22 L 19.12 6.29 L 18.26 5.82 C 18.17 5.34 18.00 4.39 17.92 3.92 Z" />
<path fill="#2f3938" opacity="0.65" d=" M 19.97 7.14 C 21.33 6.81 22.66 6.92 23.95 7.46 L 24.13 8.04 C 23.26 8.06 21.53 8.11 20.66 8.14 L 19.87 8.02 L 19.97 7.14 Z" />
<path fill="#2f3938" opacity="0.65" d=" M 25.00 9.09 L 25.74 9.22 L 25.81 10.06 L 25.14 10.00 L 25.00 9.09 Z" />
<path fill="#2f3938" opacity="0.65" d=" M 26.01 11.01 L 26.75 11.18 L 26.82 12.04 L 26.15 11.96 L 26.01 11.01 Z" />
<path fill="#2f3938" opacity="0.65" d=" M 27.01 13.00 L 27.75 13.18 L 27.82 14.03 L 27.15 13.96 L 27.01 13.00 Z" />
<path fill="#2f3938" opacity="0.65" d=" M 23.05 15.19 L 23.77 15.18 L 23.87 15.84 L 23.25 15.92 L 23.05 15.19 Z" />
<path fill="#2f3938" opacity="0.65" d=" M 28.01 15.00 L 28.75 15.18 L 28.82 16.03 L 28.15 15.96 L 28.01 15.00 Z" />
<path fill="#2f3938" opacity="0.65" d=" M 29.01 16.99 L 29.74 17.17 L 29.79 18.01 L 29.12 17.94 L 29.01 16.99 Z" />
<path fill="#2f3938" opacity="0.65" d=" M 29.93 18.93 L 30.72 19.05 C 30.74 19.49 30.79 20.37 30.81 20.81 L 30.11 20.85 L 29.75 20.00 L 29.93 18.93 Z" />
<path fill="#2f3938" opacity="0.65" d=" M 2.29 20.02 L 2.98 20.10 L 3.00 21.04 L 2.27 20.84 L 2.29 20.02 Z" />
<path fill="#2f3938" opacity="0.65" d=" M 3.20 21.99 L 3.87 22.05 L 4.02 23.02 L 3.27 22.84 L 3.20 21.99 Z" />
<path fill="#2f3938" opacity="0.65" d=" M 27.97 22.16 L 28.85 22.04 L 28.75 22.77 L 27.93 22.83 L 27.97 22.16 Z" />
<path fill="#2f3938" opacity="0.65" d=" M 26.04 23.15 L 26.99 23.02 L 26.81 23.76 L 25.96 23.82 L 26.04 23.15 Z" />
<path fill="#2f3938" opacity="0.65" d=" M 4.25 24.00 L 4.96 24.11 L 5.07 24.90 L 4.30 24.78 L 4.25 24.00 Z" />
<path fill="#2f3938" opacity="0.65" d=" M 24.04 24.15 L 25.00 24.01 L 24.82 24.75 L 23.97 24.82 L 24.04 24.15 Z" />
<path fill="#2f3938" opacity="0.65" d=" M 22.04 25.15 L 23.00 25.01 L 22.82 25.75 L 21.97 25.82 L 22.04 25.15 Z" />
<path fill="#2f3938" opacity="0.65" d=" M 20.04 26.15 L 21.00 26.01 L 20.82 26.75 L 19.97 26.82 L 20.04 26.15 Z" />
<path fill="#2f3938" opacity="0.65" d=" M 6.20 26.97 L 6.90 27.07 L 7.00 27.85 L 6.25 27.76 L 6.20 26.97 Z" />
<path fill="#2f3938" opacity="0.65" d=" M 18.04 27.15 L 19.00 27.01 L 18.82 27.75 L 17.97 27.82 L 18.04 27.15 Z" />
<path fill="#2f3938" opacity="0.65" d=" M 16.04 28.15 L 17.00 28.01 L 16.82 28.75 L 15.97 28.82 L 16.04 28.15 Z" />
<path fill="#2f3938" opacity="0.65" d=" M 14.05 29.15 L 15.00 29.01 L 14.83 29.75 L 13.97 29.81 L 14.05 29.15 Z" />
<path fill="#2f3938" opacity="0.65" d=" M 12.07 30.03 L 13.02 30.00 L 12.85 30.69 L 12.04 30.61 L 12.07 30.03 Z" />
</g>
<g id="#9eac88fe">
<path fill="#9eac88" opacity="1.00" d=" M 14.14 2.19 C 14.87 2.24 16.33 2.32 17.06 2.36 L 17.10 3.01 C 16.60 3.04 15.59 3.10 15.09 3.13 L 14.14 2.81 L 14.14 2.19 Z" />
<path fill="#9eac88" opacity="1.00" d=" M 19.12 8.27 L 19.87 8.02 L 19.79 8.85 L 19.00 9.05 L 19.12 8.27 Z" />
<path fill="#9eac88" opacity="1.00" d=" M 17.19 9.33 L 18.01 9.21 L 17.92 9.92 L 17.07 10.08 L 17.19 9.33 Z" />
<path fill="#9eac88" opacity="1.00" d=" M 15.21 10.33 L 16.04 10.22 L 15.93 10.92 L 15.08 11.07 L 15.21 10.33 Z" />
<path fill="#9eac88" opacity="1.00" d=" M 13.25 11.31 L 14.07 11.21 L 13.98 11.91 L 13.17 12.05 L 13.25 11.31 Z" />
<path fill="#9eac88" opacity="1.00" d=" M 15.18 15.12 L 16.03 14.88 L 16.80 15.27 L 16.77 16.11 L 15.99 16.22 L 15.21 16.05 L 15.18 15.12 Z" />
<path fill="#9eac88" opacity="1.00" d=" M 22.22 15.20 L 23.05 15.19 L 23.25 15.92 L 22.89 16.81 L 22.12 16.84 L 21.83 16.01 L 22.22 15.20 Z" />
<path fill="#9eac88" opacity="1.00" d=" M 2.20 17.09 L 2.85 17.13 L 2.82 17.99 L 2.19 17.99 L 2.20 17.09 Z" />
<path fill="#9eac88" opacity="1.00" d=" M 9.98 17.01 L 10.87 17.03 L 11.17 17.86 C 11.60 17.88 12.47 17.92 12.90 17.94 L 12.89 18.94 C 12.43 18.98 11.51 19.04 11.05 19.07 L 11.14 20.13 L 11.19 20.85 L 11.86 20.86 C 11.90 21.43 11.97 22.57 12.01 23.15 L 11.19 23.11 L 10.81 23.99 L 10.00 24.00 C 10.00 23.25 10.00 21.75 10.00 21.00 L 9.00 21.00 L 9.00 20.00 L 10.01 20.00 C 10.00 19.25 9.98 17.76 9.98 17.01 Z" />
<path fill="#9eac88" opacity="1.00" d=" M 15.21 16.89 L 15.99 16.76 L 16.78 16.91 L 16.81 17.80 C 16.40 17.80 15.59 17.79 15.18 17.79 L 15.21 16.89 Z" />
<path fill="#9eac88" opacity="1.00" d=" M 20.25 18.05 L 20.88 18.18 C 20.88 18.58 20.86 19.40 20.86 19.80 C 20.19 19.79 18.86 19.75 18.20 19.74 L 18.22 19.10 C 18.73 18.83 19.74 18.31 20.25 18.05 Z" />
<path fill="#9eac88" opacity="1.00" d=" M 19.13 21.30 C 19.54 21.26 20.38 21.18 20.80 21.14 L 21.16 21.99 C 21.04 22.45 20.81 23.36 20.70 23.81 L 20.04 23.80 C 19.95 23.43 19.75 22.70 19.66 22.33 L 18.98 22.09 L 19.13 21.30 Z" />
<path fill="#9eac88" opacity="1.00" d=" M 18.16 22.95 L 18.75 22.91 L 19.01 23.72 L 18.28 23.74 L 18.16 22.95 Z" />
</g>
<g id="#e3d98bff">
<path fill="#e3d98b" opacity="1.00" d=" M 8.17 8.18 C 10.18 6.42 11.92 4.30 14.14 2.81 L 15.09 3.13 C 13.37 5.07 11.59 6.95 9.82 8.83 L 9.00 9.00 L 9.00 10.00 L 8.22 10.13 L 7.69 10.70 L 7.13 11.22 L 6.92 12.05 L 5.85 12.10 L 5.13 12.14 L 5.05 11.08 L 6.00 11.00 L 6.00 10.00 L 7.00 10.00 L 7.00 9.00 L 8.00 9.00 L 8.17 8.18 Z" />
<path fill="#e3d98b" opacity="1.00" d=" M 2.01 15.19 L 2.90 15.17 C 2.89 15.66 2.86 16.64 2.85 17.13 L 2.20 17.09 C 2.15 16.62 2.06 15.67 2.01 15.19 Z" />
<path fill="#e3d98b" opacity="1.00" d=" M 11.11 16.22 L 11.78 16.09 C 12.07 16.36 12.64 16.90 12.93 17.17 L 12.90 17.94 C 12.47 17.92 11.60 17.88 11.17 17.86 L 10.87 17.03 L 11.11 16.22 Z" />
<path fill="#e3d98b" opacity="1.00" d=" M 15.21 16.05 L 15.99 16.22 L 15.99 16.76 L 15.21 16.89 L 15.21 16.05 Z" />
<path fill="#e3d98b" opacity="1.00" d=" M 19.22 17.07 L 19.99 17.23 L 20.25 18.05 C 19.74 18.31 18.73 18.83 18.22 19.10 L 18.07 18.33 C 18.36 18.01 18.93 17.38 19.22 17.07 Z" />
<path fill="#e3d98b" opacity="1.00" d=" M 11.14 20.13 L 11.81 20.14 L 11.86 20.86 L 11.19 20.85 L 11.14 20.13 Z" />
<path fill="#e3d98b" opacity="1.00" d=" M 18.24 22.17 L 18.98 22.09 L 18.75 22.91 L 18.16 22.95 L 18.24 22.17 Z" />
<path fill="#e3d98b" opacity="1.00" d=" M 12.01 23.15 L 12.85 23.09 C 12.85 23.54 12.85 24.44 12.85 24.89 L 12.01 24.88 C 12.01 24.44 12.01 23.58 12.01 23.15 Z" />
<path fill="#e3d98b" opacity="1.00" d=" M 15.22 24.22 L 15.95 24.15 L 15.68 24.68 L 15.15 24.95 L 15.22 24.22 Z" />
</g>
<g id="#f5dc4fff">
<path fill="#f5dc4f" opacity="1.00" d=" M 15.09 3.13 C 15.59 3.10 16.60 3.04 17.10 3.01 L 17.19 3.82 L 17.92 3.92 C 18.00 4.39 18.17 5.34 18.26 5.82 L 17.90 6.85 C 15.28 7.91 12.72 9.09 10.10 10.15 L 10.04 11.06 C 9.45 10.97 8.28 10.79 7.69 10.70 L 8.22 10.13 L 9.00 10.00 L 9.00 9.00 L 9.82 8.83 C 11.59 6.95 13.37 5.07 15.09 3.13 Z" />
<path fill="#f5dc4f" opacity="1.00" d=" M 5.13 12.14 L 5.85 12.10 L 5.86 12.80 L 5.19 12.83 L 5.13 12.14 Z" />
<path fill="#f5dc4f" opacity="1.00" d=" M 15.99 16.22 L 16.77 16.11 L 16.78 16.91 L 15.99 16.76 L 15.99 16.22 Z" />
<path fill="#f5dc4f" opacity="1.00" d=" M 18.98 22.09 L 19.66 22.33 C 19.75 22.70 19.95 23.43 20.04 23.80 L 19.01 23.72 L 18.75 22.91 L 18.98 22.09 Z" />
<path fill="#f5dc4f" opacity="1.00" d=" M 11.19 23.11 L 12.01 23.15 C 12.01 23.58 12.01 24.44 12.01 24.88 L 11.18 24.87 L 10.81 23.99 L 11.19 23.11 Z" />
<path fill="#f5dc4f" opacity="1.00" d=" M 15.95 24.15 L 16.77 24.20 L 17.15 25.00 L 16.88 25.88 L 16.00 26.15 L 15.20 25.77 L 15.15 24.95 L 15.68 24.68 L 15.95 24.15 Z" />
</g>
<g id="#e2b924ff">
<path fill="#e2b924" opacity="1.00" d=" M 17.10 3.01 L 17.78 3.05 L 17.92 3.92 L 17.19 3.82 L 17.10 3.01 Z" />
<path fill="#e2b924" opacity="1.00" d=" M 18.26 5.82 L 19.12 6.29 L 19.23 7.02 L 19.97 7.14 L 19.87 8.02 L 19.12 8.27 L 19.00 9.05 L 18.01 9.21 L 17.19 9.33 L 17.07 10.08 L 16.04 10.22 L 15.21 10.33 L 15.08 11.07 L 14.07 11.21 L 13.25 11.31 L 13.17 12.05 L 12.29 12.17 L 12.15 12.92 L 11.31 12.98 L 10.09 13.06 L 10.00 14.00 C 9.50 14.00 8.50 14.00 8.00 14.00 L 8.00 15.00 C 7.50 15.00 6.50 15.00 6.00 15.00 L 6.00 16.00 C 5.50 16.00 4.50 16.00 4.00 16.00 L 4.00 17.00 L 2.85 17.13 C 2.86 16.64 2.89 15.66 2.90 15.17 L 2.81 14.05 L 4.00 14.00 L 4.00 13.00 L 5.19 12.83 L 5.86 12.80 L 5.85 12.10 L 6.92 12.05 L 7.13 11.22 L 7.69 10.70 C 8.28 10.79 9.45 10.97 10.04 11.06 L 10.10 10.15 C 12.72 9.09 15.28 7.91 17.90 6.85 L 18.26 5.82 Z" />
</g>
<g id="#3f6883f9">
<path fill="#3f6883" opacity="0.98" d=" M 19.12 6.29 L 19.80 6.22 L 19.97 7.14 L 19.23 7.02 L 19.12 6.29 Z" />
<path fill="#3f6883" opacity="0.98" d=" M 19.87 8.02 L 20.66 8.14 L 20.60 8.84 L 19.79 8.85 L 19.87 8.02 Z" />
<path fill="#3f6883" opacity="0.98" d=" M 24.13 8.04 L 24.88 8.24 L 25.00 9.09 L 24.20 8.91 L 24.13 8.04 Z" />
<path fill="#3f6883" opacity="0.98" d=" M 18.01 9.21 L 19.00 9.05 L 18.93 9.75 L 17.92 9.92 L 18.01 9.21 Z" />
<path fill="#3f6883" opacity="0.98" d=" M 16.04 10.22 L 17.07 10.08 L 16.96 10.78 L 15.93 10.92 L 16.04 10.22 Z" />
<path fill="#3f6883" opacity="0.98" d=" M 25.14 10.00 L 25.81 10.06 L 26.01 11.01 L 25.27 10.85 L 25.14 10.00 Z" />
<path fill="#3f6883" opacity="0.98" d=" M 14.07 11.21 L 15.08 11.07 L 14.98 11.77 L 13.98 11.91 L 14.07 11.21 Z" />
<path fill="#3f6883" opacity="0.98" d=" M 12.29 12.17 L 13.17 12.05 L 13.06 12.78 L 12.15 12.92 L 12.29 12.17 Z" />
<path fill="#3f6883" opacity="0.98" d=" M 26.15 11.96 L 26.82 12.04 L 27.01 13.00 L 26.27 12.83 L 26.15 11.96 Z" />
<path fill="#3f6883" opacity="0.98" d=" M 10.09 13.06 L 11.31 12.98 L 11.21 13.75 L 11.05 14.93 C 10.54 14.95 9.51 14.99 8.99 15.01 L 9.00 16.00 C 8.50 16.00 7.50 16.00 7.00 16.00 L 7.00 17.00 C 6.50 17.00 5.50 17.00 5.00 17.00 L 5.02 18.00 L 3.97 18.00 L 2.82 17.99 L 2.85 17.13 L 4.00 17.00 L 4.00 16.00 C 4.50 16.00 5.50 16.00 6.00 16.00 L 6.00 15.00 C 6.50 15.00 7.50 15.00 8.00 15.00 L 8.00 14.00 C 8.50 14.00 9.50 14.00 10.00 14.00 L 10.09 13.06 Z" />
<path fill="#3f6883" opacity="0.98" d=" M 22.00 14.00 C 22.75 14.00 24.27 13.99 25.02 13.99 C 24.99 14.80 24.94 16.43 24.91 17.24 L 24.28 17.14 L 23.68 17.57 C 23.30 17.74 22.55 18.08 22.18 18.25 L 22.12 16.84 L 22.89 16.81 L 23.25 15.92 L 23.87 15.84 L 23.77 15.18 L 23.05 15.19 L 22.22 15.20 L 22.00 14.00 Z" />
<path fill="#3f6883" opacity="0.98" d=" M 27.15 13.96 L 27.82 14.03 L 28.01 15.00 L 27.27 14.83 L 27.15 13.96 Z" />
<path fill="#3f6883" opacity="0.98" d=" M 1.36 15.20 L 2.01 15.19 C 2.06 15.67 2.15 16.62 2.20 17.09 L 2.19 17.99 L 1.87 18.88 L 1.25 18.87 C 0.65 17.62 0.68 16.40 1.36 15.20 Z" />
<path fill="#3f6883" opacity="0.98" d=" M 28.15 15.96 L 28.82 16.03 L 29.01 16.99 L 28.26 16.82 L 28.15 15.96 Z" />
<path fill="#3f6883" opacity="0.98" d=" M 29.12 17.94 L 29.79 18.01 L 29.93 18.93 L 29.22 18.79 L 29.12 17.94 Z" />
<path fill="#3f6883" opacity="0.98" d=" M 29.07 20.14 L 29.75 20.00 L 30.11 20.85 L 29.71 21.86 L 28.85 22.04 C 28.91 21.57 29.02 20.62 29.07 20.14 Z" />
<path fill="#3f6883" opacity="0.98" d=" M 27.14 22.27 L 27.97 22.16 L 27.93 22.83 L 26.99 23.02 L 27.14 22.27 Z" />
<path fill="#3f6883" opacity="0.98" d=" M 4.02 23.02 L 4.80 23.21 L 4.96 24.11 L 4.25 24.00 L 4.02 23.02 Z" />
<path fill="#3f6883" opacity="0.98" d=" M 25.17 23.27 L 26.04 23.15 L 25.96 23.82 L 25.00 24.01 L 25.17 23.27 Z" />
<path fill="#3f6883" opacity="0.98" d=" M 23.17 24.27 L 24.04 24.15 L 23.97 24.82 L 23.00 25.01 L 23.17 24.27 Z" />
<path fill="#3f6883" opacity="0.98" d=" M 5.07 24.90 L 5.80 25.02 L 5.97 25.99 L 5.20 25.79 L 5.07 24.90 Z" />
<path fill="#3f6883" opacity="0.98" d=" M 21.17 25.27 L 22.04 25.15 L 21.97 25.82 L 21.00 26.01 L 21.17 25.27 Z" />
<path fill="#3f6883" opacity="0.98" d=" M 19.17 26.27 L 20.04 26.15 L 19.97 26.82 L 19.00 27.01 L 19.17 26.27 Z" />
<path fill="#3f6883" opacity="0.98" d=" M 17.17 27.27 L 18.04 27.15 L 17.97 27.82 L 17.00 28.01 L 17.17 27.27 Z" />
<path fill="#3f6883" opacity="0.98" d=" M 7.00 27.85 L 7.65 27.89 C 8.06 28.37 8.90 29.32 9.32 29.80 L 10.28 29.92 L 11.08 29.92 L 12.07 30.03 L 12.04 30.61 C 10.79 31.12 9.52 31.17 8.22 30.77 L 7.73 30.23 L 7.19 29.66 C 7.14 29.21 7.05 28.30 7.00 27.85 Z" />
<path fill="#3f6883" opacity="0.98" d=" M 15.17 28.27 L 16.04 28.15 L 15.97 28.82 L 15.00 29.01 L 15.17 28.27 Z" />
<path fill="#3f6883" opacity="0.98" d=" M 13.18 29.26 L 14.05 29.15 L 13.97 29.81 L 13.02 30.00 L 13.18 29.26 Z" />
</g>
<g id="#78b1d5ff">
<path fill="#78b1d5" opacity="1.00" d=" M 20.66 8.14 C 21.53 8.11 23.26 8.06 24.13 8.04 L 24.20 8.91 C 23.05 11.51 19.38 11.83 17.12 13.20 L 17.00 14.00 L 16.00 14.00 L 16.03 14.88 L 15.18 15.12 C 14.63 15.10 13.54 15.06 12.99 15.05 C 12.98 15.58 12.94 16.64 12.93 17.17 C 12.64 16.90 12.07 16.36 11.78 16.09 L 11.11 16.22 L 10.87 17.03 L 9.98 17.01 L 9.02 16.99 L 9.00 18.00 C 8.50 18.00 7.50 18.00 7.00 18.00 L 7.00 19.00 C 6.51 19.00 5.52 19.00 5.03 19.00 L 5.07 20.04 L 4.01 20.00 C 4.00 19.50 3.98 18.50 3.97 18.00 L 5.02 18.00 L 5.00 17.00 C 5.50 17.00 6.50 17.00 7.00 17.00 L 7.00 16.00 C 7.50 16.00 8.50 16.00 9.00 16.00 L 8.99 15.01 C 9.51 14.99 10.54 14.95 11.05 14.93 L 11.21 13.75 L 11.96 13.71 L 12.15 12.92 L 13.06 12.78 L 13.85 12.67 L 13.98 11.91 L 14.98 11.77 L 15.81 11.67 L 15.93 10.92 L 16.96 10.78 L 17.79 10.67 L 17.92 9.92 L 18.93 9.75 L 19.74 9.63 L 19.79 8.85 L 20.60 8.84 L 20.66 8.14 Z" />
<path fill="#78b1d5" opacity="1.00" d=" M 24.28 17.14 L 24.91 17.24 C 24.89 17.63 24.86 18.40 24.84 18.78 C 24.18 18.79 22.85 18.81 22.19 18.83 L 22.18 18.25 C 22.55 18.08 23.30 17.74 23.68 17.57 L 24.28 17.14 Z" />
<path fill="#78b1d5" opacity="1.00" d=" M 5.10 21.05 C 5.53 21.07 6.40 21.10 6.84 21.12 C 6.89 21.56 6.99 22.43 7.04 22.87 L 6.31 22.96 C 6.01 22.66 5.41 22.08 5.11 21.78 L 5.10 21.05 Z" />
<path fill="#78b1d5" opacity="1.00" d=" M 4.96 24.11 L 5.69 24.22 L 5.80 25.02 L 5.07 24.90 L 4.96 24.11 Z" />
<path fill="#78b1d5" opacity="1.00" d=" M 7.08 24.01 C 7.51 24.04 8.39 24.10 8.82 24.13 C 8.88 24.56 9.00 25.43 9.06 25.87 L 8.33 25.95 C 8.02 25.65 7.40 25.06 7.09 24.76 L 7.08 24.01 Z" />
<path fill="#78b1d5" opacity="1.00" d=" M 6.90 27.07 L 7.58 27.15 L 7.65 27.89 L 7.00 27.85 L 6.90 27.07 Z" />
<path fill="#78b1d5" opacity="1.00" d=" M 9.13 27.00 C 9.54 27.04 10.37 27.11 10.78 27.15 C 10.86 27.84 11.01 29.23 11.08 29.92 L 10.28 29.92 C 10.11 29.51 9.77 28.71 9.60 28.30 L 9.16 27.67 L 9.13 27.00 Z" />
</g>
<g id="#5c96beff">
<path fill="#5c96be" opacity="1.00" d=" M 19.00 9.05 L 19.79 8.85 L 19.74 9.63 L 18.93 9.75 L 19.00 9.05 Z" />
<path fill="#5c96be" opacity="1.00" d=" M 24.20 8.91 L 25.00 9.09 L 25.14 10.00 L 25.27 10.85 L 26.01 11.01 L 26.15 11.96 L 26.27 12.83 L 27.01 13.00 L 27.15 13.96 L 27.27 14.83 L 28.01 15.00 L 28.15 15.96 L 28.26 16.82 L 29.01 16.99 L 29.12 17.94 L 29.22 18.79 L 29.93 18.93 L 29.75 20.00 L 29.07 20.14 C 29.02 20.62 28.91 21.57 28.85 22.04 L 27.97 22.16 L 27.14 22.27 L 26.99 23.02 L 26.04 23.15 L 25.17 23.27 L 25.00 24.01 L 24.04 24.15 L 23.17 24.27 L 23.00 25.01 L 22.04 25.15 L 21.17 25.27 L 21.00 26.01 L 20.04 26.15 L 19.17 26.27 L 19.00 27.01 L 18.04 27.15 L 17.17 27.27 L 17.00 28.01 L 16.04 28.15 L 15.17 28.27 L 15.00 29.01 L 14.05 29.15 L 13.18 29.26 L 13.02 30.00 L 12.07 30.03 L 11.08 29.92 C 11.01 29.23 10.86 27.84 10.78 27.15 C 10.37 27.11 9.54 27.04 9.13 27.00 L 9.06 25.87 C 9.00 25.43 8.88 24.56 8.82 24.13 C 8.39 24.10 7.51 24.04 7.08 24.01 L 7.04 22.87 C 6.99 22.43 6.89 21.56 6.84 21.12 C 6.40 21.10 5.53 21.07 5.10 21.05 L 5.07 20.04 L 5.03 19.00 C 5.52 19.00 6.51 19.00 7.00 19.00 L 7.00 18.00 C 7.50 18.00 8.50 18.00 9.00 18.00 L 9.02 16.99 L 9.98 17.01 C 9.98 17.76 10.00 19.25 10.01 20.00 L 9.00 20.00 L 9.00 21.00 L 10.00 21.00 C 10.00 21.75 10.00 23.25 10.00 24.00 L 10.81 23.99 L 11.18 24.87 L 12.01 24.88 L 12.85 24.89 C 12.85 24.44 12.85 23.54 12.85 23.09 L 12.01 23.15 C 11.97 22.57 11.90 21.43 11.86 20.86 L 11.81 20.14 L 11.14 20.13 L 11.05 19.07 C 11.51 19.04 12.43 18.98 12.89 18.94 L 12.90 17.94 L 12.93 17.17 C 12.94 16.64 12.98 15.58 12.99 15.05 C 13.54 15.06 14.63 15.10 15.18 15.12 L 15.21 16.05 L 15.21 16.89 L 15.18 17.79 C 15.59 17.79 16.40 17.80 16.81 17.80 L 16.78 16.91 L 16.77 16.11 L 16.80 15.27 L 16.03 14.88 L 16.00 14.00 L 17.00 14.00 L 17.12 13.20 C 19.38 11.83 23.05 11.51 24.20 8.91 M 22.00 14.00 L 22.22 15.20 L 21.83 16.01 L 22.12 16.84 L 22.18 18.25 L 22.19 18.83 C 22.85 18.81 24.18 18.79 24.84 18.78 C 24.86 18.40 24.89 17.63 24.91 17.24 C 24.94 16.43 24.99 14.80 25.02 13.99 C 24.27 13.99 22.75 14.00 22.00 14.00 M 19.22 17.07 C 18.93 17.38 18.36 18.01 18.07 18.33 L 18.22 19.10 L 18.20 19.74 C 18.86 19.75 20.19 19.79 20.86 19.80 C 20.86 19.40 20.88 18.58 20.88 18.18 L 20.25 18.05 L 19.99 17.23 L 19.22 17.07 M 19.13 21.30 L 18.98 22.09 L 18.24 22.17 L 18.16 22.95 L 18.28 23.74 L 19.01 23.72 L 20.04 23.80 L 20.70 23.81 C 20.81 23.36 21.04 22.45 21.16 21.99 L 20.80 21.14 C 20.38 21.18 19.54 21.26 19.13 21.30 M 15.22 24.22 L 15.15 24.95 L 15.20 25.77 L 16.00 26.15 L 16.88 25.88 L 17.15 25.00 L 16.77 24.20 L 15.95 24.15 L 15.22 24.22 Z" />
<path fill="#5c96be" opacity="1.00" d=" M 17.07 10.08 L 17.92 9.92 L 17.79 10.67 L 16.96 10.78 L 17.07 10.08 Z" />
<path fill="#5c96be" opacity="1.00" d=" M 15.08 11.07 L 15.93 10.92 L 15.81 11.67 L 14.98 11.77 L 15.08 11.07 Z" />
<path fill="#5c96be" opacity="1.00" d=" M 13.17 12.05 L 13.98 11.91 L 13.85 12.67 L 13.06 12.78 L 13.17 12.05 Z" />
<path fill="#5c96be" opacity="1.00" d=" M 11.31 12.98 L 12.15 12.92 L 11.96 13.71 L 11.21 13.75 L 11.31 12.98 Z" />
<path fill="#5c96be" opacity="1.00" d=" M 2.19 17.99 L 2.82 17.99 C 2.86 18.52 2.94 19.57 2.98 20.10 L 2.29 20.02 L 1.87 18.88 L 2.19 17.99 Z" />
<path fill="#5c96be" opacity="1.00" d=" M 3.00 21.04 L 3.74 21.19 L 3.87 22.05 L 3.20 21.99 L 3.00 21.04 Z" />
<path fill="#5c96be" opacity="1.00" d=" M 5.97 25.99 L 6.75 26.19 L 6.90 27.07 L 6.20 26.97 L 5.97 25.99 Z" />
</g>
<g id="#a2c5ddff">
<path fill="#a2c5dd" opacity="1.00" d=" M 2.82 17.99 L 3.97 18.00 C 3.98 18.50 4.00 19.50 4.01 20.00 L 5.07 20.04 L 5.10 21.05 L 5.11 21.78 C 5.41 22.08 6.01 22.66 6.31 22.96 L 7.04 22.87 L 7.08 24.01 L 7.09 24.76 C 7.40 25.06 8.02 25.65 8.33 25.95 L 9.06 25.87 L 9.13 27.00 L 9.16 27.67 L 9.60 28.30 C 9.77 28.71 10.11 29.51 10.28 29.92 L 9.32 29.80 C 8.90 29.32 8.06 28.37 7.65 27.89 L 7.58 27.15 L 6.90 27.07 L 6.75 26.19 L 5.97 25.99 L 5.80 25.02 L 5.69 24.22 L 4.96 24.11 L 4.80 23.21 L 4.02 23.02 L 3.87 22.05 L 3.74 21.19 L 3.00 21.04 L 2.98 20.10 C 2.94 19.57 2.86 18.52 2.82 17.99 Z" />
</g>
</svg>
