<svg xmlns="http://www.w3.org/2000/svg" width="32" height="32" viewBox="0 0 32 32">
    <g fill="none" fill-rule="evenodd">
        <path d="M0 0h32v32H0z"/>
        <path fill="#F90" d="M26.204 26.98c-.58-.345-1.235-.588-1.806-.775-1.312-.424-2.582-.523-4.064-.776-1.203-.205-2.154-.7-3.174-1.392-.531-.363-.966-.86-1.33-1.388-.067-.106-.406-.519-.372-.66 0 0-.237.945.232 2.273-4.307-.193-8.083-2.579-9.813-5.47C2.693 13.468 3.815 7.018 8.06 4.17c4.244-2.85 10.715-.84 14.178 4.304 2.175 3.228 2.73 6.984 1.8 10.038-1.864-1.267-3.545-.585-3.545-.585 1.845-.19 3.303 1.276 3.303 1.276.214.19.42.4.607.635.042.056.085.114.127.176.483.655.784 1.383.912 2.122 3.662-4.64 4.268-11.069 1.027-16.06C22.34-.289 13.539-1.913 6.816 2.441.089 6.799-2.015 15.484 2.114 21.845c3.393 5.235 11.35 6.831 15.912 5.389 1.725-.542 7.63-1.058 11.741 3.793 0 0 .355.406.549.868 0 0 .057.162.209.084.04-.022.154-.153-.235-.936-.87-1.769-2.414-3.067-4.086-4.062zm-4.392-4.534c-.01 0-.016-.004-.023-.006-.01-.003-.019-.008-.028-.01-.006 0-.014 0-.016-.003l-.047-.014a.743.743 0 0 0-.537.097c-.356.242-.41.79-.119 1.226a1.115 1.115 0 0 0 .531.415c.006.001.014.006.02.006.01.005.019.005.027.007.008 0 .012.004.018.006.016.004.029.01.044.01.19.038.38.011.538-.095.36-.242.414-.788.121-1.223-.135-.2-.318-.339-.516-.409-.005-.003-.008-.003-.013-.007zm2.145-.523c.168.543.396.958.563 1.041.16.097.35-.127.229-.67-.052-.235-.231-.727-.539-.846-.302-.112-.329.244-.253.475z"/>
    </g>
</svg>
