<?xml version="1.0" encoding="UTF-8" ?>
<!DOCTYPE svg PUBLIC "-//W3C//DTD SVG 1.1//EN" "http://www.w3.org/Graphics/SVG/1.1/DTD/svg11.dtd">
<svg width="22pt" height="22pt" viewBox="0 0 22 22" version="1.1" xmlns="http://www.w3.org/2000/svg">
<g id="#d0021bff">
<path fill="#d0021b" opacity="1.00" d=" M 0.37 4.60 C 1.78 3.19 3.19 1.78 4.60 0.37 C 6.73 2.49 8.84 4.62 10.99 6.72 C 13.11 4.61 15.22 2.48 17.35 0.38 C 18.76 1.78 20.16 3.20 21.57 4.61 C 19.45 6.73 17.32 8.85 15.22 10.99 C 17.34 13.10 19.46 15.21 21.57 17.34 C 20.16 18.75 18.75 20.16 17.34 21.57 C 15.21 19.46 13.10 17.34 10.99 15.22 C 8.85 17.32 6.73 19.45 4.61 21.57 C 3.20 20.16 1.78 18.76 0.38 17.35 C 2.48 15.22 4.61 13.11 6.72 10.99 C 4.62 8.84 2.49 6.73 0.37 4.60 Z" />
</g>
</svg>
