<svg xmlns="http://www.w3.org/2000/svg" width="28" height="30" viewBox="0 0 28 30">
    <path fill="#BBC9D0" fill-rule="evenodd" d="M16.884 10.44a6.434 6.434 0 0 0-1.188-.108c-.744 0-1.44.162-2.088.486a5.353 5.353 0 0 0-1.683 1.314 6.467 6.467 0 0 0-1.125 1.899 6.113 6.113 0 0 0-.414 2.223c0 .768.165 1.365.495 1.791.33.426.813.639 1.449.639.312 0 .627-.048.945-.144.318-.096.621-.267.909-.513.288-.246.552-.573.792-.981.24-.408.438-.918.594-1.53l1.314-5.076zm2.106 4.608c-.192.768-.285 1.395-.279 1.881.006.486.081.87.225 1.152.144.282.348.477.612.585.264.108.564.162.9.162.504 0 .981-.159 1.431-.477.45-.318.843-.765 1.179-1.341.336-.576.603-1.26.801-2.052.198-.792.297-1.656.297-2.592 0-1.56-.243-2.934-.729-4.122-.486-1.188-1.167-2.181-2.043-2.979-.876-.798-1.917-1.398-3.123-1.8-1.206-.402-2.529-.603-3.969-.603-1.584 0-3.048.297-4.392.891a10.908 10.908 0 0 0-3.501 2.439c-.99 1.032-1.764 2.25-2.322 3.654s-.837 2.916-.837 4.536c0 1.968.306 3.699.918 5.193.612 1.494 1.452 2.742 2.52 3.744 1.068 1.002 2.325 1.755 3.771 2.259 1.446.504 3.009.756 4.689.756.924 0 1.788-.051 2.592-.153.804-.102 1.542-.24 2.214-.414a15.019 15.019 0 0 0 1.836-.594 11.304 11.304 0 0 0 1.476-.711c.312-.18.588-.234.828-.162.24.072.414.252.522.54l.612 1.602c-1.248.816-2.706 1.482-4.374 1.998-1.668.516-3.57.774-5.706.774-2.172 0-4.182-.342-6.03-1.026-1.848-.684-3.447-1.665-4.797-2.943-1.35-1.278-2.406-2.835-3.168-4.671C.381 18.738 0 16.674 0 14.382a14.35 14.35 0 0 1 1.908-7.155 14.72 14.72 0 0 1 2.214-2.925 14.287 14.287 0 0 1 2.88-2.286A14.254 14.254 0 0 1 10.431.531 13.891 13.891 0 0 1 14.292 0c1.704 0 3.339.285 4.905.855a12.906 12.906 0 0 1 4.158 2.448c1.206 1.062 2.169 2.358 2.889 3.888.72 1.53 1.08 3.255 1.08 5.175 0 1.284-.189 2.487-.567 3.609-.378 1.122-.906 2.097-1.584 2.925a7.548 7.548 0 0 1-2.394 1.953 6.435 6.435 0 0 1-2.997.711c-.828 0-1.56-.192-2.196-.576-.636-.384-1.074-1.002-1.314-1.854-.708.864-1.458 1.482-2.25 1.854a5.978 5.978 0 0 1-2.574.558c-.756 0-1.413-.132-1.971-.396a3.995 3.995 0 0 1-1.404-1.089 4.618 4.618 0 0 1-.846-1.638 7.253 7.253 0 0 1-.279-2.061 8.848 8.848 0 0 1 2.349-5.949 8.33 8.33 0 0 1 1.836-1.494 9.446 9.446 0 0 1 2.376-1.008c.882-.246 1.851-.369 2.907-.369.936 0 1.734.072 2.394.216.66.144 1.296.348 1.908.612l-1.728 6.678z"/>
</svg>
