<?xml version="1.0" encoding="UTF-8" ?>
<!DOCTYPE svg PUBLIC "-//W3C//DTD SVG 1.1//EN" "http://www.w3.org/Graphics/SVG/1.1/DTD/svg11.dtd">
<svg width="88pt" height="116pt" viewBox="0 0 88 116" version="1.1" xmlns="http://www.w3.org/2000/svg">
<g id="#b71c1cff">
<path fill="#b71c1c" opacity="1.00" d=" M 44.12 0.00 L 44.72 0.00 C 45.15 2.09 47.20 3.07 48.72 4.29 C 59.94 12.64 74.19 15.93 88.00 16.01 L 88.00 56.45 C 87.34 70.08 82.91 83.65 74.53 94.51 C 66.91 104.54 56.19 112.14 44.19 116.00 L 43.92 116.00 C 28.14 111.09 14.72 99.44 7.31 84.71 C 2.81 76.00 0.57 66.28 0.00 56.53 L 0.00 16.01 C 15.88 15.96 32.62 11.49 44.12 0.00 M 22.01 25.69 C 18.71 26.63 15.26 26.81 11.98 27.82 C 12.18 38.59 11.63 49.37 12.34 60.12 C 13.95 77.71 24.71 94.46 40.74 102.22 C 42.09 102.68 43.54 103.98 45.01 103.22 C 62.94 95.78 74.89 77.13 75.83 57.95 C 76.19 47.90 75.92 37.84 76.00 27.79 C 64.72 25.93 53.62 22.45 44.00 16.12 C 37.18 20.35 29.84 23.82 22.01 25.69 Z" />
</g>
<g id="#f44336ff">
<path fill="#f44336" opacity="1.00" d=" M 22.01 25.69 C 29.84 23.82 37.18 20.35 44.00 16.12 C 53.62 22.45 64.72 25.93 76.00 27.79 C 75.92 37.84 76.19 47.90 75.83 57.95 C 74.89 77.13 62.94 95.78 45.01 103.22 C 43.54 103.98 42.09 102.68 40.74 102.22 C 24.71 94.46 13.95 77.71 12.34 60.12 C 11.63 49.37 12.18 38.59 11.98 27.82 C 15.26 26.81 18.71 26.63 22.01 25.69 M 40.00 34.00 C 40.10 46.21 39.79 58.43 40.16 70.62 C 42.74 70.47 45.32 70.49 47.90 70.60 C 48.13 58.40 47.94 46.20 48.00 34.00 C 45.33 34.00 42.67 34.00 40.00 34.00 M 40.01 80.05 C 39.99 82.70 39.99 85.35 40.00 88.00 C 42.67 88.00 45.33 88.00 48.00 88.00 C 48.00 85.35 48.00 82.71 48.00 80.06 C 45.33 80.06 42.67 80.05 40.01 80.05 Z" />
</g>
<g id="#ffebeeff">
<path fill="#ffebee" opacity="1.00" d=" M 40.00 34.00 C 42.67 34.00 45.33 34.00 48.00 34.00 C 47.94 46.20 48.13 58.40 47.90 70.60 C 45.32 70.49 42.74 70.47 40.16 70.62 C 39.79 58.43 40.10 46.21 40.00 34.00 Z" />
<path fill="#ffebee" opacity="1.00" d=" M 40.01 80.05 C 42.67 80.05 45.33 80.06 48.00 80.06 C 48.00 82.71 48.00 85.35 48.00 88.00 C 45.33 88.00 42.67 88.00 40.00 88.00 C 39.99 85.35 39.99 82.70 40.01 80.05 Z" />
</g>
</svg>
