<?xml version="1.0" encoding="UTF-8" ?>
<!DOCTYPE svg PUBLIC "-//W3C//DTD SVG 1.1//EN" "http://www.w3.org/Graphics/SVG/1.1/DTD/svg11.dtd">
<svg width="16pt" height="16pt" viewBox="0 0 16 16" version="1.1" xmlns="http://www.w3.org/2000/svg">
<g id="#7ed321ff">
<path fill="#7ed321" opacity="1.00" d=" M 6.70 0.00 L 9.09 0.00 C 12.57 0.71 15.14 3.29 16.00 6.70 L 16.00 9.09 C 15.29 12.57 12.72 15.14 9.30 16.00 L 6.90 16.00 C 3.43 15.29 0.86 12.72 0.00 9.30 L 0.00 6.91 C 0.71 3.43 3.28 0.86 6.70 0.00 M 5.83 3.38 C 5.80 6.46 5.80 9.54 5.83 12.62 C 8.12 11.11 10.38 9.56 12.63 8.00 C 10.38 6.43 8.12 4.89 5.83 3.38 Z" />
</g>
<g id="#fffffeff">
<path fill="#fffffe" opacity="1.00" d=" M 5.83 3.38 C 8.12 4.89 10.38 6.43 12.63 8.00 C 10.38 9.56 8.12 11.11 5.83 12.62 C 5.80 9.54 5.80 6.46 5.83 3.38 Z" />
</g>
</svg>
