<?xml version="1.0" encoding="UTF-8" ?>
<!DOCTYPE svg PUBLIC "-//W3C//DTD SVG 1.1//EN" "http://www.w3.org/Graphics/SVG/1.1/DTD/svg11.dtd">
<svg width="16pt" height="16pt" viewBox="0 0 16 16" version="1.1" xmlns="http://www.w3.org/2000/svg">
<g id="#ff5a28ff">
<path fill="#ff5a28" opacity="1.00" d=" M 6.67 0.00 L 9.13 0.00 C 12.56 0.71 15.13 3.30 16.00 6.66 L 16.00 9.13 C 15.29 12.56 12.70 15.13 9.34 16.00 L 6.87 16.00 C 3.44 15.29 0.87 12.70 0.00 9.33 L 0.00 6.87 C 0.71 3.44 3.30 0.87 6.67 0.00 M 4.17 5.17 C 3.65 6.80 4.20 7.35 5.83 6.83 C 6.35 5.20 5.80 4.65 4.17 5.17 M 10.16 5.17 C 9.65 6.80 10.21 7.35 11.83 6.83 C 12.35 5.19 11.79 4.64 10.16 5.17 M 6.23 9.96 C 5.33 10.78 4.43 11.60 3.52 12.42 C 5.00 11.94 6.51 11.53 8.03 11.21 C 9.46 11.65 10.92 11.98 12.42 12.11 C 11.73 11.58 10.35 10.51 9.66 9.98 C 8.51 9.97 7.37 9.97 6.23 9.96 Z" />
</g>
<g id="#ffcabaff">
<path fill="#ffcaba" opacity="1.00" d=" M 4.17 5.17 C 5.80 4.65 6.35 5.20 5.83 6.83 C 4.20 7.35 3.65 6.80 4.17 5.17 Z" />
<path fill="#ffcaba" opacity="1.00" d=" M 10.16 5.17 C 11.79 4.64 12.35 5.19 11.83 6.83 C 10.21 7.35 9.65 6.80 10.16 5.17 Z" />
<path fill="#ffcaba" opacity="1.00" d=" M 6.23 9.96 C 7.37 9.97 8.51 9.97 9.66 9.98 C 10.35 10.51 11.73 11.58 12.42 12.11 C 10.92 11.98 9.46 11.65 8.03 11.21 C 6.51 11.53 5.00 11.94 3.52 12.42 C 4.43 11.60 5.33 10.78 6.23 9.96 Z" />
</g>
</svg>
