<svg xmlns="http://www.w3.org/2000/svg" width="24" height="9" viewBox="0 0 24 9">
    <path fill="#141414" fill-rule="evenodd" d="M0 3.184v1.29l3.523-.383V2.695L0 3.185m1.124 1.367v4.42h1.29v-4.55l-1.29.13M4 2.63v6.343h1.36V2.44l-1.36.19m1.612-.225v1.46l1.963-.214V2.133l-1.963.272m0 2.545v1.486l1.289-.07V4.842l-1.289.11m0 2.556v1.465h1.963V7.45l-1.963.058m7.039-6.08v7.545h1.781V1.18l-1.781.247m2.114-.293v1.735l2.597-.282V.772l-2.597.36m0 3.042v1.768l1.702-.092V4.03l-1.702.144m0 3.06v1.738h2.597V7.156l-2.597.078M8.094 2.06v6.911h1.548V1.846l-1.549.215m1.838 5.317v1.594h2.247v-1.66l-2.247.066M23.182.687C22.62.16 21.793-.054 20.89.074v1.925c.366-.02.662.114.794.384.209.425-.006 1.064-.514 1.655-.783.913-2.865 2.781-2.865 2.781l2.99-.097c1.826-1.762 2.482-2.832 2.6-4.168a2.268 2.268 0 0 0-.713-1.867M24 8.972V6.958l-6.064.18m0 0v1.834H24M20.542.117c-1.762.37-2.627 1.65-2.527 3.74l1.878-.166c-.085-1.18.28-1.46.65-1.613l-.001-1.96"/>
</svg>
