<svg xmlns="http://www.w3.org/2000/svg" width="19" height="16" viewBox="0 0 19 16">
    <g fill="#546E7A" fill-rule="evenodd">
        <path d="M17.348 3.455h-5.141l2.235 6.636c.142.47.07 1.07-.246 1.493-.26.348-.651.568-1.076.634l-3.332 3.327h7.56c.911 0 1.652-.74 1.652-1.648V5.103c0-.909-.74-1.648-1.652-1.648z"/>
        <path d="M11.515 12.09H9.212v2.304z"/>
        <path fill-rule="nonzero" d="M1.655 10.94h11.036a.554.554 0 0 0 .442-.221.543.543 0 0 0 .086-.484L10.145 1.17C9.933.47 9.295 0 8.559 0H1.655A1.65 1.65 0 0 0 0 1.64v7.658c0 .905.743 1.641 1.655 1.641zm3.863-9.3c1.254 0 2.435.608 3.158 1.626a.544.544 0 0 1-.133.762.555.555 0 0 1-.769-.132 2.772 2.772 0 0 0-2.256-1.161c-1.521 0-2.76 1.227-2.76 2.735 0 1.508 1.239 2.735 2.76 2.735A2.758 2.758 0 0 0 8.22 6.017h-1.6a.55.55 0 0 1-.552-.547.55.55 0 0 1 .552-.547h2.207a.55.55 0 0 1 .552.547c0 2.11-1.733 3.828-3.862 3.828-2.13 0-3.863-1.717-3.863-3.828 0-2.111 1.733-3.83 3.863-3.83z"/>
    </g>
</svg>
