<svg xmlns="http://www.w3.org/2000/svg" width="18" height="18" viewBox="0 0 18 18">
    <g fill="none" fill-rule="evenodd">
        <rect width="18" height="18" fill="#2C97DE" rx="2"/>
        <path fill="#FFF" d="M7.895 11.246L6.232 9.75a1.333 1.333 0 0 0-1.885.104 1.332 1.332 0 0 0 .093 1.886l2.796 2.517c.413.372.994.436 1.467.21.33-.089.597-.355.702-.757 0 0 .796-3.285 1.595-4.787.799-1.502 3.3-5.423 3.3-5.423.387-.612.305-.668-.182-.13l-3.236 3.577a18.472 18.472 0 0 0-1.588 2.09l-1.399 2.21z"/>
    </g>
</svg>
