<?xml version="1.0" encoding="UTF-8" ?>
<!DOCTYPE svg PUBLIC "-//W3C//DTD SVG 1.1//EN" "http://www.w3.org/Graphics/SVG/1.1/DTD/svg11.dtd">
<svg width="36pt" height="36pt" viewBox="0 0 36 36" version="1.1" xmlns="http://www.w3.org/2000/svg">
<g id="#ffffffff">
<path fill="#ffffff" opacity="1.00" d=" M 0.00 0.00 L 2.82 0.00 C 2.27 1.25 1.25 2.27 0.00 2.82 L 0.00 0.00 Z" />
<path fill="#ffffff" opacity="1.00" d=" M 33.18 0.00 L 36.00 0.00 L 36.00 2.82 C 34.75 2.27 33.73 1.25 33.18 0.00 Z" />
<path fill="#ffffff" opacity="1.00" d=" M 15.91 22.01 C 20.01 16.51 23.59 10.23 29.07 5.95 C 26.95 11.79 21.65 15.99 20.10 22.09 C 19.25 24.37 19.28 27.02 17.75 29.00 C 14.12 29.32 11.57 26.03 9.18 23.81 C 7.61 22.72 7.50 20.06 9.26 19.10 C 11.89 18.51 13.89 20.73 15.91 22.01 Z" />
<path fill="#ffffff" opacity="1.00" d=" M 0.00 33.18 C 1.25 33.73 2.27 34.75 2.82 36.00 L 0.00 36.00 L 0.00 33.18 Z" />
<path fill="#ffffff" opacity="1.00" d=" M 33.18 36.00 C 33.73 34.75 34.75 33.73 36.00 33.18 L 36.00 36.00 L 33.18 36.00 Z" />
</g>
<g id="#2c97deff">
<path fill="lightgray" opacity="1.00" d=" M 2.82 0.00 L 33.18 0.00 C 33.73 1.25 34.75 2.27 36.00 2.82 L 36.00 33.18 C 34.75 33.73 33.73 34.75 33.18 36.00 L 2.82 36.00 C 2.27 34.75 1.25 33.73 0.00 33.18 L 0.00 2.82 C 1.25 2.27 2.27 1.25 2.82 0.00 M 15.91 22.01 C 13.89 20.73 11.89 18.51 9.26 19.10 C 7.50 20.06 7.61 22.72 9.18 23.81 C 11.57 26.03 14.12 29.32 17.75 29.00 C 19.28 27.02 19.25 24.37 20.10 22.09 C 21.65 15.99 26.95 11.79 29.07 5.95 C 23.59 10.23 20.01 16.51 15.91 22.01 Z" />
</g>
</svg>
