<svg xmlns="http://www.w3.org/2000/svg" xmlns:xlink="http://www.w3.org/1999/xlink" width="391" height="86" viewBox="0 0 391 86">
    <defs>
        <path id="b" d="M101 32V17a8 8 0 0 1 8-8h216a8 8 0 0 1 8 8v15a8 8 0 0 0 8 8h42v40H0V40h93a8 8 0 0 0 8-8z"/>
        
        <linearGradient id="c" x1="0%" x2="117.909%" y1="50%" y2="50%">
            <stop offset="0%" stop-color="#FFF"/>
            <stop offset="73.71%" stop-color="#FFF" stop-opacity=".821"/>
            <stop offset="100%" stop-color="#FFF" stop-opacity="0"/>
        </linearGradient>
    </defs>
    <g fill="none" fill-rule="evenodd" transform="translate(4)">
        <path fill="#D9E0E4" d="M8 0h375v79H0V8a8 8 0 0 1 8-8z"/>
        <use fill="#000" filter="url(#a)" xlink:href="#b"/>
        <use fill="#ECF1F3" xlink:href="#b"/>
        <circle cx="26" cy="21" r="7" fill="#FF544D"/>
        <circle cx="47" cy="21" r="7" fill="#FFBE2F"/>
        <circle cx="69" cy="21" r="7" fill="#28CA42"/>
        <path fill="url(#c)" d="M140 45h241a2 2 0 0 1 2 2v26a2 2 0 0 1-2 2H140c-8.284 0-15-6.716-15-15 0-8.284 6.716-15 15-15z"/>
        <path fill="#323639" d="M358 23h6a1 1 0 1 1 0 2h-6v6a1 1 0 1 1-2 0v-6h-6a1 1 0 1 1 0-2h6v-6a1 1 0 1 1 2 0v6z" opacity=".533"/>
        <path fill="#323639" d="M316.523 25.462l3.182 3.182a.75.75 0 1 1-1.06 1.061l-3.183-3.182-3.182 3.182a.75.75 0 1 1-1.06-1.06l3.182-3.183-3.182-3.182a.75.75 0 0 1 1.06-1.06l3.182 3.182 3.182-3.182a.75.75 0 1 1 1.061 1.06l-3.182 3.182z" opacity=".166"/>
        <path fill="#000" fill-rule="nonzero" d="M114.578 54.718c-.285-.118-.528-.07-.729.146l-1.353 1.342a8.077 8.077 0 0 0-2.544-1.628 7.84 7.84 0 0 0-2.96-.578 7.776 7.776 0 0 0-3.101.635 8.06 8.06 0 0 0-2.55 1.706 8.063 8.063 0 0 0-1.706 2.55 7.776 7.776 0 0 0-.635 3.1c0 1.083.212 2.116.635 3.101a8.062 8.062 0 0 0 1.706 2.55 8.065 8.065 0 0 0 2.55 1.706 7.775 7.775 0 0 0 3.1.635 7.935 7.935 0 0 0 3.403-.754 7.813 7.813 0 0 0 2.748-2.128.342.342 0 0 0 .078-.234.288.288 0 0 0-.1-.214l-1.425-1.436a.4.4 0 0 0-.26-.093c-.11.014-.19.056-.24.125a5.225 5.225 0 0 1-1.862 1.53c-.735.36-1.515.54-2.341.54-.721 0-1.41-.14-2.065-.42a5.365 5.365 0 0 1-1.702-1.14 5.37 5.37 0 0 1-1.14-1.702 5.19 5.19 0 0 1-.42-2.065c0-.722.14-1.41.42-2.066.282-.655.661-1.222 1.14-1.7a5.369 5.369 0 0 1 1.702-1.14 5.19 5.19 0 0 1 2.065-.422c1.394 0 2.605.475 3.632 1.426l-1.437 1.436c-.215.208-.263.447-.145.718.118.277.322.416.614.416h4.662a.64.64 0 0 0 .468-.198.64.64 0 0 0 .197-.468v-4.662c0-.291-.135-.496-.405-.614z" opacity=".496"/>
        <path fill="#000" fill-rule="nonzero" d="M67 54l-1.4 1.4 5.6 5.6H59v2h12.2l-5.6 5.6L67 70l8-8z" opacity=".184"/>
        <g fill="#000" fill-rule="nonzero" opacity=".572">
            <path d="M27 53l1.4 1.4-5.6 5.6H35v2H22.8l5.6 5.6L27 69l-8-8z"/>
        </g>
    </g>
</svg>
