<svg xmlns="http://www.w3.org/2000/svg" width="8" height="10" viewBox="0 0 8 10">
    <path fill="#37474F" fill-rule="nonzero" d="M6.525 4.368V2.496C6.525 1.12 5.357 0 3.921 0 2.485 0 1.316 1.12 1.316 2.496v1.872c-.719 0-1.302.559-1.302 1.248v3.12c0 .69.583 1.248 1.302 1.248h5.21c.718 0 1.301-.559 1.301-1.248v-3.12c0-.69-.583-1.248-1.302-1.248zM4.246 7.392v1.032a.319.319 0 0 1-.325.312.319.319 0 0 1-.326-.312V7.392a.611.611 0 0 1-.325-.528c0-.345.291-.624.65-.624.36 0 .652.279.652.624 0 .228-.135.42-.326.528zm.977-3.024H2.618V2.496c0-.689.584-1.248 1.303-1.248.718 0 1.302.56 1.302 1.248v1.872z"/>
</svg>
