<svg xmlns="http://www.w3.org/2000/svg" width="16" height="16" viewBox="0 0 16 16">
    <g fill="none" fill-rule="nonzero">
        <path fill="#2C97DE" d="M15.973 7.987A7.986 7.986 0 1 0 0 7.987a7.986 7.986 0 0 0 15.973 0z"/>
        <path fill="#FFF" d="M4.45 5.588c0-.447.143-.901.431-1.361.288-.46.707-.84 1.26-1.143.551-.301 1.195-.452 1.93-.452.684 0 1.288.126 1.811.378.524.252.928.596 1.213 1.03.286.433.428.905.428 1.414 0 .4-.081.752-.244 1.054a3.226 3.226 0 0 1-.58.782c-.224.219-.626.588-1.206 1.107-.16.146-.289.274-.385.385-.097.111-.17.212-.216.304a1.484 1.484 0 0 0-.11.276c-.026.092-.065.254-.117.485-.09.49-.37.736-.841.736a.86.86 0 0 1-.62-.241c-.167-.16-.25-.398-.25-.714 0-.397.06-.74.184-1.03a2.61 2.61 0 0 1 .488-.764c.202-.219.476-.48.82-.781.302-.264.52-.464.655-.598.134-.134.247-.284.34-.45.091-.164.137-.343.137-.537 0-.377-.14-.695-.42-.955-.282-.259-.643-.389-1.087-.389-.519 0-.9.131-1.146.393-.245.262-.452.647-.622 1.156-.16.533-.465.8-.913.8a.897.897 0 0 1-.668-.28c-.182-.186-.272-.388-.272-.605zm3.452 7.753c-.288 0-.54-.093-.754-.28-.214-.185-.322-.446-.322-.78 0-.298.104-.548.312-.75.207-.203.462-.305.764-.305.297 0 .547.102.75.304.202.203.303.453.303.75 0 .33-.106.59-.318.778a1.074 1.074 0 0 1-.735.283z"/>
    </g>
</svg>
