<svg xmlns="http://www.w3.org/2000/svg" width="17" height="19" viewBox="0 0 17 19">
    <path fill="#546E7A" fill-rule="nonzero" d="M7.83 8.474a.677.677 0 0 0 0-.948.657.657 0 0 0-.936 0L3.39 11.073a3.147 3.147 0 0 0-.92 2.24c0 .85.323 1.634.92 2.238a3.091 3.091 0 0 0 4.424 0l7.91-8.008A4.417 4.417 0 0 0 17 4.42 4.417 4.417 0 0 0 15.725 1.3a4.328 4.328 0 0 0-6.184 0L1.647 9.292A5.672 5.672 0 0 0 0 13.312c0 1.52.581 2.959 1.647 4.02A5.534 5.534 0 0 0 5.618 19a5.507 5.507 0 0 0 3.972-1.667l3.503-3.547a.677.677 0 0 0 0-.948.657.657 0 0 0-.936 0l-3.504 3.547a4.249 4.249 0 0 1-6.07 0 4.355 4.355 0 0 1-1.26-3.073c0-1.16.453-2.255 1.26-3.072l7.895-7.993a2.985 2.985 0 0 1 2.147-.899c.807 0 1.582.327 2.147.9a3.06 3.06 0 0 1 .888 2.173 3.1 3.1 0 0 1-.888 2.174l-7.91 8.008a1.807 1.807 0 0 1-3.084-1.29c0-.491.194-.949.533-1.292L7.83 8.474z"/>
</svg>
