<?xml version="1.0" encoding="UTF-8"?>
<svg width="173px" height="36px" viewBox="0 0 173 36" version="1.1" xmlns="http://www.w3.org/2000/svg" xmlns:xlink="http://www.w3.org/1999/xlink">
    <!-- Generator: Sketch 52.5 (67469) - http://www.bohemiancoding.com/sketch -->
    <title>Group 2 Copy</title>
    <desc>Created with Sketch.</desc>
    <g id="-Prototype" stroke="none" stroke-width="1" fill="none" fill-rule="evenodd">
        <g id="Desktop-HD-blue---Личный-кабинет-/-Показы" transform="translate(-51.000000, -17.000000)">
            <g id="Group-2-Copy" transform="translate(51.000000, 17.000000)">
                <path class="digi-svg-logo" d="M51.25658,22.7329516 L52.6925874,22.7329516 C53.4605938,22.7329516 54.251978,22.7104013 55.0134905,22.6078193 C55.5459865,22.5361887 56.0880067,22.415478 56.5871676,22.2094297 C57.0542921,22.0170885 57.4854839,21.7482529 57.8794443,21.4290107 C58.5630306,20.8758638 59.1076484,20.2037749 59.4842919,19.3999212 C59.8596366,18.5982783 60.0371353,17.7475552 60.0371353,16.858806 C60.0371353,14.9897798 59.3063603,13.5085312 57.8655908,12.3615584 C57.3733567,11.9848349 56.8360986,11.6713408 56.2538165,11.4661768 C55.7966492,11.304787 55.3200004,11.207511 54.8394552,11.15622 C54.1359545,11.0810521 53.3995516,11.0739775 52.6925874,11.0739775 L51.25658,11.0739775 L51.25658,22.7329516 Z M164.836668,19.2601974 L162.965139,19.2646191 L162.965139,24.7094236 C162.965139,25.0140745 162.721836,25.2630127 162.423552,25.2630127 L160.899228,25.2630127 C160.600944,25.2630127 160.357641,25.0140745 160.357641,24.7094236 L160.357641,9.09706333 C160.357641,8.7924125 160.600944,8.54391647 160.899228,8.54391647 L164.542713,8.54391647 C165.434968,8.54391647 166.404284,8.56337167 167.284418,8.71857115 C167.937699,8.83397589 168.57453,9.04179286 169.153349,9.37518434 C169.975903,9.84874173 170.622691,10.5208306 171.09198,11.3574045 C171.570794,12.2112227 171.805871,13.1388823 171.805871,14.123581 C171.805871,14.8805653 171.676427,15.5911225 171.407148,16.2428719 C171.110163,16.9627145 170.645636,17.6118109 170.052098,18.1057078 C169.8036,18.3130826 169.555102,18.4806627 169.260714,18.6641607 L172.142686,24.3742635 C172.376464,24.758946 172.014973,25.2630127 171.589842,25.2630127 L169.943001,25.2630127 C169.766801,25.2630127 169.625668,25.1851918 169.539516,25.0410465 L166.610789,19.2133281 C165.954477,19.2491433 165.346219,19.2517963 164.836668,19.2601974 Z M163.966059,17.0763506 C164.456561,17.0763506 164.951826,17.0816566 165.444925,17.066623 C166.195615,17.0427461 166.830281,17.0042779 167.546336,16.7106812 C168.046363,16.4710284 168.442921,16.1181817 168.745535,15.6446243 C169.045118,15.1754886 169.19794,14.6647894 169.19794,14.1050101 C169.19794,13.6248203 169.092306,13.1764662 168.877143,12.749336 C168.479287,11.9596315 167.742884,11.4002944 166.895219,11.2176807 C166.26748,11.0823786 165.499041,11.0739775 164.858747,11.0739775 L162.965139,11.0739775 L162.965139,17.0763506 L163.966059,17.0763506 Z M149.46312,11.0739775 L149.46312,15.4381339 L156.306343,15.4381339 C156.60506,15.4381339 156.848363,15.6866299 156.848363,15.9912807 L156.848363,17.4146059 C156.848363,17.7196989 156.60506,17.9681949 156.306343,17.9681949 L149.46312,17.9681949 L149.46312,22.7329516 L156.542286,22.7329516 C156.841003,22.7329516 157.084306,22.9814476 157.084306,23.2860985 L157.084306,24.7094236 C157.084306,25.0140745 156.841003,25.2630127 156.542286,25.2630127 L147.397209,25.2630127 C147.098492,25.2630127 146.855189,25.0140745 146.855189,24.7094236 L146.855189,9.09706333 C146.855189,8.7924125 147.098492,8.54391647 147.397209,8.54391647 L156.542286,8.54391647 C156.841003,8.54391647 157.084306,8.7924125 157.084306,9.09706333 L157.084306,10.5203885 C157.084306,10.8254815 156.841003,11.0739775 156.542286,11.0739775 L149.46312,11.0739775 Z M137.15597,9.09706333 C137.15597,8.7924125 136.912667,8.54391647 136.614382,8.54391647 L135.090059,8.54391647 C134.791774,8.54391647 134.548038,8.7924125 134.548038,9.09706333 L134.548038,24.7094236 C134.548038,25.0140745 134.791774,25.2630127 135.090059,25.2630127 L144.443372,25.2630127 C144.742089,25.2630127 144.985392,25.0140745 144.985392,24.7094236 L144.985392,23.1530072 C144.985392,22.8483564 144.742089,22.5994182 144.443372,22.5994182 L137.15597,22.5994182 L137.15597,9.09706333 Z M124.849685,9.09706333 C124.849685,8.7924125 124.606382,8.54391647 124.307665,8.54391647 L122.783774,8.54391647 C122.485057,8.54391647 122.241754,8.7924125 122.241754,9.09706333 L122.241754,24.7094236 C122.241754,25.0140745 122.485057,25.2630127 122.783774,25.2630127 L132.137087,25.2630127 C132.435372,25.2630127 132.678675,25.0140745 132.678675,24.7094236 L132.678675,23.1530072 C132.678675,22.8483564 132.435372,22.5994182 132.137087,22.5994182 L124.849685,22.5994182 L124.849685,9.09706333 Z M111.335111,11.0739775 L111.335111,15.4381339 L118.178334,15.4381339 C118.476618,15.4381339 118.720354,15.6866299 118.720354,15.9912807 L118.720354,17.4146059 C118.720354,17.7196989 118.476618,17.9681949 118.178334,17.9681949 L111.335111,17.9681949 L111.335111,22.7329516 L118.414277,22.7329516 C118.712994,22.7329516 118.956297,22.9814476 118.956297,23.2860985 L118.956297,24.7094236 C118.956297,25.0140745 118.712994,25.2630127 118.414277,25.2630127 L109.268767,25.2630127 C108.970483,25.2630127 108.72718,25.0140745 108.72718,24.7094236 L108.72718,9.09706333 C108.72718,8.7924125 108.970483,8.54391647 109.268767,8.54391647 L118.414277,8.54391647 C118.712994,8.54391647 118.956297,8.7924125 118.956297,9.09706333 L118.956297,10.5203885 C118.956297,10.8254815 118.712994,11.0739775 118.414277,11.0739775 L111.335111,11.0739775 Z M105.923567,20.2254409 C105.931792,20.8860336 105.821397,21.5280554 105.585887,22.1413365 C104.628693,24.629392 102.107779,25.6521168 99.5626214,25.5309639 C97.356443,25.4252868 95.1264539,24.1770585 94.0943642,22.0073609 C93.9328837,21.7287977 94.0298586,21.3724137 94.3155881,21.2278262 L95.7368761,20.5084257 C96.0048558,20.3726814 96.3347435,20.4867597 96.4711144,20.7622277 C96.932178,21.7752249 98.1989123,22.9084906 99.7427176,22.9889644 C100.908148,23.0495409 102.301296,22.6374442 102.894401,21.635059 C103.142466,21.2158877 103.259355,20.7586904 103.252862,20.26612 C103.236843,18.9586417 102.403033,18.3679109 101.2402,17.9876501 C100.434962,17.7245627 99.4227871,17.466339 98.4543371,17.163899 C97.0347809,16.7208509 95.8793079,15.7958443 95.2965929,14.5272765 C94.7104144,13.2529605 94.7537067,11.7310329 95.4948718,10.4611385 C95.9312588,9.71653476 96.5442785,9.15410246 97.2984313,8.75527074 C98.08159,8.34052113 99.1942035,8.11015381 100.079965,8.13314633 C101.475711,8.16940376 103.330788,8.51031202 104.772856,10.4116162 C104.944727,10.6866421 104.856843,11.048332 104.572413,11.2013207 L103.242471,11.914973 C103.000034,12.0449691 102.702616,11.9711278 102.541568,11.7412026 C101.776159,10.6035153 99.7942355,10.3497133 98.5989336,10.9660896 C96.7914778,11.8990551 97.1940967,14.2854129 99.7002911,15.0008339 C100.529773,15.2373915 101.400382,15.4929622 102.277485,15.7529545 C104.394481,16.3795005 105.894994,17.9292845 105.923567,20.2254409 Z M89.3607782,25.2616862 C89.0624939,25.2616862 88.8191909,25.0131901 88.8191909,24.7080971 L88.8191909,9.09838982 C88.8191909,8.79373899 89.0624939,8.54480079 89.3607782,8.54480079 L90.8846691,8.54480079 C91.1833863,8.54480079 91.4266893,8.79373899 91.4266893,9.09838982 L91.4266893,24.7080971 C91.4266893,25.0131901 91.1833863,25.2616862 90.8846691,25.2616862 L89.3607782,25.2616862 Z M84.5406075,11.8672193 C84.3825904,12.1258851 84.0475076,12.2050324 83.7942474,12.0440848 L83.4271282,11.8101802 L82.54483,11.3123038 C81.712751,10.9028601 80.829154,10.7003491 79.8888441,10.7003491 C78.8061023,10.7003491 77.8017197,10.9820075 76.8679037,11.5417868 C75.0608808,12.625088 73.7447933,14.5639761 73.7421957,16.8813564 C73.7452262,17.7617044 73.9227248,18.6049107 74.2950391,19.3999212 C74.6716826,20.2033327 75.2163004,20.8758638 75.8994537,21.4290107 C76.2938471,21.7482529 76.724606,22.0170885 77.1917305,22.2094297 C77.6913242,22.415478 78.2329116,22.5361887 78.7654075,22.6078193 C79.527353,22.7104013 80.3187372,22.7329516 81.0863106,22.7329516 L82.522318,22.7329516 L82.522318,16.8813564 C82.522318,16.5762634 82.765621,16.3277673 83.0643383,16.3277673 L84.5882291,16.3277673 C84.8869464,16.3277673 85.1302494,16.5762634 85.1302494,16.8813564 L85.1306823,24.7094236 C85.1306823,25.0140745 84.8873793,25.2630127 84.588662,25.2630127 L80.3568345,25.2630127 C79.4827618,25.2630127 78.5952686,25.2064157 77.7341837,25.0463524 C76.9969149,24.9097238 76.2752313,24.6886419 75.6024682,24.3495023 C74.9478878,24.019206 74.3517521,23.5876542 73.8101647,23.0893356 C72.9551407,22.3031684 72.3031579,21.3600331 71.8403626,20.2838065 C71.3749698,19.2013896 71.1342643,18.0632601 71.1342643,16.8813564 C71.1342643,15.3099064 71.5390478,13.8450178 72.3178773,12.490228 C73.0975726,11.1336696 74.1478451,10.041083 75.4721582,9.23722925 C76.7917091,8.43691284 78.2242531,8.02702703 79.7589671,8.02702703 C81.3538574,8.02702703 82.8643276,8.4068457 84.2583414,9.19920316 C84.3977428,9.27835048 84.5137663,9.36280375 84.6479726,9.44902569 L85.1744076,9.78418582 C85.4276679,9.94513343 85.5051612,10.2878103 85.3471441,10.5464761 L84.5406075,11.8672193 Z M66.1318328,25.2616862 C65.8331156,25.2616862 65.5898126,25.0131901 65.5898126,24.7080971 L65.5898126,9.09838982 C65.5898126,8.79373899 65.8331156,8.54480079 66.1318328,8.54480079 L67.6557237,8.54480079 C67.954008,8.54480079 68.197744,8.79373899 68.197744,9.09838982 L68.197744,24.7080971 C68.197744,25.0131901 67.954008,25.2616862 67.6557237,25.2616862 L66.1318328,25.2616862 Z M48.6486486,24.7094236 L48.6486486,9.09706333 C48.6486486,8.7924125 48.8919517,8.54391647 49.1906689,8.54391647 L53.3133998,8.54391647 C55.571096,8.54391647 57.858664,9.01791602 59.6578942,10.4885527 C60.2787066,10.9961567 60.8068733,11.5997102 61.2475895,12.2744521 C61.6960983,12.9615746 62.0502297,13.7035254 62.2900693,14.4927877 C62.5264456,15.2687851 62.6450667,16.0691015 62.6450667,16.8813564 C62.6450667,18.0632601 62.4043612,19.2013896 61.9389684,20.2838065 C61.4757402,21.3600331 60.8237573,22.3031684 59.9687333,23.0893356 C59.427146,23.5876542 58.8310103,24.019206 58.1768628,24.3495023 C57.5040996,24.6886419 56.7819832,24.9097238 56.0451473,25.0463524 C55.1836295,25.2064157 54.2965691,25.2630127 53.4220636,25.2630127 L49.1906689,25.2630127 C48.8919517,25.2630127 48.6486486,25.0140745 48.6486486,24.7094236 Z" id="Fill-55" fill="#100C0D"></path>
                <path d="M48,33.6621319 L48,28.1795247 L49.2906563,28.1795247 L49.2906563,30.7587395 L51.0293511,28.1795247 L52.5599371,28.1795247 L50.6131335,30.8646461 L52.8826011,33.6621319 L51.1439064,33.6621319 L49.2906563,31.0951868 L49.2906563,33.6621319 L48,33.6621319 Z M56.2848933,28 C56.8156662,28 57.3018898,28.1285087 57.7442005,28.3874634 C58.1865112,28.6444808 58.5352684,28.998364 58.7885629,29.4471758 C59.0437666,29.8959876 59.1704139,30.3874204 59.1704139,30.9247029 C59.1704139,31.4522989 59.0418574,31.9398571 58.7853808,32.3873773 C58.5289042,32.8361891 58.1795106,33.1900723 57.7391091,33.4509644 C57.2967984,33.7112106 56.8156662,33.8416566 56.2957124,33.8416566 C55.7783044,33.8416566 55.3016271,33.7112106 54.8605892,33.449027 C54.4195513,33.1868435 54.0695213,32.8290856 53.810499,32.3802738 C53.5521132,31.931462 53.4235567,31.4419666 53.4235567,30.9137248 C53.4235567,30.3906492 53.5521132,29.9069657 53.810499,29.4613828 C54.0695213,29.0138626 54.4195513,28.6599793 54.8605892,28.3958584 C55.3016271,28.1323833 55.7763951,28 56.2848933,28 Z M56.2848933,29.2889616 C55.995323,29.299294 55.7312094,29.378724 55.4919161,29.5246685 C55.2545321,29.6706131 55.0667887,29.8682194 54.9299588,30.1110298 C54.7924924,30.3557775 54.7250321,30.6231273 54.7250321,30.9156621 C54.7250321,31.3786809 54.8758632,31.7661443 55.1794348,32.0812812 C55.4836427,32.3964181 55.8546746,32.552695 56.2957124,32.552695 C56.5884649,32.552695 56.8576698,32.4823058 57.0988723,32.3415275 C57.3413477,32.2007491 57.5322732,32.0050801 57.6716488,31.7571035 C57.810388,31.5091269 57.8797576,31.2359652 57.8797576,30.9363268 C57.8797576,30.6425004 57.8084787,30.3699845 57.665921,30.116196 C57.5239997,29.8643448 57.3330743,29.662218 57.0956902,29.5123988 C56.8576698,29.3625796 56.6005568,29.2889616 56.3268969,29.2889616 L56.2848933,29.2889616 Z M63.5846111,30.2498708 L63.5846111,28.1795247 L64.8860865,28.1795247 L64.8860865,33.6621319 L63.5846111,33.6621319 L63.5846111,31.4225934 L61.2629572,31.4225934 L61.2629572,33.6621319 L59.9723009,33.6621319 L59.9723009,28.1795247 L61.2629572,28.1795247 L61.2629572,30.2498708 L63.5846111,30.2498708 Z M69.8100549,31.8765714 L71.2661799,31.8765714 C71.1758085,32.1232564 71.094347,32.3098846 71.0230681,32.4403306 C70.9536985,32.5707766 70.8582358,32.7057431 70.7347706,32.8484588 C70.4572923,33.1674703 70.1314461,33.412218 69.7578686,33.5846392 C69.3849274,33.7557689 68.994803,33.8416566 68.5906774,33.8416566 C68.0662687,33.8416566 67.5825908,33.7112106 67.1396437,33.449027 C66.6954237,33.1868435 66.3434844,32.8290856 66.0850986,32.3763992 C65.8267128,31.9243585 65.6981563,31.4329258 65.6981563,30.9033925 C65.6981563,30.3764422 65.8267128,29.8888841 66.0812801,29.443947 C66.3383931,28.9964267 66.6852411,28.6444808 67.1256425,28.3874634 C67.5666804,28.1285087 68.0439941,28 68.5588565,28 C68.8369713,28 69.1093583,28.0400379 69.3747448,28.1214052 C69.6401312,28.2021267 69.8902436,28.3183658 70.1263548,28.4720596 C70.3605567,28.6231703 70.5699383,28.8078612 70.7557724,29.0248407 C70.8773283,29.1669106 70.9747003,29.3063975 71.0453428,29.443947 C71.1166216,29.5795592 71.1898097,29.76425 71.2661799,29.9980196 L69.8100549,29.9980196 C69.6522231,29.7448769 69.4772081,29.5634148 69.2862826,29.4542793 C69.0934479,29.3432065 68.8541546,29.2889616 68.5696756,29.2889616 C68.2641948,29.2889616 67.9918078,29.3574135 67.7544238,29.4930257 C67.5164033,29.6299294 67.3324785,29.8223696 67.1988306,30.0671173 C67.0651828,30.3131565 66.9996317,30.5914844 66.9996317,30.904684 C66.9996317,31.3786809 67.1504628,31.7713105 67.4521251,32.0825728 C67.7556966,32.3964181 68.1343655,32.552695 68.5906774,32.552695 C69.1004485,32.552695 69.5064833,32.3273205 69.8100549,31.8765714 Z M73.1849811,29.3412692 L71.7899522,29.3412692 L71.7899522,28.1795247 L75.8814854,28.1795247 L75.8814854,29.3412692 L74.4756374,29.3412692 L74.4756374,33.6621319 L73.1849811,33.6621319 L73.1849811,29.3412692 Z M76.5376326,35.5 L76.5376326,28.1775874 L77.7239163,28.1775874 L77.7239163,28.8892285 C77.8613827,28.7077665 77.9791201,28.5721543 78.0777649,28.4843293 C78.1751369,28.3958584 78.2966928,28.3151369 78.4405233,28.2428104 C78.7370942,28.0807215 79.0877607,28 79.4937956,28 C79.868646,28 80.2193125,28.073618 80.5489771,28.2195626 C80.8786418,28.3680902 81.1663029,28.5740916 81.4125967,28.8414414 C81.6607999,29.1074996 81.8517254,29.4174703 81.9872825,29.7694162 C82.1228396,30.1213621 82.1902999,30.4997847 82.1902999,30.9033925 C82.1902999,31.4451955 82.0706533,31.9417944 81.8307236,32.3906062 C81.5914303,32.8400637 81.2636749,33.1952385 80.8474573,33.4541932 C80.4306033,33.7131479 79.9723822,33.8416566 79.4727938,33.8416566 C79.1227637,33.8416566 78.8102824,33.7783709 78.5340768,33.6511538 C78.3138761,33.5471844 78.0796742,33.3540985 77.8282889,33.0706044 L77.8282889,35.5 L76.5376326,35.5 Z M79.3690576,29.2889616 C79.0654861,29.2889616 78.7911898,29.358705 78.5448959,29.5014207 C78.2966928,29.6428448 78.103858,29.8398054 77.9632096,30.0916566 C77.8244704,30.3435078 77.7551008,30.6250646 77.7551008,30.9363268 C77.7551008,31.2340279 77.8231976,31.5052523 77.9581183,31.7538746 C78.0955846,32.0018512 78.2826916,32.1955829 78.5188028,32.3382986 C78.754914,32.4803685 79.0164819,32.552695 79.3047794,32.552695 C79.5981682,32.552695 79.8667367,32.4803685 80.1111213,32.334424 C80.3580516,32.1904167 80.55025,31.9915189 80.6889892,31.7409592 C80.830274,31.4910453 80.8996436,31.216592 80.8996436,30.9156621 C80.8996436,30.6250646 80.830274,30.3557775 80.6908984,30.1039263 C80.5521592,29.8540124 80.3650522,29.6570518 80.1289411,29.50917 C79.8928299,29.3625796 79.6395354,29.2889616 79.3690576,29.2889616 Z M83.4898661,35.5 L84.4890428,33.1442225 L82.5110547,28.1795247 L83.9773625,28.1795247 L85.2177417,31.6867143 L86.5211264,28.1795247 L87.9874341,28.1795247 L84.8829857,35.5 L83.4898661,35.5 Z M88.642945,33.6621319 L88.642945,28.1795247 L89.9342377,28.1795247 L89.9342377,30.7587395 L91.672296,28.1795247 L93.202882,28.1795247 L91.2560785,30.8646461 L93.5255461,33.6621319 L91.7868513,33.6621319 L89.9342377,31.0951868 L89.9342377,33.6621319 L88.642945,33.6621319 Z M95.3056081,29.3412692 L93.9105792,29.3412692 L93.9105792,28.1795247 L98.0021124,28.1795247 L98.0021124,29.3412692 L96.5969008,29.3412692 L96.5969008,33.6621319 L95.3056081,33.6621319 L95.3056081,29.3412692 Z M101.279667,28 C101.810439,28 102.296663,28.1285087 102.738974,28.3874634 C103.181284,28.6444808 103.530678,28.998364 103.783336,29.4471758 C104.03854,29.8959876 104.165187,30.3874204 104.165187,30.9247029 C104.165187,31.4522989 104.036631,31.9398571 103.780154,32.3873773 C103.523041,32.8361891 103.174284,33.1900723 102.733882,33.4509644 C102.291572,33.7112106 101.810439,33.8416566 101.290486,33.8416566 C100.773078,33.8416566 100.295764,33.7112106 99.8553624,33.449027 C99.4143246,33.1868435 99.0642945,32.8290856 98.8059087,32.3802738 C98.5468864,31.931462 98.4183299,31.4419666 98.4183299,30.9137248 C98.4183299,30.3906492 98.5468864,29.9069657 98.8059087,29.4613828 C99.0642945,29.0138626 99.4143246,28.6599793 99.8553624,28.3958584 C100.295764,28.1323833 100.771168,28 101.279667,28 Z M101.279667,29.2889616 C100.990096,29.299294 100.726619,29.378724 100.486689,29.5246685 C100.249305,29.6706131 100.061562,29.8682194 99.924732,30.1110298 C99.7879021,30.3557775 99.7198053,30.6231273 99.7198053,30.9156621 C99.7198053,31.3786809 99.8706365,31.7661443 100.174208,32.0812812 C100.478416,32.3964181 100.849448,32.552695 101.290486,32.552695 C101.583238,32.552695 101.852443,32.4823058 102.093646,32.3415275 C102.336121,32.2007491 102.527683,32.0050801 102.666422,31.7571035 C102.805161,31.5091269 102.874531,31.2359652 102.874531,30.9363268 C102.874531,30.6425004 102.803252,30.3699845 102.660694,30.116196 C102.518773,29.8643448 102.327847,29.662218 102.090463,29.5123988 C101.852443,29.3625796 101.595966,29.2889616 101.32167,29.2889616 L101.279667,29.2889616 Z M104.967074,35.5 L104.967074,28.1775874 L106.153994,28.1775874 L106.153994,28.8892285 C106.290824,28.7077665 106.408562,28.5721543 106.507843,28.4843293 C106.605215,28.3958584 106.726134,28.3151369 106.870601,28.2428104 C107.167172,28.0807215 107.517839,28 107.923874,28 C108.298724,28 108.648754,28.073618 108.978419,28.2195626 C109.308083,28.3680902 109.596381,28.5740916 109.842675,28.8414414 C110.090878,29.1074996 110.281167,29.4174703 110.416724,29.7694162 C110.552281,30.1213621 110.619741,30.4997847 110.619741,30.9033925 C110.619741,31.4451955 110.500095,31.9417944 110.260802,32.3906062 C110.021508,32.8400637 109.693116,33.1952385 109.276899,33.4541932 C108.860681,33.7131479 108.40246,33.8416566 107.902872,33.8416566 C107.552205,33.8416566 107.239724,33.7783709 106.964155,33.6511538 C106.743954,33.5471844 106.509752,33.3540985 106.25773,33.0706044 L106.25773,35.5 L104.967074,35.5 Z M107.798499,29.2889616 C107.494928,29.2889616 107.220631,29.358705 106.974337,29.5014207 C106.726134,29.6428448 106.533936,29.8398054 106.393288,30.0916566 C106.254548,30.3435078 106.185179,30.6250646 106.185179,30.9363268 C106.185179,31.2340279 106.252639,31.5052523 106.388196,31.7538746 C106.525026,32.0018512 106.712133,32.1955829 106.948244,32.3382986 C107.184355,32.4803685 107.44656,32.552695 107.734221,32.552695 C108.02761,32.552695 108.296815,32.4803685 108.541199,32.334424 C108.787493,32.1904167 108.980328,31.9915189 109.119067,31.7409592 C109.259716,31.4910453 109.329085,31.216592 109.329085,30.9156621 C109.329085,30.6250646 109.259716,30.3557775 109.120976,30.1039263 C108.982237,29.8540124 108.794494,29.6570518 108.558383,29.50917 C108.322908,29.3625796 108.069613,29.2889616 107.798499,29.2889616 Z M114.149317,33.6621319 L114.149317,28.1795247 L116.325231,28.1795247 L117.26013,31.6356983 L117.333318,31.6356983 L118.385954,28.1795247 L120.333394,28.1795247 L120.333394,33.6621319 L119.031918,33.6621319 L119.031918,29.4684863 L118.938365,29.4684863 L117.655982,33.6621319 L116.812728,33.6621319 L115.531618,29.4684863 L115.439974,29.4684863 L115.439974,33.6621319 L114.149317,33.6621319 Z M126.819133,28.1775874 L126.819133,33.6621319 L125.630303,33.6621319 L125.630303,32.9207853 C125.482654,33.0983727 125.359825,33.2288187 125.260544,33.310186 C125.15999,33.3928448 125.02316,33.4787326 124.851327,33.5652661 C124.509571,33.7499569 124.137902,33.8416566 123.737595,33.8416566 C123.241189,33.8416566 122.793787,33.7150852 122.394116,33.4612967 C121.995082,33.2075082 121.681328,32.8574996 121.454126,32.4086878 C121.226925,31.9611676 121.113643,31.4594024 121.113643,30.9033925 C121.113643,30.3680472 121.232016,29.8766144 121.4694,29.4329688 C121.707421,28.9873859 122.031358,28.6393146 122.44312,28.3835888 C122.852337,28.1285087 123.305467,28 123.798055,28 C124.197089,28 124.543937,28.0807215 124.841145,28.2428104 C125.000249,28.3235319 125.133897,28.4120028 125.241452,28.5088686 C125.349006,28.6057345 125.479472,28.751679 125.630303,28.9505769 L125.630303,28.1775874 L126.819133,28.1775874 Z M125.590209,30.9363268 C125.590209,30.6179611 125.524658,30.334467 125.392919,30.0826158 C125.262453,29.8327019 125.076619,29.6370329 124.839235,29.4981918 C124.601215,29.358705 124.330737,29.2889616 124.029075,29.2889616 C123.723594,29.2889616 123.446116,29.3606423 123.199185,29.503358 C122.952892,29.6460737 122.760693,29.8430343 122.621954,30.0948855 C122.484488,30.3467367 122.415118,30.6302308 122.415118,30.947305 C122.415118,31.2462976 122.484488,31.5213966 122.623227,31.7661443 C122.761966,32.0121836 122.954801,32.203978 123.197913,32.3434648 C123.442297,32.4823058 123.714684,32.552695 124.016346,32.552695 C124.316736,32.552695 124.585941,32.4823058 124.825234,32.3434648 C125.064527,32.2026864 125.252271,32.0089547 125.387191,31.7622697 C125.522749,31.5155846 125.590209,31.2411314 125.590209,30.9363268 Z M131.075498,28.1795247 L131.075498,29.3412692 L129.086691,29.3412692 L129.086691,33.6621319 L127.796035,33.6621319 L127.796035,28.1795247 L131.075498,28.1795247 Z M137.269757,28.1775874 L137.269757,33.6621319 L136.080928,33.6621319 L136.080928,32.9207853 C135.933279,33.0983727 135.81045,33.2288187 135.711169,33.310186 C135.610615,33.3928448 135.473785,33.4787326 135.301952,33.5652661 C134.960195,33.7499569 134.588527,33.8416566 134.187584,33.8416566 C133.691814,33.8416566 133.243775,33.7150852 132.844741,33.4612967 C132.445707,33.2075082 132.131953,32.8574996 131.904751,32.4086878 C131.676913,31.9611676 131.564267,31.4594024 131.564267,30.9033925 C131.564267,30.3680472 131.682641,29.8766144 131.920025,29.4329688 C132.158046,28.9873859 132.482619,28.6393146 132.893745,28.3835888 C133.302962,28.1285087 133.755456,28 134.24868,28 C134.647714,28 134.994562,28.0807215 135.291133,28.2428104 C135.450874,28.3235319 135.584522,28.4120028 135.692076,28.5088686 C135.799631,28.6057345 135.930097,28.751679 136.080928,28.9505769 L136.080928,28.1775874 L137.269757,28.1775874 Z M136.040834,30.9363268 C136.040834,30.6179611 135.975283,30.334467 135.843544,30.0826158 C135.713078,29.8327019 135.527244,29.6370329 135.28986,29.4981918 C135.05184,29.358705 134.781362,29.2889616 134.4797,29.2889616 C134.174219,29.2889616 133.896104,29.3606423 133.64981,29.503358 C133.403516,29.6460737 133.210682,29.8430343 133.072579,30.0948855 C132.935112,30.3467367 132.865743,30.6302308 132.865743,30.947305 C132.865743,31.2462976 132.935112,31.5213966 133.073852,31.7661443 C133.212591,32.0121836 133.405426,32.203978 133.648537,32.3434648 C133.892922,32.4823058 134.165309,32.552695 134.467608,32.552695 C134.767361,32.552695 135.036566,32.4823058 135.275859,32.3434648 C135.515152,32.2026864 135.702896,32.0089547 135.837816,31.7622697 C135.973373,31.5155846 136.040834,31.2411314 136.040834,30.9363268 Z M139.350209,31.8429912 C139.389667,32.3311951 139.64678,32.5740055 140.120275,32.5740055 C140.338566,32.5740055 140.5174,32.5087825 140.658048,32.3802738 C140.798697,32.2517651 140.869976,32.0864474 140.869976,31.8875495 C140.869976,31.4296969 140.529492,31.2010935 139.849797,31.2010935 C139.85107,31.2010935 139.768336,31.2075512 139.597776,31.2217582 L139.597776,30.3454452 C139.65569,30.3519029 139.717422,30.3557775 139.787428,30.3557775 C140.019721,30.3557775 140.201736,30.3099277 140.332202,30.2201653 C140.462032,30.130403 140.52631,30.0018943 140.52631,29.8378681 C140.52631,29.6777165 140.467123,29.5472705 140.349386,29.4491131 C140.231648,29.3483727 140.075089,29.299294 139.880982,29.299294 C139.485129,29.299294 139.275111,29.5001292 139.256019,29.9017996 L138.048733,29.9017996 L138.058916,29.7958929 L138.069099,29.6157224 C138.090101,29.2760462 138.213566,28.9596177 138.433766,28.6657913 C138.756431,28.2214999 139.280203,28 140.00572,28 C140.273015,28 140.515491,28.036809 140.736328,28.1130102 C140.956529,28.1885655 141.145545,28.2957637 141.303377,28.4346048 C141.461208,28.5740916 141.582764,28.7413467 141.668044,28.9383072 C141.753324,29.1339762 141.796601,29.35031 141.796601,29.5847253 C141.796601,29.8624074 141.730413,30.0897193 141.599947,30.2660152 C141.470118,30.4416652 141.262009,30.5811521 140.973712,30.6831841 C141.76478,30.8788531 142.160632,31.3470381 142.160632,32.0883847 C142.160632,32.4403306 142.075988,32.7503014 141.907337,33.0157138 C141.739323,33.281772 141.499393,33.4858361 141.188821,33.6324264 C140.880158,33.7783709 140.523128,33.851989 140.120275,33.851989 C139.717422,33.851989 139.358482,33.7693301 139.037727,33.6059497 C138.718245,33.4419235 138.468133,33.2133201 138.288027,32.9207853 C138.107284,32.6269588 138.017549,32.2956776 138.017549,31.9275874 L138.017549,31.8429912 L139.350209,31.8429912 Z M146.57292,28.1795247 L147.874395,28.1795247 L147.874395,33.6621319 L146.57292,33.6621319 L146.57292,29.9121319 L144.251266,33.6621319 L142.96061,33.6621319 L142.96061,28.1795247 L144.251266,28.1795247 L144.251266,31.9191924 L146.57292,28.1795247 Z M152.538705,30.2498708 L152.538705,28.1795247 L153.839544,28.1795247 L153.839544,33.6621319 L152.538705,33.6621319 L152.538705,31.4225934 L150.217051,31.4225934 L150.217051,33.6621319 L148.925758,33.6621319 L148.925758,28.1795247 L150.217051,28.1795247 L150.217051,30.2498708 L152.538705,30.2498708 Z M157.51295,28 C158.043723,28 158.529947,28.1285087 158.972258,28.3874634 C159.414568,28.6444808 159.763326,28.998364 160.01662,29.4471758 C160.271824,29.8959876 160.398471,30.3874204 160.398471,30.9247029 C160.398471,31.4522989 160.269914,31.9398571 160.013438,32.3873773 C159.756325,32.8361891 159.407568,33.1900723 158.967166,33.4509644 C158.524856,33.7112106 158.043723,33.8416566 157.523133,33.8416566 C157.006361,33.8416566 156.529048,33.7112106 156.088646,33.449027 C155.647608,33.1868435 155.296942,32.8290856 155.038556,32.3802738 C154.78017,31.931462 154.651614,31.4419666 154.651614,30.9137248 C154.651614,30.3906492 154.78017,29.9069657 155.038556,29.4613828 C155.296942,29.0138626 155.647608,28.6599793 156.088646,28.3958584 C156.529048,28.1323833 157.004452,28 157.51295,28 Z M157.51295,29.2889616 C157.22338,29.299294 156.959267,29.378724 156.719973,29.5246685 C156.482589,29.6706131 156.294846,29.8682194 156.158016,30.1110298 C156.02055,30.3557775 155.953089,30.6231273 155.953089,30.9156621 C155.953089,31.3786809 156.10392,31.7661443 156.408128,32.0812812 C156.7117,32.3964181 157.082732,32.552695 157.523133,32.552695 C157.816522,32.552695 158.085727,32.4823058 158.326929,32.3415275 C158.569405,32.2007491 158.76033,32.0050801 158.899706,31.7571035 C159.038445,31.5091269 159.107815,31.2359652 159.107815,30.9363268 C159.107815,30.6425004 159.036536,30.3699845 158.893978,30.116196 C158.752057,29.8643448 158.561131,29.662218 158.323111,29.5123988 C158.085727,29.3625796 157.828614,29.2889616 157.554954,29.2889616 L157.51295,29.2889616 Z M161.200358,33.6621319 L161.200358,28.1795247 L162.655847,28.1795247 C163.268717,28.1795247 163.642931,28.1866282 163.781671,28.2008352 C164.0146,28.2286034 164.226527,28.2886602 164.416816,28.3803599 C164.645927,28.5017651 164.829852,28.6774152 164.968591,28.9086017 C165.107966,29.1372051 165.177336,29.3800155 165.177336,29.6357413 C165.177336,30.0018943 165.069145,30.283451 164.854035,30.4823489 C164.774483,30.5630704 164.635744,30.6405631 164.437818,30.7148269 C164.604559,30.7484071 164.731207,30.7832788 164.821578,30.8207336 C165.027778,30.904684 165.19261,31.0564405 165.316075,31.2727742 C165.438904,31.489108 165.5,31.7345015 165.5,32.0037885 C165.5,32.538488 165.281072,32.9718013 164.841943,33.3030825 C164.502096,33.542664 164.004417,33.6621319 163.345088,33.6621319 L161.200358,33.6621319 Z M162.45983,32.4894093 L163.530285,32.4894093 C163.558288,32.4894093 163.620657,32.4823058 163.719302,32.4687446 C163.879043,32.4383933 164.007599,32.3699414 164.099243,32.2659721 C164.193433,32.1620028 164.239892,32.0334941 164.239892,31.8785087 C164.239892,31.7538746 164.198525,31.6376356 164.113245,31.5297916 C164.03051,31.4206561 163.921046,31.3470381 163.787398,31.3044171 C163.653751,31.2643792 163.453915,31.2430687 163.18662,31.2430687 L162.45983,31.2430687 L162.45983,32.4894093 Z M162.45983,30.3454452 L163.334269,30.3454452 C163.495919,30.3454452 163.627657,30.2989495 163.73203,30.2078956 C163.835766,30.1181333 163.886043,29.9967281 163.886043,29.8469089 C163.886043,29.7235664 163.851677,29.611202 163.781671,29.50917 C163.738394,29.466549 163.672843,29.4278027 163.584381,29.3922852 C163.532195,29.3716205 163.455824,29.3535388 163.35527,29.3412692 L162.45983,29.3412692 L162.45983,30.3454452 Z" id="Fill-56" fill="#6D6E70"></path>
                <g id="Group">
                    <path d="M31.4539723,30.4054054 C30.0175756,30.4054054 28.853457,31.6037155 28.853457,33.0813041 C28.853457,34.5588928 30.0175756,35.7567568 31.4539723,35.7567568 C32.8899354,35.7567568 34.0540541,34.5588928 34.0540541,33.0813041 C34.0540541,31.6037155 32.8899354,30.4054054 31.4539723,30.4054054 Z M14.0325142,30.4054054 C12.5965511,30.4054054 11.4324324,31.6037155 11.4324324,33.0813041 C11.4324324,34.5588928 12.5965511,35.7567568 14.0325142,35.7567568 C15.4689108,35.7567568 16.6330295,34.5588928 16.6330295,33.0813041 C16.6330295,31.6037155 15.4689108,30.4054054 14.0325142,30.4054054 Z" id="Fill-57" fill="#6E6F6F"></path>
                    <path d="M30.4358517,24.2328305 C30.5523301,24.7028672 30.2700107,25.1794747 29.804963,25.2973124 C29.3403483,25.4151501 28.8692386,25.129536 28.7531931,24.6594994 C28.6367147,24.1890247 28.9190342,23.7124172 29.3836488,23.5945795 C29.8482635,23.4771798 30.3193733,23.7627939 30.4358517,24.2328305 Z M16.4896171,24.2328305 C16.6060955,24.7028672 16.3242091,25.1794747 15.8591614,25.2973124 C15.3945467,25.4151501 14.9234369,25.129536 14.8069585,24.6594994 C14.6904801,24.1890247 14.9727995,23.7124172 15.4374142,23.5945795 C15.9020289,23.4771798 16.3731387,23.7627939 16.4896171,24.2328305 Z M31.8790584,23.8670518 C32.1951522,25.1435539 31.4287329,26.4375784 30.1669554,26.757361 C28.905178,27.0771436 27.6260803,26.3017803 27.3099865,25.0252782 C26.9934596,23.748776 27.760312,22.4547516 29.0216564,22.1345309 C30.2834339,21.8147483 31.5629645,22.5905497 31.8790584,23.8670518 Z M17.9328238,23.8670518 C18.2493506,25.1435539 17.4824983,26.4375784 16.2207208,26.757361 C14.9589434,27.0771436 13.6798457,26.3017803 13.3637519,25.0252782 C13.047658,23.748776 13.8140774,22.4547516 15.0758548,22.1345309 C16.3376322,21.8147483 17.6167299,22.5905497 17.9328238,23.8670518 Z M22.6214051,22.412698 C21.5116125,22.412698 20.6113945,23.3229833 20.6113945,24.4457269 C20.6113945,25.5689086 21.5116125,26.4791939 22.6214051,26.4791939 C23.7316307,26.4791939 24.6314157,25.5689086 24.6314157,24.4457269 C24.6314157,23.3229833 23.7316307,22.412698 22.6214051,22.412698 Z M19.1348465,20.9189189 L15.6482878,20.9189189 C13.7309404,20.9189189 12.1621622,22.5060044 12.1621622,24.4457269 C12.1621622,26.3858875 13.7309404,27.972973 15.6482878,27.972973 L29.5945224,27.972973 C31.5118699,27.972973 33.0810811,26.3858875 33.0810811,24.4457269 C33.0810811,22.5060044 31.5118699,20.9189189 29.5945224,20.9189189 L19.1348465,20.9189189 Z" id="Fill-58" fill="#3488D2"></path>
                    <path d="M3.46621622,0 L10.3986486,0 C12.3048093,0 13.8648649,1.58742498 13.8648649,3.52702703 C13.8648649,5.4670671 12.3048093,7.05405405 10.3986486,7.05405405 L3.46621622,7.05405405 C1.55962511,7.05405405 0,5.4670671 0,3.52702703 C0,1.58742498 1.55962511,0 3.46621622,0 Z M12.6698554,2.94794981 C12.984105,4.22437266 12.2221573,5.51831675 10.9677418,5.83851754 C9.71332622,6.1582803 8.44169151,5.38252709 8.1274419,4.10610424 C7.81276181,2.83011943 8.57513997,1.5357373 9.82955552,1.21597454 C11.0839711,0.896211786 12.3556058,1.67152697 12.6698554,2.94794981 Z M11.2350692,3.31370584 C11.350868,3.78415133 11.0701958,4.26072925 10.6082919,4.3781216 C10.146388,4.49595199 9.67759647,4.21035566 9.56222812,3.74034821 C9.44642929,3.27034076 9.72710154,2.79376284 10.1890054,2.67593245 C10.6509093,2.55810207 11.1192704,2.84369839 11.2350692,3.31370584 Z M3.46621622,1.49368631 C2.36246828,1.49368631 1.4679331,2.40435312 1.4679331,3.52702703 C1.4679331,4.65013896 2.36246828,5.56036774 3.46621622,5.56036774 C4.56953367,5.56036774 5.46449934,4.65013896 5.46449934,3.52702703 C5.46449934,2.40435312 4.56953367,1.49368631 3.46621622,1.49368631 Z" id="Fill-60" fill="#67C23F"></path>
                    <path d="M13.9289152,2.94427557 L13.8893303,2.67567568 L14.88885,6.73549698 L12.1975044,6.73549698 C10.2918339,6.73549698 8.73253149,8.33080421 8.73253149,10.2805752 C8.73253149,12.2307866 10.2918339,13.8265341 12.1975044,13.8265341 L16.6249937,13.8265341 L18.2432432,20.4340914 L15.5394198,20.4340914 C13.6341795,20.4340914 12.0753074,22.0293987 12.0753074,23.9791697 C12.0753074,25.101565 12.5912025,26.1059524 13.3923672,26.7567568 C12.8115012,26.2878078 12.3717642,25.6281969 12.1790028,24.8413313 L7.78378378,6.890052 L10.4871769,6.890052 C12.3924172,6.890052 13.9517196,5.29474478 13.9517196,3.34453344 C13.9517196,3.20935284 13.9435444,3.07549322 13.9289152,2.94427557 Z M15.7928495,16.7335775 C16.0604781,17.8286725 15.4107688,18.9387386 14.3406846,19.2130628 C13.2710307,19.4873869 12.1863174,18.8220518 11.9182585,17.7273971 C11.6497694,16.6323022 12.2999089,15.5222361 13.3699931,15.2479119 C14.4400772,14.9735878 15.5243603,15.6389229 15.7928495,16.7335775 Z" id="Fill-61" fill="#6E6F6F"></path>
                    <path d="M28.7498543,13.7059875 L27,20.3486794 L29.6889704,20.3486794 C31.6159425,20.3486794 33.1930309,21.9524695 33.1930309,23.912608 C33.1930309,25.071073 32.6425295,26.1047052 31.7943659,26.7567568 C32.4001349,26.2946103 32.8636004,25.6323773 33.0733567,24.835573 L36.7010079,11.0641386 C36.7114522,11.024741 36.7210262,10.9853435 36.7297297,10.9459459 C36.3689664,12.5222905 34.9720422,13.7059875 33.3166217,13.7059875 L28.7498543,13.7059875 Z M29.5514539,16.62539 C29.2629303,17.7214386 29.902208,18.8480313 30.979711,19.1419636 C32.0576491,19.4354532 33.1651794,18.7851723 33.4541382,17.6891237 C33.7426618,16.5926325 33.1029488,15.4660397 32.0254459,15.1725501 C30.9479429,14.8786179 29.8404126,15.5293414 29.5514539,16.62539 Z" id="Fill-62" fill="#6E6F6F"></path>
                    <path d="M15.6892968,7.2972973 L12.2234573,7.2972973 C10.3168366,7.2972973 8.75675676,8.88428425 8.75675676,10.8238863 C8.75675676,12.7639264 10.3168366,14.3513514 12.2234573,14.3513514 L33.0206469,14.3513514 C34.9268372,14.3513514 36.4864865,12.7639264 36.4864865,10.8238863 C36.4864865,8.88428425 34.9268372,7.2972973 33.0206469,7.2972973 L15.6892968,7.2972973 Z M35.291889,10.2448091 C35.6061434,11.52167 34.8441839,12.815614 33.5897489,13.1353768 C32.3353139,13.4551396 31.0636594,12.6798244 30.7489744,11.4034015 C30.43472,10.1269787 31.19711,8.8330346 32.451545,8.51283381 C33.70598,8.19307105 34.9776345,8.96882426 35.291889,10.2448091 Z M14.4684397,10.187427 C14.7826941,11.4638498 14.0207346,12.7577939 12.7662996,13.0775567 C11.5118646,13.3973195 10.2402101,12.6220043 9.92595564,11.3455814 C9.61127067,10.0691586 10.3736607,8.77521448 11.6280957,8.45545173 C12.8825307,8.13568897 14.1541852,8.91100415 14.4684397,10.187427 Z M19.1555668,8.79098361 C18.0518018,8.79098361 17.1572527,9.70121239 17.1572527,10.8238863 C17.1572527,11.9469982 18.0518018,12.857227 19.1555668,12.857227 C20.2593319,12.857227 21.153881,11.9469982 21.153881,10.8238863 C21.153881,9.70121239 20.2593319,8.79098361 19.1555668,8.79098361 Z M26.0881069,8.79098361 C24.9843418,8.79098361 24.0897928,9.70121239 24.0897928,10.8238863 C24.0897928,11.9469982 24.9843418,12.857227 26.0881069,12.857227 C27.1914415,12.857227 28.0859905,11.9469982 28.0859905,10.8238863 C28.0859905,9.70121239 27.1914415,8.79098361 26.0881069,8.79098361 Z M13.0336312,10.553183 C13.1494318,11.0231905 12.8687552,11.4997684 12.4068441,11.6175988 C11.9449331,11.7354292 11.4765648,11.4498328 11.3607641,10.9798254 C11.2449635,10.5093799 11.5256401,10.03324 11.9875512,9.91540963 C12.4494622,9.79757925 12.9178305,10.0831756 13.0336312,10.553183 Z M33.8570805,10.6110031 C33.9728811,11.0810106 33.6922045,11.5575885 33.2302934,11.6754189 C32.7679519,11.7932493 32.3000141,11.507653 32.1842134,11.0376455 C32.0679823,10.5672 32.3486589,10.0910601 32.8110005,9.97279172 C33.2729115,9.85496133 33.7412798,10.1405577 33.8570805,10.6110031 Z" id="Fill-59" fill="#E71C0F"></path>
                </g>
            </g>
        </g>
    </g>
</svg>