<?xml version="1.0" encoding="UTF-8"?>
<svg width="20px" height="21px" viewBox="0 0 20 21" version="1.1" xmlns="http://www.w3.org/2000/svg" xmlns:xlink="http://www.w3.org/1999/xlink">
    <title>4C2EFAD5-EF2C-4B23-A98D-3709DE1F3695</title>
    <g id="Pay" stroke="none" stroke-width="1" fill="none" fill-rule="evenodd">
        <g id="PayCheck-Copy-15" transform="translate(-312.000000, -765.000000)">
            <g id="Group-13" transform="translate(312.000000, 765.500000)">
                <circle id="Oval" fill="#E1F5FF" cx="10" cy="10" r="10"></circle>
                <path d="M10,4 C10.5522847,4 11,4.44771525 11,5 L11,9 L15,9 C15.5522847,9 16,9.44771525 16,10 C16,10.5522847 15.5522847,11 15,11 L11,11 L11,15 C11,15.5522847 10.5522847,16 10,16 C9.44771525,16 9,15.5522847 9,15 L9,11 L5,11 C4.44771525,11 4,10.5522847 4,10 C4,9.44771525 4.44771525,9 5,9 L9,9 L9,5 C9,4.44771525 9.44771525,4 10,4 Z" id="Combined-Shape" fill="#2C97DE"></path>
            </g>
        </g>
    </g>
</svg>