<?xml version="1.0" encoding="UTF-8"?>
<svg width="20px" height="21px" viewBox="0 0 20 21" version="1.1" xmlns="http://www.w3.org/2000/svg" xmlns:xlink="http://www.w3.org/1999/xlink">
    <title>958B2EBC-56CF-47FC-A288-1685575931CB</title>
    <g id="Pay" stroke="none" stroke-width="1" fill="none" fill-rule="evenodd">
        <g id="PayCheck-Copy-15" transform="translate(-215.000000, -765.000000)">
            <g id="Group-15" transform="translate(215.000000, 765.500000)">
                <circle id="Oval-Copy" fill="#E1F5FF" cx="10" cy="10" r="10"></circle>
                <path d="M14,11 C14.5522847,11 15,11.4477153 15,12 C15,12.5522847 14.5522847,13 14,13 L6,13 C5.44771525,13 5,12.5522847 5,12 C5,11.4477153 5.44771525,11 6,11 L14,11 Z M14,7 C14.5522847,7 15,7.44771525 15,8 C15,8.55228475 14.5522847,9 14,9 L6,9 C5.44771525,9 5,8.55228475 5,8 C5,7.44771525 5.44771525,7 6,7 L14,7 Z" id="Shape" fill="#2C97DE"></path>
            </g>
        </g>
    </g>
</svg>