<?xml version="1.0" encoding="UTF-8"?>
<svg width="16px" height="12px" viewBox="0 0 16 12" version="1.1" xmlns="http://www.w3.org/2000/svg" xmlns:xlink="http://www.w3.org/1999/xlink">
    <!-- Generator: Sketch 48.2 (47327) - http://www.bohemiancoding.com/sketch -->
    <title>visibility</title>
    <desc>Created with Sketch.</desc>
    <defs></defs>
    <g id="Artboard-3" stroke="none" stroke-width="1"  transform="translate(-271.000000, -284.000000)">
        <g id="visibility" transform="translate(271.000000, 284.000000)">
            <path d="M7.98474854,1.33093177 C3.88541131,1.33093177 0.232545809,5.59195322 0.0788460039,5.77359844 C-0.0262923977,5.89735673 -0.0262923977,6.07900195 0.0788460039,6.2034152 C0.170666667,6.31185965 1.51338791,7.87081481 3.44960624,9.11238986 L5.53487719,7.02711891 C5.3991423,6.70774269 5.32329045,6.35708382 5.32329045,5.98849123 C5.32329045,4.52070175 6.51695906,3.32703314 7.98474854,3.32703314 C8.35337232,3.32703314 8.704,3.40288499 9.02337622,3.53861988 L10.7380273,1.82396881 C9.90231579,1.52520858 8.98479532,1.33093177 7.98474854,1.33093177 Z" id="Shape"></path>
            <path d="M15.9099259,5.7988616 C15.8247485,5.67575828 14.4121949,3.68764133 12.0374893,2.40614425 L13.8758986,0.567734893 C14.0056452,0.437988304 14.0056452,0.22705653 13.8758986,0.0973099415 C13.746152,-0.0324366472 13.5352203,-0.0324366472 13.4054737,0.0973099415 L2.09425341,11.4085926 C1.96450682,11.5383392 1.96450682,11.749271 2.09425341,11.8790175 C2.15878363,11.9442339 2.24396101,11.9768265 2.3291384,11.9768265 C2.41431579,11.9768265 2.49946199,11.9442339 2.56467836,11.8796725 L4.65060429,9.79374659 C5.67859649,10.295423 6.81238207,10.6460819 7.98474854,10.6460819 C12.0840858,10.6460819 15.7369513,6.38506043 15.8906511,6.2034152 C15.9871189,6.0882963 15.9957583,5.92261988 15.9099259,5.7988616 Z M7.98474854,8.64998051 C7.37060429,8.64998051 6.81238207,8.43240546 6.36126316,8.08243275 L10.0786589,4.36503704 C10.4286316,4.81615595 10.6462066,5.37440936 10.6462066,5.98852242 C10.6462066,7.45631189 9.45253801,8.64998051 7.98474854,8.64998051 Z" id="Shape"></path>
        </g>
    </g>
</svg>