<?xml version="1.0" encoding="UTF-8" ?>
<!DOCTYPE svg PUBLIC "-//W3C//DTD SVG 1.1//EN" "http://www.w3.org/Graphics/SVG/1.1/DTD/svg11.dtd">
<svg width="1125pt" height="417pt" viewBox="0 0 1125 417" version="1.1" xmlns="http://www.w3.org/2000/svg">
<g id="#121011ff">
<path fill="#121011" opacity="1.00" d=" M 187.47 112.47 C 210.56 94.88 240.00 85.97 268.97 87.72 C 293.05 88.96 316.72 97.46 336.01 111.95 C 359.11 129.06 375.96 154.40 382.56 182.39 C 388.88 208.55 386.41 236.78 375.49 261.39 C 361.97 292.32 335.22 317.18 303.32 328.26 C 300.45 329.10 296.86 329.73 294.39 327.60 C 292.50 325.59 292.84 322.57 292.67 320.04 C 292.70 312.03 292.74 304.02 292.75 296.00 C 292.74 289.87 293.10 283.59 291.31 277.65 C 290.08 273.35 287.51 269.65 285.04 265.99 C 296.81 264.16 308.90 261.73 318.96 255.00 C 329.66 248.06 336.58 236.33 339.01 223.95 C 341.62 210.45 342.44 195.64 335.91 183.08 C 334.03 179.01 330.76 175.76 328.87 171.72 C 328.88 168.38 330.08 165.18 330.41 161.86 C 331.47 153.99 329.55 146.12 326.93 138.74 C 315.80 138.50 305.72 143.88 296.59 149.66 C 294.46 151.23 291.79 151.69 289.26 150.89 C 271.75 146.58 253.21 146.55 235.68 150.75 C 233.14 151.45 230.35 151.56 228.13 149.92 C 218.76 144.13 208.51 138.41 197.12 138.81 C 194.64 146.23 192.73 154.11 193.85 161.98 C 194.18 165.24 195.32 168.40 195.37 171.69 C 193.45 175.82 190.07 179.09 188.17 183.25 C 181.83 195.75 182.48 210.40 185.14 223.78 C 187.77 236.84 195.23 249.30 206.91 256.13 C 216.60 262.07 227.93 264.35 239.03 265.98 C 236.47 269.64 234.16 273.54 232.96 277.88 C 232.11 279.89 231.98 282.78 229.60 283.63 C 221.26 287.02 210.86 287.16 203.42 281.56 C 197.11 277.08 194.69 269.07 188.49 264.48 C 183.89 260.89 177.42 258.26 171.72 260.74 C 170.39 262.02 171.92 263.21 172.78 264.19 C 175.80 267.18 179.68 269.21 182.43 272.52 C 186.40 276.98 188.40 282.70 191.21 287.88 C 195.05 294.92 202.65 299.19 210.36 300.59 C 217.30 301.94 224.36 300.81 231.29 299.95 C 231.51 306.98 231.60 314.02 231.49 321.06 C 231.33 323.50 231.38 326.60 229.04 328.08 C 226.55 329.63 223.43 328.96 220.79 328.20 C 186.45 316.32 158.15 288.34 145.82 254.16 C 137.40 231.42 135.95 206.17 141.57 182.59 C 148.07 154.79 164.69 129.63 187.47 112.47 Z" />
<path fill="#121011" opacity="1.00" d=" M 447.36 145.33 C 458.85 134.95 474.91 131.54 490.01 131.70 C 500.89 131.74 511.90 132.54 522.37 135.68 C 524.94 136.54 527.67 137.36 529.71 139.22 C 531.14 140.43 530.20 142.41 530.07 143.96 C 528.29 151.26 526.93 158.70 524.31 165.77 C 511.99 161.75 498.79 160.10 485.91 161.93 C 478.04 163.12 470.26 167.00 465.76 173.76 C 459.14 183.45 458.02 195.61 457.73 207.02 C 457.81 218.21 458.74 229.91 464.11 239.96 C 467.40 246.24 473.30 251.16 480.23 252.85 C 488.37 254.88 496.87 254.00 505.09 252.91 C 505.40 243.36 505.37 233.80 505.11 224.25 C 498.41 224.28 491.71 224.39 485.02 224.00 C 484.63 214.87 484.31 205.68 485.26 196.57 C 499.18 196.25 513.10 196.62 527.02 196.38 C 529.97 196.42 533.03 196.16 535.88 197.12 C 537.07 200.96 536.49 205.05 536.58 209.01 C 536.53 227.69 536.48 246.37 536.63 265.06 C 536.55 267.36 536.72 269.76 535.91 271.96 C 533.58 274.54 530.14 275.71 527.05 277.12 C 509.89 284.35 490.54 284.99 472.42 281.49 C 458.64 278.82 445.57 271.12 437.92 259.14 C 431.23 249.03 428.19 236.96 426.87 225.04 C 425.44 211.14 425.81 197.02 428.22 183.25 C 430.79 169.18 436.39 154.97 447.36 145.33 Z" />
<path fill="#121011" opacity="1.00" d=" M 673.42 141.99 C 673.53 140.20 673.53 136.98 676.14 137.36 C 685.59 137.07 695.06 137.19 704.52 137.47 C 705.12 155.22 704.38 172.98 704.89 190.73 C 718.50 190.73 732.11 190.75 745.72 190.72 C 746.04 172.95 745.14 155.15 746.17 137.41 C 756.33 137.18 766.49 137.13 776.65 137.44 C 777.31 145.95 776.91 154.48 776.99 163.00 C 777.00 195.00 777.00 227.00 776.99 259.00 C 776.99 266.17 777.22 273.35 776.64 280.51 C 766.39 280.74 756.07 281.23 745.85 280.20 C 745.56 259.83 745.80 239.46 745.75 219.09 C 732.11 218.91 718.46 218.98 704.83 219.05 C 704.57 239.41 704.86 259.79 704.70 280.16 C 697.83 281.08 690.90 280.68 684.00 280.79 C 680.87 280.76 677.70 280.95 674.62 280.34 C 673.08 278.26 673.51 275.48 673.37 273.06 C 673.55 229.37 673.44 185.67 673.42 141.99 Z" />
<path fill="#121011" opacity="1.00" d=" M 893.49 137.48 C 903.80 137.12 914.12 137.12 924.43 137.48 C 924.81 153.51 924.24 169.54 924.72 185.56 C 936.05 180.63 948.82 177.82 961.03 181.05 C 970.40 183.29 978.11 190.48 981.81 199.27 C 987.48 212.77 987.25 227.79 986.21 242.13 C 985.06 253.78 982.65 266.43 974.04 275.02 C 965.62 283.17 953.03 284.05 941.97 283.00 C 933.12 282.24 924.87 278.58 917.40 273.93 C 916.76 276.12 916.13 278.30 915.49 280.48 C 908.19 280.91 900.88 280.93 893.60 280.39 C 892.93 270.94 893.38 261.46 893.27 252.00 C 893.27 221.00 893.26 190.00 893.27 159.00 C 893.27 151.83 893.11 144.65 893.49 137.48 M 923.98 209.80 C 924.08 224.51 923.83 239.22 924.12 253.92 C 931.41 257.12 939.86 259.55 947.68 256.78 C 952.99 254.60 954.58 248.41 955.25 243.26 C 956.12 234.69 956.58 225.87 954.60 217.42 C 953.45 212.44 950.37 207.38 945.18 205.93 C 937.93 203.95 930.39 206.41 923.98 209.80 Z" />
<path fill="#121011" opacity="1.00" d=" M 564.45 140.54 C 574.27 138.64 584.25 147.02 584.28 156.97 C 585.03 166.51 576.62 175.59 566.99 175.16 C 557.46 175.41 549.06 166.52 549.89 157.01 C 549.98 148.96 556.48 141.62 564.45 140.54 Z" />
<path fill="#121011" opacity="1.00" d=" M 608.14 154.93 C 618.31 154.63 628.51 154.50 638.69 155.04 C 638.86 164.27 638.53 173.51 638.89 182.74 C 646.03 182.74 653.18 182.71 660.32 182.75 C 661.07 191.32 660.81 199.94 660.51 208.52 C 653.29 208.87 646.06 208.66 638.84 208.82 C 638.59 220.55 638.82 232.28 638.67 244.01 C 638.64 248.24 638.80 253.60 643.04 255.91 C 648.53 258.87 655.05 257.32 661.02 257.79 C 661.16 264.76 661.93 271.82 660.83 278.74 C 660.58 280.84 658.16 280.99 656.58 281.58 C 647.71 283.78 638.28 283.85 629.40 281.64 C 622.99 280.04 616.90 276.41 613.28 270.77 C 609.12 264.36 608.08 256.53 608.00 249.04 C 607.93 235.64 608.10 222.24 607.95 208.83 C 602.75 208.76 597.55 208.74 592.35 208.52 C 591.80 201.48 591.81 194.41 592.27 187.37 C 597.44 186.07 602.62 184.78 607.83 183.64 C 608.25 174.07 607.77 164.50 608.14 154.93 Z" />
<path fill="#121011" opacity="1.00" d=" M 551.42 183.17 C 561.73 182.48 572.13 182.36 582.43 183.26 C 582.75 212.18 582.38 241.10 582.61 270.02 C 582.65 273.51 582.37 276.99 581.79 280.43 C 574.51 280.62 567.23 280.53 559.96 280.63 C 557.33 280.59 554.64 280.69 552.10 279.91 C 551.11 277.41 551.22 274.67 551.18 272.04 C 551.48 242.41 551.01 212.79 551.42 183.17 Z" />
<path fill="#121011" opacity="1.00" d=" M 789.99 183.08 C 800.23 182.54 810.52 182.46 820.77 183.11 C 821.35 203.76 820.77 224.43 821.03 245.08 C 821.19 249.36 821.83 254.74 826.21 256.79 C 830.83 258.80 836.14 258.12 840.89 256.89 C 843.67 255.97 846.78 255.07 848.72 252.72 C 849.46 247.52 848.89 242.23 849.00 237.00 C 849.15 219.04 848.69 201.06 849.23 183.11 C 859.39 182.48 869.60 182.48 879.76 183.11 C 880.32 207.06 879.84 231.04 879.99 255.00 C 879.91 263.50 880.31 272.01 879.64 280.50 C 872.76 280.87 865.85 281.01 858.99 280.29 C 858.51 278.30 858.04 276.32 857.58 274.34 C 847.91 279.70 837.19 283.64 825.99 283.50 C 816.03 283.40 804.81 282.05 797.60 274.40 C 790.74 267.13 789.62 256.54 789.70 247.00 C 789.93 225.69 789.37 204.38 789.99 183.08 Z" />
<path fill="#121011" opacity="1.00" d=" M 181.73 263.56 C 182.49 263.50 184.02 263.39 184.79 263.33 C 184.72 264.06 184.59 265.53 184.53 266.27 C 183.59 265.37 182.66 264.47 181.73 263.56 Z" />
<path fill="#121011" opacity="1.00" d=" M 186.94 268.15 C 187.70 268.13 189.24 268.07 190.01 268.04 C 190.04 268.82 190.09 270.39 190.12 271.17 C 189.53 270.95 188.34 270.51 187.75 270.28 C 187.55 269.75 187.14 268.69 186.94 268.15 Z" />
<path fill="#121011" opacity="1.00" d=" M 191.27 273.94 C 192.71 274.08 194.15 274.23 195.59 274.39 C 195.61 275.79 195.62 277.20 195.64 278.61 C 193.34 277.92 191.95 276.18 191.27 273.94 Z" />
<path fill="#121011" opacity="1.00" d=" M 196.59 280.88 C 198.42 281.17 200.49 280.97 202.02 282.21 C 201.83 283.72 201.48 285.19 201.16 286.68 C 199.38 284.96 197.84 283.01 196.59 280.88 Z" />
<path fill="#121011" opacity="1.00" d=" M 205.53 286.24 C 207.20 286.26 208.88 286.31 210.55 286.36 C 210.70 287.73 210.84 289.11 210.98 290.49 C 208.29 290.18 205.84 289.26 205.53 286.24 Z" />
<path fill="#121011" opacity="1.00" d=" M 226.82 286.81 C 228.36 286.62 229.92 286.81 231.47 286.91 C 230.72 288.00 230.03 289.15 229.15 290.16 C 227.60 290.39 226.03 290.17 224.48 290.10 C 225.23 288.97 225.92 287.81 226.82 286.81 Z" />
<path fill="#121011" opacity="1.00" d=" M 216.14 287.91 C 217.71 287.90 219.28 287.90 220.86 287.91 C 220.90 288.76 220.99 290.46 221.03 291.31 C 219.34 291.32 217.65 291.32 215.97 291.31 C 216.01 290.46 216.10 288.76 216.14 287.91 Z" />
</g>
</svg>
