<?xml version="1.0" encoding="UTF-8" ?>
<!DOCTYPE svg PUBLIC "-//W3C//DTD SVG 1.1//EN" "http://www.w3.org/Graphics/SVG/1.1/DTD/svg11.dtd">
<svg width="16pt" height="16pt" viewBox="0 0 16 16" version="1.1" xmlns="http://www.w3.org/2000/svg">
<g id="#2c97deff">
<path fill="#2c97de" opacity="1.00" d=" M 9.00 0.00 L 15.28 0.00 L 15.28 0.72 L 16.00 0.72 L 16.00 7.00 C 15.50 7.00 14.50 7.00 14.00 7.00 C 14.00 6.25 14.00 4.75 14.00 4.00 L 12.87 4.03 L 12.96 5.09 L 12.16 5.09 C 12.16 5.55 12.16 6.46 12.16 6.91 L 12.97 6.92 C 12.98 9.69 12.95 12.46 12.88 15.22 L 12.23 15.24 L 12.14 16.00 L 0.72 16.00 L 0.72 15.28 L 0.00 15.28 L 0.00 3.87 L 0.76 3.77 L 0.77 3.11 C 3.88 2.95 6.98 3.05 10.09 3.07 C 10.09 3.52 10.11 4.42 10.12 4.87 L 10.88 4.87 C 10.89 4.42 10.90 3.52 10.91 3.07 L 11.95 3.07 L 12.00 2.00 C 11.25 2.00 9.75 2.00 9.00 2.00 C 9.00 1.50 9.00 0.50 9.00 0.00 M 2.00 5.00 C 2.00 8.00 2.00 11.00 2.00 14.00 C 5.00 14.00 8.00 14.00 11.00 14.00 C 11.00 12.25 11.00 8.75 11.00 7.00 L 10.00 7.00 L 10.00 8.00 L 8.93 8.24 C 8.64 7.95 8.05 7.36 7.76 7.07 L 8.00 6.00 L 9.00 6.00 L 9.00 5.00 C 7.25 5.00 3.75 5.00 2.00 5.00 Z" />
</g>
<g id="#1c5e8ba0">
<path fill="#1c5e8b" opacity="0.63" d=" M 15.28 0.00 L 16.00 0.00 L 16.00 0.72 L 15.28 0.72 L 15.28 0.00 Z" />
<path fill="#1c5e8b" opacity="0.63" d=" M 0.00 3.15 L 0.77 3.11 L 0.76 3.77 L 0.00 3.87 L 0.00 3.15 Z" />
<path fill="#1c5e8b" opacity="0.63" d=" M 10.09 3.07 L 10.91 3.07 C 10.90 3.52 10.89 4.42 10.88 4.87 L 10.12 4.87 C 10.11 4.42 10.09 3.52 10.09 3.07 Z" />
<path fill="#1c5e8b" opacity="0.63" d=" M 12.16 5.09 L 12.96 5.09 C 12.96 5.54 12.97 6.46 12.97 6.92 L 12.16 6.91 C 12.16 6.46 12.16 5.55 12.16 5.09 Z" />
<path fill="#1c5e8b" opacity="0.63" d=" M 7.06 7.20 L 7.76 7.07 C 8.05 7.36 8.64 7.95 8.93 8.24 L 8.80 8.94 C 8.38 8.93 7.54 8.90 7.12 8.88 C 7.10 8.46 7.07 7.62 7.06 7.20 Z" />
<path fill="#1c5e8b" opacity="0.63" d=" M 0.00 15.28 L 0.72 15.28 L 0.72 16.00 L 0.00 16.00 L 0.00 15.28 Z" />
<path fill="#1c5e8b" opacity="0.63" d=" M 12.23 15.24 L 12.88 15.22 L 12.85 16.00 L 12.14 16.00 L 12.23 15.24 Z" />
</g>
</svg>
