<?xml version="1.0" encoding="UTF-8" ?>
<!DOCTYPE svg PUBLIC "-//W3C//DTD SVG 1.1//EN" "http://www.w3.org/Graphics/SVG/1.1/DTD/svg11.dtd">
<svg width="70pt" height="70pt" viewBox="0 0 70 70" version="1.1" xmlns="http://www.w3.org/2000/svg">
<g id="#79797990">
<path fill="#797979" opacity="0.56" d=" M 34.51 0.00 L 35.08 0.00 C 45.70 5.03 56.25 10.20 66.82 15.34 C 67.09 27.23 66.81 39.12 66.96 51.01 C 66.88 52.55 67.40 54.83 65.41 55.33 C 55.31 60.27 45.20 65.19 35.04 70.00 L 34.53 70.00 C 23.73 64.78 12.78 59.80 2.20 54.13 C 2.23 41.38 2.24 28.62 2.20 15.86 C 12.76 10.18 23.71 5.22 34.51 0.00 M 25.12 8.44 C 33.84 12.78 42.68 16.89 51.40 21.24 C 54.61 19.66 57.84 18.13 61.04 16.51 C 52.31 12.19 43.50 8.04 34.78 3.73 C 31.56 5.31 28.33 6.86 25.12 8.44 M 8.46 16.53 C 17.24 20.79 26.03 25.03 34.80 29.31 C 38.95 27.18 43.20 25.26 47.37 23.17 C 38.56 18.95 29.76 14.71 21.00 10.40 C 16.84 12.50 12.62 14.45 8.46 16.53 M 52.65 24.63 C 52.60 28.33 52.89 32.05 52.54 35.74 C 51.56 36.98 50.50 37.05 49.36 35.96 C 48.93 32.73 49.28 29.47 49.19 26.24 C 44.98 28.33 40.72 30.33 36.52 32.43 C 36.56 43.42 36.56 54.40 36.52 65.39 C 45.49 60.97 54.54 56.69 63.50 52.24 C 63.44 41.24 63.49 30.24 63.48 19.25 C 59.90 21.11 56.23 22.78 52.65 24.63 M 6.12 19.37 C 6.24 30.37 6.16 41.36 6.16 52.36 C 15.16 56.67 24.12 61.08 33.11 65.41 C 32.79 54.37 33.42 43.31 32.87 32.28 C 23.91 28.08 15.06 23.63 6.12 19.37 Z" />
</g>
</svg>
