<svg xmlns="http://www.w3.org/2000/svg" width="31" height="43" viewBox="0 0 31 43">
    <g fill="none" fill-rule="evenodd">
        <g fill-rule="nonzero">
            <g>
                <path fill="#64BB4B" d="M.42 30.765v4.515s7.245 6.51 14.91 6.51 14.28-6.51 14.28-6.51v-4.41s-6.93 4.305-14.175 4.305C7.98 34.965.42 30.765.42 30.765z" transform="translate(-177 -1053) translate(177 1053.5)"/>
                <path fill="#13A753" d="M29.505 14.385v-.21C29.4 6.3 22.89 0 15.015 0 7.035 0 .63 6.3.42 14.175V28.35s6.405 3.99 15.225 3.99c8.295 0 13.965-3.99 13.965-3.99V14.91v-.315c-.105 0-.105-.105-.105-.21z" transform="translate(-177 -1053) translate(177 1053.5)"/>
                <g fill="#FFF" transform="translate(-177 -1053) translate(177 1053.5) translate(0 11.025)">
                    <circle cx="15.54" cy="5.67" r="5.355"/>
                    <path d="M22.995 20.265c-.315-4.62-3.57-8.295-7.455-8.295-3.99 0-7.245 3.78-7.455 8.505C3.57 19.215.525 17.43.525 17.43v2.415s7.98 4.515 15.225 4.515c7.14 0 14.07-4.2 14.07-4.2v-2.73c-.21-.105-3.675 1.89-6.825 2.835z"/>
                </g>
            </g>
        </g>
    </g>
</svg>
