<svg xmlns="http://www.w3.org/2000/svg" width="33" height="34" viewBox="0 0 33 34">
    <g fill="#BBC9D0" fill-rule="nonzero">
        <path d="M32.128 0H.872A.874.874 0 0 0 0 .87c0 .48.393.871.872.871h1.883v31.367c0 .319.174.616.458.769a.862.862 0 0 0 .894-.044l3.787-2.517 3.801 2.524c.291.196.676.196.967 0l3.787-2.517 3.802 2.525c.29.196.676.196.966 0l3.787-2.518 3.802 2.525a.885.885 0 0 0 .48.145.943.943 0 0 0 .414-.102.873.873 0 0 0 .458-.768l-.015-31.367h1.985c.48 0 .872-.392.872-.87 0-.48-.393-.893-.872-.893zM28.42 31.483l-2.93-1.944a.869.869 0 0 0-.966 0l-3.787 2.524-3.802-2.524a.869.869 0 0 0-.967 0l-3.787 2.517-3.801-2.517a.869.869 0 0 0-.967 0L4.5 31.476V1.734h23.914l.008 29.749z"/>
        <path d="M8.882 14h9.236c.485 0 .882-.45.882-1s-.397-1-.882-1H8.882C8.397 12 8 12.45 8 13s.39 1 .882 1zM8.914 17h7.172c.503 0 .914-.45.914-1s-.411-1-.914-1H8.914C8.41 15 8 15.45 8 16s.404 1 .914 1zM21.866 14h2.268c.476 0 .866-.45.866-1s-.39-1-.866-1h-2.268c-.476 0-.866.45-.866 1s.383 1 .866 1zM21.866 17h2.268c.476 0 .866-.45.866-1s-.39-1-.866-1h-2.268c-.476 0-.866.45-.866 1s.383 1 .866 1zM8.882 7h9.236c.485 0 .882-.45.882-1s-.397-1-.882-1H8.882C8.397 5 8 5.45 8 6s.39 1 .882 1zM8.914 10h7.172c.503 0 .914-.45.914-1s-.411-1-.914-1H8.914C8.41 8 8 8.45 8 9s.404 1 .914 1zM21.866 7h2.268C24.61 7 25 6.55 25 6s-.39-1-.866-1h-2.268C21.39 5 21 5.45 21 6s.383 1 .866 1zM21.866 10h2.268c.476 0 .866-.45.866-1s-.39-1-.866-1h-2.268C21.39 8 21 8.45 21 9s.383 1 .866 1zM8.882 21h9.236c.485 0 .882-.45.882-1s-.397-1-.882-1H8.882C8.397 19 8 19.45 8 20s.39 1 .882 1zM8.914 24h7.172c.503 0 .914-.45.914-1s-.411-1-.914-1H8.914C8.41 22 8 22.45 8 23s.404 1 .914 1zM21.866 21h2.268c.476 0 .866-.45.866-1s-.39-1-.866-1h-2.268c-.476 0-.866.45-.866 1s.383 1 .866 1zM21.866 24h2.268c.476 0 .866-.45.866-1s-.39-1-.866-1h-2.268c-.476 0-.866.45-.866 1s.383 1 .866 1z"/>
    </g>
</svg>
