<svg xmlns="http://www.w3.org/2000/svg" width="24" height="24" viewBox="0 0 24 24">
    <g fill="#00985F" fill-rule="evenodd">
        <path d="M13.482.07v12.354a.965.965 0 0 1-.988.988h-1.482c-.07 0-.141.07-.141.14V23.93c.353 0 .705.071 1.129.071 6.635 0 12-5.365 12-12C24 5.859 19.412.776 13.482.07zM13.2 18.566a1.491 1.491 0 0 1-1.482-1.483c0-.847.706-1.482 1.482-1.482.847 0 1.482.706 1.482 1.482.07.777-.635 1.483-1.482 1.483zm3.53 0a1.491 1.491 0 0 1-1.483-1.483c0-.847.706-1.482 1.482-1.482.847 0 1.483.706 1.483 1.482 0 .777-.636 1.483-1.483 1.483zm3.529 0a1.491 1.491 0 0 1-1.483-1.483c0-.847.706-1.482 1.483-1.482.847 0 1.482.706 1.482 1.482 0 .777-.635 1.483-1.482 1.483z"/>
        <path d="M12 0C5.365 0 0 5.365 0 12c0 5.788 4.024 10.588 9.459 11.718v-10.8c0-.494.423-.918.917-.989h1.483c.07 0 .141-.07.141-.14V0zM9.67 9.882A1.491 1.491 0 0 1 8.189 8.4c0-.847.706-1.482 1.483-1.482.847 0 1.482.706 1.482 1.482s-.635 1.482-1.482 1.482z"/>
    </g>
</svg>
