<?xml version="1.0" encoding="UTF-8" ?>
<!DOCTYPE svg PUBLIC "-//W3C//DTD SVG 1.1//EN" "http://www.w3.org/Graphics/SVG/1.1/DTD/svg11.dtd">
<svg width="11pt" height="11pt" viewBox="0 0 11 11" version="1.1" xmlns="http://www.w3.org/2000/svg">
<g id="#fdf9f9ff">
<path fill="#fdf9f9" opacity="1.00" d=" M 0.19 2.30 C 0.71 1.77 1.77 0.72 2.30 0.19 C 3.37 1.25 4.44 2.30 5.51 3.35 C 6.56 2.30 7.62 1.24 8.67 0.18 C 9.20 0.71 10.26 1.77 10.79 2.30 C 9.73 3.36 8.68 4.41 7.62 5.47 C 8.67 6.54 9.73 7.61 10.78 8.68 C 10.26 9.21 9.20 10.26 8.68 10.78 C 7.61 9.72 6.54 8.67 5.47 7.61 C 4.41 8.67 3.36 9.73 2.30 10.79 C 1.77 10.26 0.72 9.21 0.19 8.68 C 1.24 7.61 2.30 6.54 3.35 5.47 C 2.30 4.41 1.24 3.36 0.19 2.30 Z" />
</g>
</svg>
