<svg xmlns="http://www.w3.org/2000/svg" width="16" height="16" viewBox="0 0 16 16">
    <g fill="none" fill-rule="evenodd" transform="translate(-406 -144)">
        <rect width="247" height="511" x="395.5" y="61.5" stroke="#999" rx="1"/>
        <path d="M406 144h16v16h-16z"/>
        <g fill="#37B11D">
            <path d="M418.47 145.488l.673.62-8.506 4.922-4.117-2.403.384-.775 3.734 2.15 7.831-4.514zm-1.713-.988l.904.465-7.023 4.069-3.272-1.88.558-.678 2.714 1.57 6.119-3.546zm2.982 2.248l.5.678-9.601 5.56-4.638-2.673.212-.853 4.425 2.558 9.102-5.27z"/>
            <path d="M421.26 149.037c.281.801.423 1.64.423 2.52 0 .878-.142 1.73-.424 2.557l-.192.524a8.063 8.063 0 0 1-1.674 2.519 7.732 7.732 0 0 1-2.502 1.666 7.646 7.646 0 0 1-6.119 0 8.085 8.085 0 0 1-2.482-1.666 7.644 7.644 0 0 1-1.674-2.52 8.003 8.003 0 0 1-.616-3.08v-.524l4.772 2.732 10.064-5.813.423 1.085z"/>
        </g>
    </g>
</svg>
