<?xml version="1.0" encoding="UTF-8" ?>
<!DOCTYPE svg PUBLIC "-//W3C//DTD SVG 1.1//EN" "http://www.w3.org/Graphics/SVG/1.1/DTD/svg11.dtd">
<svg width="126pt" height="69pt" viewBox="0 0 126 69" version="1.1" xmlns="http://www.w3.org/2000/svg">
<g id="#006ed1ff">
<path fill="#006ed1" opacity="1.00" d=" M 0.48 5.43 C 3.59 1.73 8.73 2.49 13.02 2.38 C 17.18 2.53 21.77 2.14 25.42 4.53 C 28.59 6.89 28.93 11.30 28.81 14.94 C 28.72 18.92 25.59 21.76 24.06 25.19 C 24.85 28.80 27.00 31.93 28.40 35.31 C 26.05 35.22 23.68 35.27 21.36 34.81 C 19.07 32.44 17.93 29.26 16.48 26.36 C 13.49 26.34 10.50 26.29 7.51 26.20 C 7.43 29.10 7.33 32.01 7.23 34.92 C 5.15 35.04 3.08 35.17 1.00 35.28 C 0.79 25.33 1.32 15.36 0.48 5.43 M 7.35 9.19 C 7.42 12.51 7.42 15.84 7.36 19.16 C 11.55 19.15 16.19 20.20 20.00 17.96 C 22.73 16.04 21.31 12.21 21.53 9.41 C 16.81 9.05 12.07 9.06 7.35 9.19 Z" />
<path fill="#006ed1" opacity="1.00" d=" M 39.44 2.73 C 45.23 2.66 52.18 1.04 57.09 4.89 C 60.93 9.97 60.39 16.99 60.18 23.03 C 59.69 27.59 58.52 34.19 52.96 34.88 C 47.62 35.36 41.90 35.97 36.75 34.16 C 30.81 30.31 31.04 22.19 31.22 15.93 C 31.26 10.59 33.18 3.48 39.44 2.73 M 39.25 9.31 C 37.96 15.43 37.91 21.74 39.15 27.88 C 43.32 28.21 47.62 28.88 51.73 27.78 C 55.11 22.26 53.72 15.09 52.08 9.16 C 47.81 9.08 43.53 9.11 39.25 9.31 Z" />
<path fill="#006ed1" opacity="1.00" d=" M 68.49 2.76 C 73.60 2.22 78.78 2.43 83.91 2.62 C 87.13 2.63 90.32 4.42 91.62 7.44 C 94.14 12.32 89.12 17.40 91.56 22.33 C 93.89 27.37 90.79 34.48 84.97 34.98 C 79.39 35.40 73.71 35.57 68.14 34.85 C 64.93 34.45 64.45 30.66 64.50 28.06 C 64.59 21.09 64.33 14.11 64.62 7.14 C 64.53 4.92 66.35 3.05 68.49 2.76 M 70.88 9.24 C 70.87 11.25 70.87 13.26 70.87 15.27 C 75.15 15.35 79.57 16.02 83.76 14.86 C 86.14 14.38 85.73 11.49 85.54 9.70 C 80.77 8.44 75.75 9.30 70.88 9.24 M 71.16 22.12 C 71.03 24.13 70.90 26.14 70.79 28.14 C 75.73 28.38 80.69 28.40 85.62 27.96 C 85.22 26.17 84.93 24.35 84.85 22.52 C 80.30 22.01 75.72 21.64 71.16 22.12 Z" />
<path fill="#006ed1" opacity="1.00" d=" M 104.44 2.71 C 110.53 2.59 118.36 0.87 122.83 6.16 C 125.91 11.85 125.43 18.79 124.85 25.04 C 124.51 29.48 121.73 34.31 116.96 34.95 C 112.13 35.47 107.13 35.63 102.37 34.57 C 98.69 33.56 97.26 29.52 96.65 26.15 C 95.68 20.02 95.66 13.55 97.56 7.60 C 98.45 4.60 101.55 3.08 104.44 2.71 M 104.11 9.27 C 102.83 15.43 102.84 21.77 103.99 27.95 C 108.32 28.36 112.68 28.36 117.02 28.08 C 118.62 21.87 118.48 15.42 116.98 9.20 C 112.69 9.09 108.40 9.10 104.11 9.27 Z" />
</g>
<g id="#00336177">
<path fill="#003361" opacity="0.47" d=" M 0.00 6.23 L 0.48 5.43 C 1.32 15.36 0.79 25.33 1.00 35.28 L 0.00 35.34 L 0.00 6.23 Z" />
</g>
<g id="#ee001fff">
<path fill="#ee001f" opacity="1.00" d=" M 2.77 39.49 C 4.31 39.81 5.85 40.12 7.39 40.45 C 7.47 43.90 7.56 47.35 7.77 50.80 C 13.20 50.56 16.76 46.16 18.67 41.51 C 19.22 39.18 21.86 39.20 23.36 40.60 C 25.02 45.58 20.52 49.51 17.75 53.03 C 20.08 56.12 23.23 59.05 23.74 63.07 C 24.18 65.14 22.18 66.86 20.19 66.45 C 17.82 63.86 16.81 60.25 14.08 57.94 C 12.43 56.26 9.98 56.01 7.85 55.33 C 7.60 58.67 7.71 62.04 7.18 65.35 C 5.80 66.05 4.27 66.37 2.80 66.86 C 1.79 57.79 1.80 48.56 2.77 39.49 Z" />
<path fill="#ee001f" opacity="1.00" d=" M 28.89 43.90 C 30.58 40.01 35.29 39.42 39.02 39.54 C 42.50 39.48 46.56 40.43 48.16 43.89 C 51.68 50.73 50.49 58.77 50.06 66.15 C 48.49 66.16 46.92 66.13 45.35 66.12 C 45.08 64.00 44.82 61.89 44.57 59.77 C 40.52 59.60 36.47 59.59 32.42 59.75 C 32.17 61.88 31.91 64.00 31.63 66.13 C 30.13 66.13 28.63 66.13 27.13 66.12 C 26.76 58.75 25.54 50.78 28.89 43.90 M 31.91 53.69 C 36.29 53.78 40.68 53.77 45.06 53.69 C 44.55 51.38 44.33 48.95 43.22 46.83 C 42.05 44.69 39.15 45.45 37.13 45.31 C 32.62 44.93 32.73 50.61 31.91 53.69 Z" />
<path fill="#ee001f" opacity="1.00" d=" M 57.47 55.27 C 50.79 53.28 51.12 41.40 58.15 40.09 C 63.33 39.08 68.64 39.73 73.86 39.83 C 73.77 41.50 73.68 43.17 73.59 44.83 C 68.69 45.38 63.75 45.52 58.82 45.38 C 58.79 46.89 58.00 48.69 59.25 49.93 C 63.81 51.33 69.61 48.94 73.31 52.67 C 75.80 56.78 75.60 64.23 70.33 66.07 C 65.70 66.87 60.92 66.66 56.25 66.39 C 53.52 66.23 53.10 61.08 56.18 61.00 C 60.37 60.32 64.65 60.70 68.88 60.70 C 69.03 59.36 69.19 58.02 69.36 56.69 C 65.45 55.83 61.44 55.72 57.47 55.27 Z" />
<path fill="#ee001f" opacity="1.00" d=" M 80.78 55.08 C 74.83 52.31 75.38 41.39 82.15 40.08 C 87.37 39.09 92.72 39.69 97.98 39.91 C 97.69 41.69 97.40 43.47 97.10 45.24 C 92.31 45.35 87.52 45.39 82.73 45.41 C 83.00 47.00 82.93 48.62 82.54 50.18 C 86.68 50.53 90.96 49.99 95.01 51.07 C 99.54 53.12 99.62 59.69 97.47 63.51 C 95.61 66.92 91.32 66.49 88.04 66.59 C 85.04 66.43 81.82 67.04 78.98 65.94 C 78.35 64.63 77.91 63.25 77.44 61.89 C 82.62 60.23 88.08 60.63 93.43 60.64 C 93.15 59.26 93.05 57.83 92.51 56.51 C 88.72 55.25 84.61 56.09 80.78 55.08 Z" />
<path fill="#ee001f" opacity="1.00" d=" M 102.15 50.07 C 102.71 45.66 105.03 40.41 110.02 39.82 C 114.02 39.39 118.88 38.97 122.01 42.02 C 125.18 45.50 125.50 50.52 125.58 55.00 C 125.55 58.57 125.89 62.24 124.87 65.71 C 123.57 66.11 122.26 66.44 120.94 66.72 C 120.44 64.41 119.99 62.10 119.56 59.78 C 115.59 59.58 111.61 59.59 107.65 59.85 C 107.44 62.02 107.17 64.19 106.90 66.35 C 105.28 66.01 102.79 66.93 102.19 64.76 C 101.32 59.93 101.63 54.93 102.15 50.07 M 107.60 53.78 C 111.76 53.76 115.92 53.75 120.08 53.72 C 119.75 51.52 119.75 49.20 118.86 47.13 C 117.40 44.45 113.76 45.36 111.26 45.43 C 107.43 46.02 107.99 50.90 107.60 53.78 Z" />
</g>
</svg>
