<svg xmlns="http://www.w3.org/2000/svg" width="42" height="42" viewBox="0 0 42 42">
    <g fill="none" fill-rule="evenodd">
        <path fill="#6E6F6F" d="M35.967 35.714c-1.642 0-2.973 1.408-2.973 3.143 0 1.736 1.33 3.143 2.973 3.143 1.642 0 2.973-1.407 2.973-3.143 0-1.735-1.33-3.143-2.973-3.143zm-19.921 0c-1.642 0-2.973 1.408-2.973 3.143 0 1.736 1.331 3.143 2.973 3.143 1.643 0 2.974-1.407 2.974-3.143 0-1.735-1.331-3.143-2.974-3.143z"/>
        <path fill="#3488D2" d="M34.803 28.464c.133.552-.19 1.112-.721 1.25-.532.139-1.07-.197-1.203-.749s.19-1.112.72-1.25c.532-.139 1.07.197 1.204.749zm-15.947 0c.133.552-.19 1.112-.721 1.25-.532.139-1.07-.197-1.203-.749-.134-.552.19-1.112.72-1.25.532-.139 1.07.197 1.204.749zm17.597-.43c.362 1.5-.515 3.02-1.957 3.395-1.443.376-2.906-.535-3.267-2.034-.362-1.5.515-3.02 1.957-3.396 1.443-.375 2.906.536 3.267 2.035zm-15.947 0c.362 1.5-.515 3.02-1.958 3.395-1.443.376-2.905-.535-3.267-2.034-.361-1.5.515-3.02 1.958-3.396 1.443-.375 2.906.536 3.267 2.035zm5.361-1.708c-1.269 0-2.298 1.07-2.298 2.388 0 1.32 1.03 2.389 2.298 2.389 1.27 0 2.299-1.07 2.299-2.389 0-1.319-1.03-2.388-2.299-2.388zm-3.987-1.755h-3.986c-2.193 0-3.987 1.865-3.987 4.143 0 2.279 1.794 4.143 3.987 4.143H33.84c2.192 0 3.987-1.864 3.987-4.143 0-2.278-1.795-4.143-3.987-4.143h-11.96z"/>
        <path fill="#67C23F" d="M3.964 0h7.927c2.18 0 3.963 1.865 3.963 4.143 0 2.279-1.784 4.143-3.963 4.143H3.964C1.784 8.286 0 6.422 0 4.143 0 1.865 1.783 0 3.964 0zm10.524 3.463c.36 1.499-.512 3.019-1.947 3.395-1.434.376-2.888-.536-3.247-2.035-.36-1.499.512-3.02 1.946-3.395s2.888.535 3.248 2.035zm-1.64.43c.132.552-.19 1.112-.718 1.25-.528.138-1.064-.198-1.196-.75-.132-.552.189-1.111.717-1.25.528-.138 1.064.197 1.196.75zM3.963 1.753c-1.263 0-2.285 1.07-2.285 2.389 0 1.32 1.022 2.388 2.285 2.388 1.261 0 2.285-1.069 2.285-2.388S5.225 1.754 3.964 1.754z"/>
        <path fill="#6E6F6F" d="M15.928 3.458l-.046-.315 1.143 4.769h-3.077c-2.18 0-3.962 1.873-3.962 4.164 0 2.29 1.783 4.165 3.962 4.165h5.062L20.86 24h-3.09c-2.18 0-3.962 1.875-3.962 4.165 0 1.318.59 2.498 1.506 3.263a4.165 4.165 0 0 1-1.387-2.25L8.9 8.093h3.091c2.179 0 3.962-1.874 3.962-4.165 0-.158-.01-.316-.026-.47zm2.13 16.197c.307 1.287-.436 2.59-1.66 2.913-1.223.322-2.463-.46-2.77-1.745-.307-1.287.437-2.59 1.66-2.913 1.224-.322 2.464.46 2.77 1.745zM32.875 16.1l-2 7.802h3.074c2.203 0 4.007 1.883 4.007 4.186 0 1.36-.63 2.575-1.6 3.34a4.169 4.169 0 0 0 1.463-2.256l4.148-16.176c.012-.046.023-.093.033-.139-.413 1.852-2.01 3.242-3.903 3.242h-5.222zm.917 3.428c-.33 1.288.4 2.611 1.633 2.956 1.233.345 2.499-.419 2.83-1.706.33-1.288-.402-2.612-1.634-2.956-1.232-.346-2.499.419-2.83 1.706z"/>
        <path fill="#E71C0F" d="M17.94 8.571h-3.963c-2.18 0-3.964 1.865-3.964 4.143 0 2.279 1.784 4.143 3.964 4.143H37.76c2.18 0 3.963-1.864 3.963-4.143 0-2.278-1.784-4.143-3.963-4.143H17.94zm22.416 3.463c.36 1.5-.512 3.02-1.947 3.395-1.434.375-2.888-.535-3.248-2.035-.36-1.499.513-3.019 1.947-3.395 1.434-.375 2.889.536 3.248 2.035zm-23.812-.068c.36 1.5-.511 3.02-1.946 3.395-1.434.376-2.888-.535-3.248-2.034-.36-1.5.512-3.02 1.947-3.395 1.434-.376 2.888.535 3.247 2.034zm5.36-1.64c-1.262 0-2.285 1.07-2.285 2.388 0 1.319 1.023 2.388 2.285 2.388 1.262 0 2.285-1.069 2.285-2.388s-1.023-2.388-2.285-2.388zm7.927 0c-1.262 0-2.285 1.07-2.285 2.388 0 1.319 1.023 2.388 2.285 2.388 1.262 0 2.285-1.069 2.285-2.388s-1.023-2.388-2.285-2.388zm-14.927 2.07c.132.552-.189 1.112-.717 1.25-.528.138-1.064-.197-1.196-.75-.133-.552.188-1.11.717-1.25.528-.138 1.063.198 1.196.75zm23.811.068c.133.552-.188 1.112-.717 1.25-.528.138-1.063-.197-1.196-.75-.133-.552.188-1.111.717-1.25.528-.138 1.064.197 1.196.75z"/>
    </g>
</svg>
