<svg xmlns="http://www.w3.org/2000/svg" width="42" height="33" viewBox="0 0 42 33">
    <path fill="#1A6582" fill-rule="nonzero" d="M40.248 21.141c0 .319-.266.744-.584.903l-18.106 8.124c-.32.159-.85.159-1.116 0L2.283 22.044c-.318-.16-.584-.531-.584-.903V5.106c0-.319.266-.531.584-.372l18.213 8.549c.318.159.796.159 1.115 0l18.106-8.496c.318-.16.584 0 .584.372V21.14h-.053zM4.513 3.938V2.876c0-.319.266-.531.584-.372l15.345 7.168c.32.16.797.16 1.116 0l14.867-7.168c.318-.16.584 0 .53.372v1.327l-15.344 7.221a1.36 1.36 0 0 1-1.115 0L4.513 3.938c-.053 0 0 0 0 0zm36.903-1.859l-2.867 1.38V.434c0-.318-.266-.478-.584-.371L21.558 7.973a1.36 1.36 0 0 1-1.116 0L3.558.062c-.32-.16-.585 0-.585.371v2.814L.584 2.08C.265 1.973 0 2.132 0 2.451v19.805c0 .319.265.744.584.903l19.858 8.92c.32.16.85.16 1.116 0l19.858-8.92c.319-.16.584-.531.584-.903V2.451c-.053-.319-.319-.478-.584-.372z"/>
</svg>
