<svg xmlns="http://www.w3.org/2000/svg" width="31" height="38" viewBox="0 0 31 38">
    <g fill="none" fill-rule="evenodd">
        <path fill="#002987" d="M13.904 8.815h9.372c1.458 0 2.807.478 3.911 1.288.06-.505.092-1.019.092-1.54 0-4.384-3.447-7.938-7.699-7.938H6.714c-.81 0-1.5.603-1.634 1.425L.339 31.103c-.17 1.042.61 1.992 1.634 1.992H6.68c.81 0 1.513-.602 1.647-1.425l1.479-9.06.034-.208 1.91-11.708c.177-1.085 1.088-1.88 2.155-1.88z"/>
        <path fill="#0085CC" d="M27.187 10.103c-.736 6.175-5.84 10.956-12.028 10.956h-3.59c-.81 0-1.51.556-1.73 1.343L7.693 35.553c-.15.92.537 1.757 1.44 1.757h4.117c.713 0 1.322-.531 1.44-1.257l1.17-7.166c.202-1.235 1.239-2.14 2.454-2.14h1.081c5.875 0 10.637-4.91 10.637-10.966a7.021 7.021 0 0 0-2.845-5.678z"/>
        <path fill="#00186A" d="M11.569 21.059h3.59c6.188 0 11.292-4.781 12.028-10.956a6.587 6.587 0 0 0-3.911-1.288h-9.372c-1.067 0-1.978.794-2.155 1.879L9.84 22.402c.22-.787.92-1.343 1.73-1.343z"/>
        <path d="M-5-2h42v42H-5z"/>
    </g>
</svg>
