<svg xmlns="http://www.w3.org/2000/svg" width="23" height="25" viewBox="0 0 23 25">
    <g>
        <path d="M22.555 22.022l-4.937-4.988a5.255 5.255 0 0 0-1.724-6.797V4.542a.493.493 0 0 0-.142-.347L11.74.144A.484.484 0 0 0 11.397 0H.486A.488.488 0 0 0 0 .49v20.998c0 .271.218.491.486.491h14.922c.269 0 .486-.22.486-.49v-1.853l4.511 4.557c.288.29.67.45 1.075.45.406 0 .788-.16 1.075-.45a1.548 1.548 0 0 0 0-2.171zm-8.32-17.97h-2.352V1.675l1.176 1.188 1.176 1.187zm.687 15.406v1.54H.972V.981h9.94v3.56c0 .271.217.491.485.491h3.525V9.73a5.127 5.127 0 0 0-1.87-.353c-2.849 0-5.166 2.34-5.166 5.217 0 2.878 2.317 5.218 5.166 5.218.642 0 1.277-.121 1.87-.354zm.366-1.28a4.158 4.158 0 0 1-2.237.652c-2.312 0-4.193-1.9-4.193-4.236s1.881-4.237 4.194-4.237c.743 0 1.473.2 2.111.576a4.263 4.263 0 0 1 1.437 5.92c-.333.53-.786.989-1.312 1.324zm6.58 5.32a.542.542 0 0 1-.775 0l-4.797-4.845a5.27 5.27 0 0 0 .775-.783l4.797 4.846a.558.558 0 0 1 0 .783z"/>
        <path d="M11.543 11.57c-1.056.59-1.686 1.619-1.686 2.749 0 .258.23.467.511.467.283 0 .512-.21.512-.467 0-.803.448-1.533 1.198-1.954.24-.135.316-.423.168-.642a.54.54 0 0 0-.703-.154z"/>
        <path d="M14.54 12.05a3.025 3.025 0 0 0-1.723-.55c-.274 0-.496.262-.496.586 0 .324.222.586.496.586.43 0 .854.135 1.223.39.079.055.165.08.25.08.17 0 .336-.103.428-.29.138-.28.058-.638-.178-.802z"/>
    </g>
</svg>
