<svg xmlns="http://www.w3.org/2000/svg" width="16" height="16" viewBox="0 0 16 16">
    <g fill="none" fill-rule="evenodd">
        <circle cx="8" cy="8" r="7" stroke="#FFF" stroke-width="2"/>
        <path fill="#FFF" d="M8.661 11.98c0-.554-.466-1.02-1.02-1.02-.568 0-1.02.466-1.02 1.02 0 .568.452 1.02 1.02 1.02.554 0 1.02-.452 1.02-1.02zm-.206-1.714c0-1.246.784-1.634 1.246-2.096l.238-.238c.686-.756 1.106-1.512 1.246-2.212.14-.7 0-1.372-.406-1.904-.756-1.022-2.352-1.47-3.794-1.064-.672.182-1.232.532-1.638 1.008-.448.532-.686 1.204-.686 1.96h1.806c0-.938.574-1.288 1.05-1.414a2 2 0 0 1 1.036-.014c.322.084.574.238.714.434.364.476.084 1.26-.742 2.184-.028.042-.098.098-.168.168-.532.532-1.722 1.312-1.722 3.188 0 0 .308-.266.882-.266.644 0 .938.266.938.266z"/>
    </g>
</svg>
