<svg xmlns="http://www.w3.org/2000/svg" width="18" height="18" viewBox="0 0 18 18">
    <path fill="#2C97DE" fill-rule="nonzero" d="M16.793 4.482A8.805 8.805 0 0 1 18 9a8.805 8.805 0 0 1-1.207 4.518 8.96 8.96 0 0 1-3.275 3.275A8.805 8.805 0 0 1 9 18a8.804 8.804 0 0 1-4.518-1.207 8.962 8.962 0 0 1-3.275-3.275A8.805 8.805 0 0 1 0 9c0-1.633.402-3.139 1.207-4.518a8.96 8.96 0 0 1 3.276-3.275A8.804 8.804 0 0 1 9 0c1.633 0 3.139.402 4.518 1.207a8.962 8.962 0 0 1 3.275 3.275zm-.89 7.43A7.285 7.285 0 0 0 16.5 9c0-1.016-.199-1.986-.597-2.912a7.576 7.576 0 0 0-1.6-2.39 7.575 7.575 0 0 0-2.39-1.6A7.29 7.29 0 0 0 9 1.5c-1.015 0-1.986.2-2.912.598a7.58 7.58 0 0 0-2.39 1.6 7.576 7.576 0 0 0-1.6 2.39A7.29 7.29 0 0 0 1.5 9c0 1.015.2 1.986.598 2.912a7.58 7.58 0 0 0 1.6 2.39 7.576 7.576 0 0 0 2.39 1.6A7.288 7.288 0 0 0 9 16.5c1.016 0 1.987-.2 2.912-.598a7.574 7.574 0 0 0 2.391-1.6 7.576 7.576 0 0 0 1.6-2.39zm-4.23-1.295a4.325 4.325 0 0 1 1.616 2.285.72.72 0 0 1-.047.569.714.714 0 0 1-.433.369.736.736 0 0 1-.575-.047.71.71 0 0 1-.374-.445 2.912 2.912 0 0 0-1.085-1.518A2.93 2.93 0 0 0 9 11.25a2.93 2.93 0 0 0-1.775.58 2.913 2.913 0 0 0-1.084 1.518.715.715 0 0 1-.37.445.72.72 0 0 1-.568.047.715.715 0 0 1-.445-.37.721.721 0 0 1-.047-.568 4.327 4.327 0 0 1 1.617-2.285A4.408 4.408 0 0 1 9 9.75c.992 0 1.883.29 2.672.867zM6 7.5c-.414 0-.767-.147-1.06-.44A1.445 1.445 0 0 1 4.5 6c0-.414.147-.767.44-1.06.293-.293.646-.44 1.06-.44.414 0 .768.147 1.06.44.294.293.44.646.44 1.06 0 .414-.146.768-.44 1.06-.292.293-.646.44-1.06.44zm6-3c.414 0 .768.146 1.06.44.294.292.44.646.44 1.06 0 .414-.146.768-.44 1.06-.292.293-.646.44-1.06.44-.414 0-.768-.147-1.06-.44A1.446 1.446 0 0 1 10.5 6c0-.414.147-.768.44-1.06.292-.294.646-.44 1.06-.44z"/>
</svg>
