<svg xmlns="http://www.w3.org/2000/svg" width="1920" height="584" viewBox="0 0 1920 584">
  <defs>
    <style>
      .cls-1 {
        fill: #387dff;
      }

      .cls-2 {
        fill: #fff;
      }

      .cls-2, .cls-3 {
        fill-rule: evenodd;
      }

      .cls-3 {
        fill: #3f424e;
      }
    </style>
  </defs>
  <rect class="cls-1" x="13.969" y="41" width="503" height="503" rx="70" ry="70"/>
  <path id="SB" class="cls-2" d="M235.784,377.807q19.545-15.8,19.545-42.693a55.531,55.531,0,0,0-7.069-27.446,38.433,38.433,0,0,0-8.456-9.7,96.982,96.982,0,0,0-9.842-7.486,75.669,75.669,0,0,0-12.2-5.96q-7.9-3.184-12.475-4.713t-13.446-4.3q-21.624-6.654-29.248-12.337a17.658,17.658,0,0,1-7.624-14.832,17.071,17.071,0,0,1,6.792-14q6.79-5.406,18.714-5.406,25.5,0,37.149,24.951l32.158-18.575Q239.8,214.8,221.923,203.29t-41.446-11.5q-26.342,0-45.051,15.664t-18.713,42q0,13.308,4.713,23.288a42.364,42.364,0,0,0,13.723,16.5,94.754,94.754,0,0,0,18.02,10.4,202.014,202.014,0,0,0,22.04,7.763q23.56,6.652,32.714,12.336t9.148,15.941q0,8.875-7.485,14.693t-23.565,5.822q-33.267,0-44.634-29.663l-32.713,19.129A68.917,68.917,0,0,0,136.4,380.718q19.682,12.891,48.515,12.892Q216.238,393.61,235.784,377.807ZM414.461,250.281q0-23.839-17.05-39.228t-42-15.387H278.9V389.728h82.337q25.5,0,42.971-15.8t17.466-40.476q0-29.661-25.5-44.357,18.3-14.691,18.3-38.812h0Zm-44.08-12.753a21.218,21.218,0,0,1,5.822,15.248,20.94,20.94,0,0,1-5.961,15.248,19.9,19.9,0,0,1-14.831,6.1H317.153V231.429h38.258A19.789,19.789,0,0,1,370.381,237.528ZM317.153,353.965V308.222h44.079a21.576,21.576,0,0,1,16.08,6.515,22.278,22.278,0,0,1,6.376,16.218q0,9.981-6.376,16.5a21.56,21.56,0,0,1-16.08,6.514H317.153Z"/>
  <path id="ScriptBerry" class="cls-3" d="M736.7,346.377q17.439-14.1,17.439-38.093a49.54,49.54,0,0,0-6.308-24.488,34.276,34.276,0,0,0-7.544-8.658,86.7,86.7,0,0,0-8.781-6.678,67.513,67.513,0,0,0-10.884-5.319q-7.05-2.84-11.131-4.205t-12-3.834Q678.2,249.167,671.4,244.1a15.753,15.753,0,0,1-6.8-13.234,15.229,15.229,0,0,1,6.06-12.491q6.058-4.824,16.7-4.824,22.755,0,33.146,22.263l28.694-16.573a69,69,0,0,0-24.86-28.57Q708.379,180.4,687.353,180.4q-23.5,0-40.195,13.976t-16.7,37.475a48.146,48.146,0,0,0,4.205,20.778,37.8,37.8,0,0,0,12.244,14.718,84.555,84.555,0,0,0,16.079,9.275,179.85,179.85,0,0,0,19.665,6.926q21.021,5.937,29.188,11.008t8.163,14.223q0,7.918-6.679,13.11T692.3,327.083q-29.684,0-39.825-26.467l-29.188,17.068a61.489,61.489,0,0,0,24.736,31.29q17.56,11.5,43.287,11.5Q719.26,360.477,736.7,346.377ZM870.147,351.7a61.916,61.916,0,0,0,23-23.375l-27.7-15.831a27.25,27.25,0,0,1-11.255,12A33.914,33.914,0,0,1,837,328.815q-14.349,0-23.747-9.523t-9.4-24.118q0-14.841,9.4-24.364T837,261.286a32.71,32.71,0,0,1,16.944,4.453,28.02,28.02,0,0,1,11.255,12.12l27.456-16.078a57.6,57.6,0,0,0-22.509-23.252,64.121,64.121,0,0,0-32.9-8.657q-27.956,0-46.627,18.8t-18.675,46.5q0,27.707,18.675,46.5t46.627,18.8A63.429,63.429,0,0,0,870.147,351.7Zm72.722-118.36h-31.91V357.014h31.91V297.9q0-17.809,11.5-25.478t26.1-5.936v-35.62a44.864,44.864,0,0,0-22.881,5.937,33.315,33.315,0,0,0-14.717,17.81V233.335Zm85.951-20.654a18.793,18.793,0,0,0,5.82-13.729,19.214,19.214,0,0,0-5.82-13.852,18.843,18.843,0,0,0-13.97-5.936,18.576,18.576,0,0,0-13.73,5.936,19.177,19.177,0,0,0-5.815,13.852,19.859,19.859,0,0,0,19.545,19.542A19.034,19.034,0,0,0,1028.82,212.681Zm2.1,144.333V233.335h-31.9V357.014h31.9Zm61.1-109.085V233.335h-31.91v173.15h31.91V342.419q14.1,18.06,40.07,18.058,24.99,0,42.67-18.923t17.69-46.38q0-27.456-17.69-46.379t-42.67-18.923q-25.965,0-40.07,18.057h0Zm0,47.245q0-15.334,9.65-25.107t24.49-9.77q14.835,0,24.61,9.77t9.77,25.107q0,15.341-9.77,25.107t-24.61,9.771q-14.85,0-24.49-9.771T1092.02,295.174Zm190.96-61.839h-27.95v-34.63l-31.91,9.647v24.983H1201.6v30.672h21.52v51.451q0,25.479,13.48,35.372t46.38,6.184V328.073a137.678,137.678,0,0,1-15.33.123q-6.2-.37-9.4-3.339-3.225-2.969-3.22-9.4V264.007h27.95V233.335Zm146.93-.742q0-21.271-15.21-35t-37.48-13.729h-68.27V357.014h73.47q22.755,0,38.34-14.1t15.58-36.114q0-26.465-22.76-39.577,16.335-13.109,16.33-34.63h0Zm-39.33-11.379a18.948,18.948,0,0,1,5.2,13.6,18.706,18.706,0,0,1-5.32,13.605,17.766,17.766,0,0,1-13.24,5.442h-34.13V215.773h34.13A17.647,17.647,0,0,1,1390.58,221.214ZM1343.09,325.1V284.291h39.33a19.228,19.228,0,0,1,14.34,5.812,19.843,19.843,0,0,1,5.69,14.471,20.147,20.147,0,0,1-5.69,14.718,19.213,19.213,0,0,1-14.34,5.812h-39.33Zm236.22-16.82a74.169,74.169,0,0,0,1.24-13.11q0-27.7-17.69-46.5t-44.89-18.8q-28.7,0-47,18.675t-18.3,46.627q0,28.2,18.55,46.751t49.22,18.552q35.625,0,53.92-26.468l-25.72-14.841q-9.405,12.372-27.7,12.368-28.455,0-34.88-23.252h93.25Zm-82.62-43.164q8.415-6.551,21.28-6.555a32.3,32.3,0,0,1,19.42,6.184q8.52,6.186,11.25,18.8h-63.08Q1488.29,271.675,1496.69,265.12Zm138.03-31.785h-31.91V357.014h31.91V297.9q0-17.809,11.5-25.478t26.1-5.936v-35.62a44.858,44.858,0,0,0-22.88,5.937,33.307,33.307,0,0,0-14.72,17.81V233.335Zm88.05,0h-31.9V357.014h31.9V297.9q0-17.809,11.51-25.478,11.49-7.663,26.09-5.936v-35.62a44.858,44.858,0,0,0-22.88,5.937,33.35,33.35,0,0,0-14.72,17.81V233.335Zm112.05,83.112-32.16-83.112h-34.87l50.71,119.721q-4.455,12.615-12,18.3t-20.41,5.442v29.683q23.745,1.234,39.7-10.76t25.6-38.711l45.02-123.679h-34.13Z"/>
</svg>
