<?xml version="1.0" encoding="UTF-8" ?>
<!DOCTYPE svg PUBLIC "-//W3C//DTD SVG 1.1//EN" "http://www.w3.org/Graphics/SVG/1.1/DTD/svg11.dtd">
<svg width="16pt" height="16pt" viewBox="0 0 16 16" version="1.1" xmlns="http://www.w3.org/2000/svg">
<g id="#69970cd7">
<path fill="#69970c" opacity="0.84" d=" M 5.36 0.00 L 10.30 0.00 C 12.56 1.37 14.37 3.32 16.00 5.37 L 16.00 10.31 C 14.62 12.56 12.69 14.37 10.64 16.00 L 5.70 16.00 C 3.44 14.63 1.63 12.68 0.00 10.63 L 0.00 5.69 C 1.38 3.43 3.31 1.63 5.36 0.00 M 6.25 2.21 C 2.00 3.28 0.47 9.33 3.74 12.26 C 6.88 15.79 13.51 13.67 13.95 8.94 C 14.84 4.72 10.31 0.82 6.25 2.21 Z" />
</g>
<g id="#73a70eed">
<path fill="#73a70e" opacity="0.93" d=" M 6.01 3.92 C 7.66 5.31 9.34 6.67 11.05 8.00 C 9.34 9.33 7.66 10.69 6.01 12.08 C 6.00 9.36 6.00 6.64 6.01 3.92 Z" />
</g>
</svg>
