<?xml version="1.0" encoding="UTF-8" ?>
<!DOCTYPE svg PUBLIC "-//W3C//DTD SVG 1.1//EN" "http://www.w3.org/Graphics/SVG/1.1/DTD/svg11.dtd">
<svg width="16pt" height="16pt" viewBox="0 0 16 16" version="1.1" xmlns="http://www.w3.org/2000/svg">
<g id="#94bb14ff">
<path fill="#94bb14" opacity="1.00" d=" M 6.84 0.00 L 8.93 0.00 C 12.50 0.54 15.27 3.33 16.00 6.84 L 16.00 8.92 C 15.47 12.50 12.67 15.28 9.16 16.00 L 7.10 16.00 C 3.51 15.48 0.73 12.68 0.00 9.17 L 0.00 7.08 C 0.53 3.50 3.33 0.72 6.84 0.00 M 2.96 6.89 C 3.46 6.37 4.47 5.34 4.97 4.83 C 5.54 5.34 6.69 6.37 7.26 6.88 C 7.72 3.15 1.85 3.36 2.96 6.89 M 8.98 6.87 C 9.48 6.36 10.47 5.34 10.97 4.82 C 11.54 5.34 12.69 6.37 13.26 6.88 C 13.76 3.17 7.80 3.34 8.98 6.87 M 1.97 9.09 C 3.28 15.41 12.71 15.42 14.00 9.08 C 9.99 8.96 5.98 8.96 1.97 9.09 Z" />
</g>
<g id="#fafafaff">
<path fill="#fafafa" opacity="1.00" d=" M 2.96 6.89 C 1.85 3.36 7.72 3.15 7.26 6.88 C 6.69 6.37 5.54 5.34 4.97 4.83 C 4.47 5.34 3.46 6.37 2.96 6.89 Z" />
<path fill="#fafafa" opacity="1.00" d=" M 8.98 6.87 C 7.80 3.34 13.76 3.17 13.26 6.88 C 12.69 6.37 11.54 5.34 10.97 4.82 C 10.47 5.34 9.48 6.36 8.98 6.87 Z" />
<path fill="#fafafa" opacity="1.00" d=" M 1.97 9.09 C 5.98 8.96 9.99 8.96 14.00 9.08 C 12.71 15.42 3.28 15.41 1.97 9.09 Z" />
</g>
</svg>
