<svg xmlns="http://www.w3.org/2000/svg" width="24" height="24" viewBox="0 0 24 24">
    <g fill="#005BB7" fill-rule="evenodd">
        <path d="M11.842.046c1.856 0 3.622.434 5.207 1.211.25.114.498.252.747.389l-1.087.983L15.08.914 12.272 3.43l-1.653-1.806-5.162 4.686 3.305 3.68-1.29 1.142 3.26 3.68-1.29 1.143 4.664 5.235 2.762-2.56 2.4 2.742a13.37 13.37 0 0 1-1.562 1.052 11.743 11.743 0 0 1-5.842 1.554C5.321 23.977 0 18.606 0 12-.023 5.44 5.298.046 11.842.046z"/>
        <path d="M9.668 11.269l2.83-2.56 2.536 2.857-2.83 2.56zM11.683 16.206l2.808-2.583 2.558 2.857-2.83 2.56zM7.653 6.4l2.83-2.56 2.536 2.857-2.83 2.56zM12.838 5.029l2.105-1.92 1.902 2.125-2.105 1.943zM16.596 13.829l2.106-1.92 1.902 2.148-2.106 1.92zM18.453 18.149l2.105-1.92 1.902 2.125-2.105 1.943zM19.313 8.274l1.404-1.28 1.268 1.417-1.404 1.28zM17.502 4.046l1.404-1.303 1.268 1.44-1.404 1.28zM21.102 12.503l1.404-1.28 1.29 1.417-1.426 1.28zM14.785 9.326l2.106-1.92 1.901 2.125-2.105 1.92z"/>
    </g>
</svg>
