<svg xmlns="http://www.w3.org/2000/svg" width="32" height="32" viewBox="0 0 32 32">
    <defs>
        <linearGradient id="a" x1="0%" y1="50%" y2="50%">
            <stop offset="0%" stop-color="#E1B6C2"/>
            <stop offset="100%" stop-color="#FFF9F9"/>
        </linearGradient>
        <linearGradient id="b" x1="0%" y1="50%" y2="50%">
            <stop offset="0%" stop-color="#E4AEB8"/>
            <stop offset="100%" stop-color="#FFF9F9"/>
        </linearGradient>
        <linearGradient id="c" x1="0%" y1="50%" y2="50%">
            <stop offset="0%" stop-color="#FFF9F9"/>
            <stop offset="100%" stop-color="#FF8786"/>
        </linearGradient>
        <linearGradient id="d" x1="0%" y1="50%" y2="50%">
            <stop offset="0%" stop-color="#B2D2F0"/>
            <stop offset="100%" stop-color="#EFF5FB"/>
        </linearGradient>
        <linearGradient id="e" x1="0%" y1="50%" y2="50%">
            <stop offset="0%" stop-color="#EFF5FB"/>
            <stop offset="100%" stop-color="#4298E9"/>
        </linearGradient>
        <linearGradient id="f" x1="0%" y1="50%" y2="50%">
            <stop offset="0%" stop-color="#FCDFAC"/>
            <stop offset="100%" stop-color="#FEEACC"/>
        </linearGradient>
        <linearGradient id="g" x1="0%" y1="50%" y2="50%">
            <stop offset="0%" stop-color="#FBD38D"/>
            <stop offset="100%" stop-color="#FBD89B"/>
        </linearGradient>
    </defs>
    <g fill="none" fill-rule="evenodd">
        <path d="M0 0h32v32H0z"/>
        <g transform="translate(1 3)">
            <rect width="23" height="15" fill="#FF3D38" rx="2"/>
            <path fill="#FF8786" d="M21.17.007A1.997 1.997 0 0 1 23 1.992v11.016a2 2 0 0 1-1.83 1.985 7.5 7.5 0 0 1 0-14.986z"/>
            <path fill="#FFF" d="M2 2h5v1H2z"/>
            <path stroke="#FFF" d="M2.5 5.5h9v4h-9z"/>
            <path fill="#FFF" d="M8 1h2v2H8z"/>
            <path fill="url(#a)" d="M0 0h8v1H0z" transform="translate(3 6)"/>
            <path fill="url(#b)" d="M0 2h8v1H0z" transform="translate(3 6)"/>
            <path fill="url(#c)" d="M0 1h8v1H0z" transform="translate(3 6)"/>
            <path fill="#FF3D38" fill-opacity=".2" d="M4 6h1v3H4zM6 6h1v3H6zM8 6h1v3H8zM10 6h1v3h-1z"/>
            <g>
                <path fill="url(#a)" d="M0 0h8v1H0z" transform="translate(13 6)"/>
                <path fill="url(#b)" d="M0 2h8v1H0z" transform="translate(13 6)"/>
                <path fill="url(#c)" d="M0 1h8v1H0z" transform="translate(13 6)"/>
                <path fill="#FF3D38" fill-opacity=".2" d="M14 6h1v3h-1zM16 6h1v3h-1zM18 6h1v3h-1zM20 6h1v3h-1z"/>
            </g>
            <path fill="#FFF" d="M2 12h4v1H2zM7 12h5v1H7z"/>
        </g>
        <g transform="translate(4 9)">
            <rect width="23" height="15" fill="#0974D0" rx="2"/>
            <path fill="#4298E9" d="M21.17.007A1.997 1.997 0 0 1 23 1.992v11.016a2 2 0 0 1-1.83 1.985 7.5 7.5 0 0 1 0-14.986z"/>
            <path fill="#FFF" d="M2 2h5v1H2z"/>
            <path stroke="#FFF" d="M2.5 5.5h9v4h-9z"/>
            <path fill="#FFF" d="M8 1h2v2H8z"/>
            <path fill="url(#d)" d="M0 0h8v1H0zM0 2h8v1H0z"/>
            <path fill="url(#e)" d="M0 1h8v1H0z"/>
            <path fill="#0974D0" fill-opacity=".2" d="M1 0h1v3H1zM3 0h1v3H3zM5 0h1v3H5zM7 0h1v3H7z"/>
            <g>
                <path fill="url(#d)" d="M0 0h8v1H0zM0 2h8v1H0z" transform="translate(13 6)"/>
                <path fill="url(#e)" d="M0 1h8v1H0z" transform="translate(13 6)"/>
                <path fill="#0974D0" fill-opacity=".2" d="M14 6h1v3h-1zM16 6h1v3h-1zM18 6h1v3h-1zM20 6h1v3h-1z"/>
            </g>
            <path fill="#FFF" d="M2 12h4v1H2zM7 12h5v1H7z"/>
        </g>
        <g transform="translate(8 15)">
            <rect width="23" height="15" fill="#F59700" rx="2"/>
            <path fill="#FBB73E" d="M21.17.007A1.997 1.997 0 0 1 23 1.992v11.016a2 2 0 0 1-1.83 1.985 7.5 7.5 0 0 1 0-14.986z"/>
            <path fill="#FFF" d="M2 2h5v1H2z"/>
            <path stroke="#FFF" d="M2.5 5.5h9v4h-9z"/>
            <path fill="#FFF" d="M8 1h2v2H8z"/>
            <path fill="url(#f)" d="M0 0h8v1H0zM0 2h8v1H0z" transform="translate(3 6)"/>
            <path fill="url(#g)" d="M0 1h8v1H0z" transform="translate(3 6)"/>
            <path fill="#F59700" fill-opacity=".197" d="M4 6h1v3H4zM6 6h1v3H6zM8 6h1v3H8zM10 6h1v3h-1z"/>
            <g>
                <path fill="url(#f)" d="M0 0h8v1H0zM0 2h8v1H0z" transform="translate(13 6)"/>
                <path fill="url(#g)" d="M0 1h8v1H0z" transform="translate(13 6)"/>
                <path fill="#F59700" fill-opacity=".197" d="M14 6h1v3h-1zM16 6h1v3h-1zM18 6h1v3h-1zM20 6h1v3h-1z"/>
            </g>
            <path fill="#FFF" d="M2 12h4v1H2zM7 12h5v1H7z"/>
        </g>
    </g>
</svg>
