<?xml version="1.0" encoding="UTF-8" ?>
<!DOCTYPE svg PUBLIC "-//W3C//DTD SVG 1.1//EN" "http://www.w3.org/Graphics/SVG/1.1/DTD/svg11.dtd">
<svg width="58pt" height="76pt" viewBox="0 0 58 76" version="1.1" xmlns="http://www.w3.org/2000/svg">
<g id="#ffcc00ff">
<path fill="#ffcc00" opacity="1.00" d=" M 5.92 26.89 C 17.33 18.06 28.74 9.22 39.95 0.14 C 39.80 10.49 39.90 20.84 39.89 31.19 C 40.00 37.10 39.92 43.00 39.93 48.91 C 29.93 56.51 18.95 62.75 9.08 70.52 C 22.38 66.64 35.55 62.27 48.68 57.83 C 48.88 48.96 48.86 40.08 48.67 31.21 C 51.68 31.23 54.70 31.21 57.71 31.20 C 57.71 46.11 57.72 61.02 57.71 75.93 C 40.14 75.82 22.57 75.95 5.01 75.87 C 3.17 75.67 1.87 74.19 0.75 72.87 L 0.74 71.00 C 0.98 59.35 1.05 47.65 0.71 36.00 C -0.05 32.09 3.39 29.26 5.92 26.89 M 27.34 28.38 C 24.01 29.72 21.23 35.92 25.77 37.40 C 29.35 37.31 32.67 33.56 32.15 30.03 C 31.88 27.76 28.99 27.22 27.34 28.38 Z" />
</g>
<g id="#040403ff">
<path fill="#040403" opacity="1.00" d=" M 27.34 28.38 C 28.99 27.22 31.88 27.76 32.15 30.03 C 32.67 33.56 29.35 37.31 25.77 37.40 C 21.23 35.92 24.01 29.72 27.34 28.38 Z" />
</g>
<g id="#d6ab05ff">
<path fill="#d6ab05" opacity="1.00" d=" M 39.89 31.19 C 42.82 31.22 45.74 31.19 48.67 31.21 C 48.86 40.08 48.88 48.96 48.68 57.83 C 35.55 62.27 22.38 66.64 9.08 70.52 C 18.95 62.75 29.93 56.51 39.93 48.91 C 39.92 43.00 40.00 37.10 39.89 31.19 Z" />
<path fill="#d6ab05" opacity="1.00" d=" M 0.00 33.62 L 0.71 36.00 C 1.05 47.65 0.98 59.35 0.74 71.00 L 0.00 72.44 L 0.00 33.62 Z" />
</g>
</svg>
