<svg xmlns="http://www.w3.org/2000/svg" width="32" height="32" viewBox="0 0 32 32">
    <g fill="none" fill-rule="evenodd">
        <circle cx="16" cy="16" r="16" fill="#000" fill-opacity=".4"/>
        <path fill="#FFF" fill-rule="nonzero" d="M29.765 7.978C25.361.349 15.605-2.265 7.978 2.14.348 6.544-2.265 16.3 2.14 23.927c4.404 7.629 14.159 10.243 21.787 5.838 7.629-4.405 10.244-14.16 5.838-21.787zm-7.433 19.024c-6.102 3.524-13.906 1.433-17.43-4.67C1.378 16.23 3.47 8.425 9.572 4.902c6.103-3.523 13.907-1.432 17.43 4.67 3.524 6.104 1.433 13.907-4.67 17.43zm-.638-11.698l-8.351-4.87c-.762-.445-1.375-.09-1.371.79l.043 9.67c.003.88.625 1.238 1.388.797l8.288-4.785c.763-.44.764-1.157.003-1.602z"/>
    </g>
</svg>
