<?xml version="1.0" encoding="UTF-8" ?>
<!DOCTYPE svg PUBLIC "-//W3C//DTD SVG 1.1//EN" "http://www.w3.org/Graphics/SVG/1.1/DTD/svg11.dtd">
<svg width="158pt" height="38pt" viewBox="0 0 158 38" version="1.1" xmlns="http://www.w3.org/2000/svg">
<g id="#ffffffff">
<path fill="#ffffff" opacity="1.00" d=" M 0.00 0.00 L 0.86 0.00 C 0.65 0.22 0.22 0.65 0.00 0.86 L 0.00 0.00 Z" />
<path fill="#ffffff" opacity="1.00" d=" M 157.14 0.00 L 158.00 0.00 L 158.00 0.86 C 157.78 0.65 157.35 0.22 157.14 0.00 Z" />
<path fill="#ffffff" opacity="1.00" d=" M 2.09 0.90 C 53.36 1.07 104.64 1.08 155.91 0.89 C 156.21 1.19 156.81 1.79 157.11 2.09 C 156.99 13.36 156.86 24.64 157.10 35.91 C 156.80 36.21 156.21 36.81 155.91 37.11 C 104.63 36.92 53.36 36.93 2.09 37.10 C 1.79 36.80 1.19 36.21 0.89 35.91 C 1.01 24.64 1.14 13.36 0.90 2.09 C 1.20 1.79 1.79 1.20 2.09 0.90 M 5.17 7.04 C 4.69 14.99 5.01 23.00 5.16 30.96 C 5.06 32.32 5.69 32.94 7.04 32.83 C 14.99 33.31 23.00 32.99 30.96 32.84 C 32.32 32.94 32.94 32.31 32.83 30.96 C 33.31 23.01 32.99 15.00 32.84 7.04 C 32.94 5.68 32.31 5.06 30.96 5.17 C 23.01 4.69 15.00 5.01 7.04 5.16 C 5.68 5.06 5.06 5.69 5.17 7.04 M 37.90 9.01 C 38.90 10.58 39.62 12.30 40.37 13.99 L 40.24 14.75 L 40.89 14.96 L 41.25 15.97 L 41.22 16.75 L 41.92 16.92 L 42.37 17.88 C 41.85 19.19 41.04 22.56 42.86 22.86 C 43.39 22.90 44.45 22.99 44.98 23.03 C 45.00 21.32 45.01 19.62 45.16 17.92 L 45.82 17.70 L 45.73 16.92 L 46.11 15.94 L 46.75 15.74 L 46.62 14.99 C 47.43 12.96 48.76 11.12 49.12 8.93 C 48.58 9.02 47.49 9.19 46.94 9.27 L 46.31 9.33 L 46.37 10.00 C 45.79 11.33 44.95 12.58 44.83 14.07 C 44.35 14.07 43.38 14.07 42.90 14.07 L 42.89 13.28 L 42.21 13.12 C 41.94 11.70 41.17 10.45 40.86 9.04 C 40.12 9.03 38.64 9.02 37.90 9.01 M 51.00 9.02 C 51.01 9.49 51.01 10.45 51.01 10.93 C 52.33 10.98 53.64 11.02 54.96 11.07 C 55.02 15.04 55.04 19.02 55.02 22.99 C 55.51 22.99 56.50 23.00 56.99 23.00 L 57.98 23.00 C 58.05 19.01 58.06 15.01 57.99 11.02 C 59.32 11.01 60.66 10.99 61.99 10.95 C 61.99 10.47 61.99 9.50 61.99 9.02 C 59.25 9.02 53.75 9.02 51.00 9.02 M 65.25 9.18 L 65.08 9.82 L 64.10 10.11 L 63.95 11.12 L 63.25 11.12 L 62.84 11.95 C 62.94 12.44 63.15 13.42 63.25 13.92 L 63.95 13.95 L 64.23 15.02 L 64.30 15.72 L 65.02 15.74 L 66.04 16.12 L 66.22 16.79 L 66.98 16.74 C 67.50 16.84 68.56 17.04 69.09 17.14 L 69.30 17.78 L 70.09 17.64 C 70.28 18.26 70.68 19.50 70.87 20.11 L 70.17 20.16 L 70.14 20.85 C 68.61 20.90 65.54 21.00 64.01 21.04 C 64.01 21.53 64.00 22.51 64.00 23.00 C 65.76 22.94 69.26 22.82 71.02 22.76 L 71.75 22.83 L 71.92 22.18 L 72.90 21.89 L 73.05 20.88 L 73.75 20.88 L 74.17 20.05 C 74.06 19.56 73.86 18.58 73.75 18.09 L 73.05 18.07 L 72.92 17.01 C 73.37 15.27 72.74 14.64 71.02 15.13 C 70.24 15.06 68.68 14.92 67.90 14.85 L 67.68 14.22 L 66.90 14.37 C 66.70 13.75 66.32 12.51 66.13 11.89 L 66.83 11.84 L 66.86 11.14 C 68.41 11.06 71.50 10.90 73.05 10.82 L 72.69 9.95 L 72.71 9.29 L 72.07 9.25 C 70.08 8.85 67.97 8.84 65.99 9.24 L 65.25 9.18 M 75.00 9.01 C 75.01 9.50 75.01 10.47 75.01 10.95 C 76.34 10.99 77.68 11.01 79.02 11.02 C 78.94 15.01 78.94 19.01 79.02 23.00 L 80.01 23.00 C 80.50 22.99 81.48 22.99 81.97 22.99 C 82.02 19.02 82.04 15.05 82.03 11.07 C 83.34 11.03 84.67 10.98 85.99 10.93 C 85.99 10.45 85.99 9.50 85.99 9.02 C 83.25 9.02 77.75 9.02 75.00 9.01 M 87.88 8.93 C 88.09 10.38 88.76 11.68 89.35 13.00 L 89.23 13.75 L 89.88 13.95 L 90.25 14.97 L 90.20 15.74 L 90.88 15.93 L 91.27 16.93 L 91.17 17.70 L 91.83 17.92 C 91.96 19.60 91.96 21.28 92.06 22.96 C 92.58 22.94 93.62 22.91 94.14 22.90 C 95.95 22.53 95.15 19.22 94.63 17.89 L 95.08 16.92 L 95.78 16.75 L 95.75 15.97 L 96.11 14.96 L 96.76 14.75 L 96.63 13.99 C 97.38 12.30 98.10 10.58 99.10 9.01 C 98.36 9.02 96.88 9.03 96.14 9.04 C 95.83 10.45 95.06 11.70 94.79 13.12 L 94.11 13.28 L 94.10 14.07 C 93.62 14.07 92.65 14.07 92.17 14.07 C 92.05 12.58 91.21 11.33 90.63 10.00 L 90.69 9.33 L 90.06 9.27 C 89.51 9.19 88.43 9.02 87.88 8.93 M 101.03 9.01 C 100.93 13.01 100.93 17.01 101.02 21.01 L 102.00 20.97 C 102.28 24.73 108.42 22.05 109.99 23.00 C 109.99 22.51 109.99 21.53 109.99 21.04 C 108.50 21.02 105.53 20.97 104.04 20.95 C 103.98 16.97 103.96 12.99 103.98 9.01 C 103.48 9.01 102.50 9.00 102.01 9.00 L 101.03 9.01 M 112.10 10.97 C 112.11 13.71 112.13 19.18 112.13 21.92 L 113.08 22.19 L 113.25 22.83 L 113.99 22.76 C 116.46 22.92 122.19 25.12 120.99 21.05 C 119.45 21.00 116.38 20.90 114.84 20.85 C 115.31 19.61 115.31 18.38 114.84 17.15 C 116.55 17.00 118.27 17.02 119.99 16.94 C 119.99 16.47 119.99 15.53 119.99 15.06 C 118.27 14.98 116.55 15.00 114.84 14.85 C 115.31 13.62 115.31 12.39 114.84 11.15 C 116.38 11.10 119.46 11.00 120.99 10.95 C 120.99 10.46 120.99 9.49 121.00 9.01 C 119.24 9.03 115.73 9.08 113.97 9.10 C 112.25 8.63 111.63 9.26 112.10 10.97 M 129.04 9.01 C 128.89 13.67 129.00 18.34 129.02 23.00 L 130.00 23.00 C 130.49 22.99 131.47 22.99 131.96 22.99 C 131.98 21.49 132.03 18.50 132.05 17.00 C 133.50 17.01 135.18 16.67 136.32 17.83 L 135.89 18.80 L 136.18 19.83 L 136.99 19.92 C 137.00 20.69 137.00 22.23 137.01 23.00 C 137.77 22.98 139.28 22.93 140.04 22.91 L 139.68 22.03 L 139.82 21.28 L 139.20 21.06 C 139.09 20.29 138.88 18.75 138.78 17.97 C 138.79 17.23 138.81 15.74 138.83 15.00 L 139.05 13.94 L 139.75 13.91 C 139.85 13.42 140.06 12.44 140.17 11.95 L 139.75 11.12 L 139.05 11.12 L 138.90 10.11 L 137.92 9.82 L 137.75 9.17 L 137.02 9.24 C 135.26 9.18 131.76 9.06 130.01 9.00 L 129.04 9.01 M 142.01 9.00 C 142.01 11.50 141.99 16.50 141.99 18.99 L 142.97 19.04 C 143.01 19.55 143.08 20.55 143.12 21.05 C 141.90 22.97 144.80 23.88 146.02 22.73 C 147.35 23.13 148.68 23.13 150.02 22.75 L 150.75 22.81 L 150.90 22.17 L 151.81 21.81 L 152.17 20.90 L 152.81 20.75 L 152.75 20.02 C 152.81 17.27 152.93 11.76 152.99 9.01 C 152.50 9.00 151.51 9.00 151.01 8.99 L 150.04 9.01 C 149.92 12.45 149.93 15.91 150.26 19.33 L 149.94 20.19 L 149.20 20.18 L 149.07 20.87 C 147.66 21.02 145.96 21.27 145.13 19.82 C 145.09 17.12 145.01 11.71 144.97 9.01 C 144.48 9.01 143.49 9.00 143.00 9.00 L 142.01 9.00 M 124.24 20.25 L 123.84 21.06 L 123.09 21.11 L 122.80 22.02 L 123.22 22.87 L 124.05 22.82 C 125.74 23.35 126.34 22.73 125.85 20.95 L 125.77 20.22 L 125.02 20.17 L 124.24 20.25 M 102.09 24.99 C 102.05 25.74 101.98 27.24 101.94 27.99 L 101.13 27.92 C 101.06 27.45 100.91 26.51 100.84 26.03 C 98.22 25.45 98.11 29.17 97.93 30.98 C 99.86 29.13 101.68 31.40 103.84 30.98 C 103.91 30.50 104.05 29.54 104.11 29.06 L 104.88 29.06 C 104.95 29.53 105.09 30.46 105.16 30.92 L 106.04 31.02 C 108.16 27.42 105.25 24.23 102.09 24.99 M 43.00 26.01 L 43.00 30.98 C 43.75 30.99 45.25 31.01 46.00 31.02 L 45.93 30.15 C 45.46 30.07 44.52 29.92 44.05 29.84 C 44.04 29.14 44.02 27.73 44.00 27.03 C 45.31 26.95 46.62 26.95 47.94 27.03 C 48.48 28.16 47.00 31.31 48.96 30.99 C 48.99 29.64 49.02 28.29 49.06 26.94 C 51.02 27.30 51.03 29.40 51.14 30.97 C 51.56 30.97 52.40 30.96 52.82 30.95 C 53.02 29.26 53.68 27.69 54.10 26.05 C 53.77 26.19 53.11 26.48 52.77 26.63 C 49.65 25.57 46.24 26.05 43.00 26.01 M 55.18 26.05 C 55.00 28.09 53.84 29.91 53.92 31.98 C 55.44 30.88 57.24 30.81 58.83 31.81 C 59.84 30.89 60.51 29.43 61.87 28.99 C 61.93 29.48 62.07 30.45 62.13 30.93 L 63.04 31.01 C 65.75 21.99 62.29 26.77 60.14 28.04 C 60.07 27.55 59.95 26.56 59.88 26.07 C 57.46 25.41 60.55 30.61 58.05 29.98 C 58.02 28.66 57.98 27.33 57.93 26.01 C 57.24 26.02 55.87 26.04 55.18 26.05 M 64.00 26.02 L 63.96 31.02 L 64.85 30.93 C 64.92 30.46 65.05 29.53 65.12 29.06 L 65.88 29.06 C 65.95 29.53 66.08 30.46 66.15 30.93 L 67.04 31.02 L 67.00 26.02 C 66.25 26.02 64.75 26.02 64.00 26.02 M 70.00 26.00 C 70.00 27.67 70.00 29.33 70.00 31.00 C 70.75 31.00 72.25 31.00 73.00 31.00 C 73.00 29.33 73.00 27.67 73.00 26.00 C 72.25 26.00 70.75 26.00 70.00 26.00 M 74.00 26.02 L 74.00 30.98 C 74.75 30.99 76.25 31.01 77.00 31.02 L 76.93 30.14 C 76.46 30.08 75.53 29.95 75.06 29.88 L 75.06 29.11 C 75.53 29.05 76.47 28.95 76.94 28.89 L 76.94 28.11 C 76.47 28.05 75.53 27.95 75.06 27.89 L 75.06 27.12 C 75.53 27.05 76.46 26.92 76.93 26.86 L 77.00 25.98 C 76.25 25.99 74.75 26.01 74.00 26.02 M 78.00 26.02 L 78.00 30.99 C 78.75 30.99 80.25 30.98 81.00 30.98 C 80.98 30.27 80.96 28.86 80.95 28.15 C 80.47 28.08 79.53 27.95 79.06 27.88 L 79.06 27.11 C 79.53 27.05 80.46 26.92 80.93 26.86 L 81.00 25.98 C 80.25 25.99 78.75 26.01 78.00 26.02 M 85.11 26.03 C 85.19 28.11 84.50 30.02 83.89 31.98 C 84.43 31.74 85.51 31.26 86.05 31.02 C 87.21 30.66 88.25 32.22 89.32 31.43 C 91.21 31.53 90.42 29.01 91.89 29.04 C 91.95 29.51 92.08 30.46 92.14 30.93 L 93.04 31.01 C 95.74 21.99 92.29 26.77 90.14 28.04 C 90.07 27.55 89.95 26.56 89.88 26.07 C 87.46 25.41 90.55 30.61 88.05 29.98 C 88.02 28.66 87.98 27.34 87.93 26.01 C 87.23 26.02 85.82 26.02 85.11 26.03 M 94.00 25.98 L 94.07 26.86 C 94.54 26.92 95.47 27.05 95.94 27.12 L 95.94 27.89 C 95.47 27.95 94.53 28.05 94.06 28.11 L 94.06 28.89 C 94.53 28.95 95.47 29.05 95.94 29.11 L 95.94 29.88 C 95.47 29.95 94.54 30.08 94.07 30.14 L 94.00 31.02 C 94.75 31.01 96.25 30.99 97.00 30.98 L 97.00 26.02 C 96.25 26.01 94.75 25.99 94.00 25.98 M 106.96 25.99 L 106.96 31.01 L 107.85 30.93 C 107.92 30.46 108.05 29.53 108.12 29.06 L 108.88 29.06 C 108.95 29.53 109.08 30.46 109.15 30.93 L 110.04 31.01 L 110.04 25.99 L 109.15 26.07 C 109.08 26.54 108.95 27.47 108.88 27.94 L 108.12 27.94 C 108.05 27.47 107.92 26.54 107.85 26.07 L 106.96 25.99 M 112.23 26.19 C 111.44 27.71 110.86 29.31 110.93 31.05 C 112.21 29.87 113.79 29.88 115.08 31.05 C 115.16 29.23 114.32 27.62 113.83 25.92 C 113.43 25.99 112.63 26.13 112.23 26.19 M 116.96 25.99 C 114.21 34.99 117.73 30.25 119.86 28.96 C 119.93 29.45 120.06 30.44 120.13 30.93 L 121.04 31.02 C 126.40 26.28 117.80 23.99 118.88 27.94 L 118.12 27.94 C 118.05 27.47 117.92 26.54 117.86 26.07 L 116.96 25.99 M 123.24 26.18 C 122.60 27.59 122.73 29.37 123.24 30.81 C 125.05 30.67 122.97 27.21 125.08 26.97 C 127.15 26.25 123.92 25.31 123.24 26.18 M 127.01 26.01 L 126.95 31.01 C 127.46 30.78 128.48 30.32 128.99 30.09 C 130.69 31.21 132.46 29.39 134.07 30.98 C 134.19 29.23 133.47 27.65 132.79 26.10 C 131.32 25.70 130.68 26.31 130.89 27.94 L 130.11 27.94 C 130.05 27.47 129.92 26.52 129.85 26.05 C 129.14 26.04 127.72 26.02 127.01 26.01 M 137.20 26.36 C 136.68 26.57 135.62 26.99 135.10 27.20 C 134.93 28.40 134.93 29.60 135.10 30.81 C 137.21 32.38 139.51 30.83 141.82 30.83 C 141.90 30.39 142.06 29.52 142.13 29.08 L 142.88 29.06 C 142.95 29.53 143.08 30.46 143.14 30.93 L 144.04 31.01 C 146.70 21.94 143.30 26.81 141.11 28.04 C 141.07 27.54 140.97 26.55 140.92 26.06 C 139.72 26.99 138.52 26.85 137.20 26.36 M 144.96 25.99 L 144.96 31.01 L 145.85 30.93 C 145.92 30.46 146.05 29.53 146.12 29.06 L 146.88 29.07 C 146.95 29.53 147.09 30.47 147.16 30.93 C 148.38 31.06 149.61 31.06 150.84 30.93 C 150.91 30.47 151.05 29.53 151.12 29.07 L 151.89 29.06 C 151.95 29.53 152.08 30.46 152.14 30.93 L 153.04 31.01 C 155.73 22.00 152.29 26.76 150.14 28.04 C 150.07 27.54 149.93 26.54 149.86 26.04 C 149.18 26.04 147.83 26.04 147.16 26.05 C 147.09 26.52 146.95 27.46 146.88 27.94 L 146.12 27.94 C 146.05 27.47 145.92 26.54 145.85 26.07 L 144.96 25.99 M 82.17 29.17 L 82.17 29.83 L 82.83 29.83 L 82.83 29.17 L 82.17 29.17 Z" />
<path fill="#ffffff" opacity="1.00" d=" M 132.00 10.94 C 133.36 10.93 134.72 11.04 136.06 11.26 C 136.23 11.43 136.58 11.78 136.75 11.95 C 136.75 12.48 136.75 13.52 136.75 14.05 C 136.58 14.22 136.23 14.57 136.06 14.74 C 134.72 14.96 133.36 15.07 132.00 15.06 C 132.00 13.69 132.00 12.31 132.00 10.94 Z" />
<path fill="#ffffff" opacity="1.00" d=" M 7.98 12.97 C 8.72 13.01 10.20 13.09 10.94 13.13 L 11.19 14.10 C 11.33 14.34 11.61 14.82 11.76 15.06 L 12.12 16.06 C 12.26 16.31 12.54 16.80 12.68 17.04 L 13.05 18.09 C 13.25 20.09 15.83 18.72 15.00 17.17 C 14.85 15.69 15.77 14.43 16.21 13.09 C 16.91 13.09 18.32 13.08 19.03 13.08 L 18.70 14.02 C 18.56 14.25 18.27 14.72 18.13 14.96 L 17.75 15.96 C 17.59 16.21 17.28 16.70 17.12 16.94 L 16.76 17.97 C 16.60 18.21 16.28 18.69 16.12 18.93 L 15.73 19.93 C 15.59 20.17 15.31 20.67 15.17 20.92 C 15.04 22.61 15.03 24.30 14.93 25.99 C 14.22 25.98 12.79 25.98 12.08 25.97 C 13.11 21.05 9.91 17.11 7.98 12.97 Z" />
<path fill="#ffffff" opacity="1.00" d=" M 22.04 13.17 C 24.07 12.90 26.13 12.95 28.17 13.06 C 28.52 16.97 22.77 13.47 21.95 16.83 L 22.70 17.26 C 23.26 17.55 24.39 18.12 24.95 18.41 C 25.19 18.51 25.68 18.70 25.92 18.80 C 28.94 18.55 29.52 21.65 28.83 23.96 C 27.40 23.77 26.77 24.39 26.96 25.83 C 24.97 26.05 22.91 26.20 20.94 25.75 C 20.78 25.57 20.46 25.22 20.30 25.04 L 20.03 24.05 L 21.12 23.92 C 22.51 23.73 25.48 24.96 25.87 23.16 C 26.33 21.54 25.70 20.69 23.99 20.60 C 23.76 20.49 23.31 20.27 23.09 20.16 L 22.13 19.79 C 22.21 18.38 21.56 17.77 20.16 17.96 C 20.16 17.23 20.16 15.77 20.16 15.04 C 21.60 15.23 22.22 14.61 22.04 13.17 Z" />
<path fill="#ffffff" opacity="1.00" d=" M 103.12 26.16 L 103.88 26.16 L 104.20 27.00 L 103.88 27.84 L 103.12 27.84 L 102.80 27.00 L 103.12 26.16 Z" />
<path fill="#ffffff" opacity="1.00" d=" M 56.18 27.18 C 58.30 26.65 56.70 31.88 55.85 29.03 C 55.93 28.56 56.10 27.64 56.18 27.18 Z" />
<path fill="#ffffff" opacity="1.00" d=" M 65.17 27.17 L 65.83 27.17 L 65.83 27.83 L 65.17 27.83 L 65.17 27.17 Z" />
<path fill="#ffffff" opacity="1.00" d=" M 71.17 27.17 L 71.83 27.17 L 71.83 27.83 L 71.17 27.83 L 71.17 27.17 Z" />
<path fill="#ffffff" opacity="1.00" d=" M 86.18 27.18 C 88.30 26.65 86.70 31.88 85.85 29.03 C 85.93 28.56 86.10 27.64 86.18 27.18 Z" />
<path fill="#ffffff" opacity="1.00" d=" M 128.12 27.16 L 128.88 27.16 L 129.20 28.00 L 128.88 28.84 L 128.12 28.84 L 127.80 28.00 L 128.12 27.16 Z" />
<path fill="#ffffff" opacity="1.00" d=" M 148.18 27.18 C 150.30 26.65 148.70 31.88 147.85 29.03 C 147.93 28.56 148.10 27.64 148.18 27.18 Z" />
<path fill="#ffffff" opacity="1.00" d=" M 136.12 28.16 L 136.88 28.16 L 137.20 29.00 L 136.88 29.84 L 136.12 29.84 L 135.80 29.00 L 136.12 28.16 Z" />
<path fill="#ffffff" opacity="1.00" d=" M 138.12 28.16 L 138.88 28.16 L 139.20 29.00 L 138.88 29.84 L 138.12 29.84 L 137.80 29.00 L 138.12 28.16 Z" />
<path fill="#ffffff" opacity="1.00" d=" M 71.17 29.17 L 71.83 29.17 L 71.83 29.83 L 71.17 29.83 L 71.17 29.17 Z" />
<path fill="#ffffff" opacity="1.00" d=" M 79.17 29.17 L 79.83 29.17 L 79.83 29.83 L 79.17 29.83 L 79.17 29.17 Z" />
<path fill="#ffffff" opacity="1.00" d=" M 0.00 37.14 C 0.22 37.35 0.65 37.78 0.86 38.00 L 0.00 38.00 L 0.00 37.14 Z" />
<path fill="#ffffff" opacity="1.00" d=" M 157.14 38.00 C 157.35 37.78 157.78 37.35 158.00 37.14 L 158.00 38.00 L 157.14 38.00 Z" />
</g>
<g id="#a5b2b9ff">
<path fill="#a5b2b9" opacity="1.00" d=" M 0.86 0.00 L 1.70 0.00 L 2.09 0.90 C 1.79 1.20 1.20 1.79 0.90 2.09 L 0.00 1.70 L 0.00 0.86 C 0.22 0.65 0.65 0.22 0.86 0.00 Z" />
<path fill="#a5b2b9" opacity="1.00" d=" M 156.30 0.00 L 157.14 0.00 C 157.35 0.22 157.78 0.65 158.00 0.86 L 158.00 1.70 L 157.11 2.09 C 156.81 1.79 156.21 1.19 155.91 0.89 L 156.30 0.00 Z" />
<path fill="#a5b2b9" opacity="1.00" d=" M 5.17 7.04 C 5.06 5.69 5.68 5.06 7.04 5.16 C 7.23 6.60 6.61 7.23 5.17 7.04 Z" />
<path fill="#a5b2b9" opacity="1.00" d=" M 30.96 5.17 C 32.31 5.06 32.94 5.68 32.84 7.04 C 31.40 7.23 30.77 6.61 30.96 5.17 Z" />
<path fill="#a5b2b9" opacity="1.00" d=" M 46.31 9.33 L 46.94 9.27 C 46.80 9.45 46.51 9.82 46.37 10.00 L 46.31 9.33 Z" />
<path fill="#a5b2b9" opacity="1.00" d=" M 65.25 9.18 L 65.99 9.24 C 65.76 9.39 65.30 9.68 65.08 9.82 L 65.25 9.18 Z" />
<path fill="#a5b2b9" opacity="1.00" d=" M 72.07 9.25 L 72.71 9.29 L 72.69 9.95 C 72.53 9.78 72.22 9.42 72.07 9.25 Z" />
<path fill="#a5b2b9" opacity="1.00" d=" M 90.06 9.27 L 90.69 9.33 L 90.63 10.00 C 90.49 9.82 90.20 9.45 90.06 9.27 Z" />
<path fill="#a5b2b9" opacity="1.00" d=" M 101.03 9.01 L 102.01 9.00 C 101.99 12.99 101.99 16.98 102.00 20.97 L 101.02 21.01 C 100.93 17.01 100.93 13.01 101.03 9.01 Z" />
<path fill="#a5b2b9" opacity="1.00" d=" M 112.10 10.97 C 111.63 9.26 112.25 8.63 113.97 9.10 C 113.75 10.12 113.12 10.75 112.10 10.97 Z" />
<path fill="#a5b2b9" opacity="1.00" d=" M 129.04 9.01 L 130.01 9.00 C 130.00 13.67 130.00 18.33 130.00 23.00 L 129.02 23.00 C 129.00 18.34 128.89 13.67 129.04 9.01 Z" />
<path fill="#a5b2b9" opacity="1.00" d=" M 137.02 9.24 L 137.75 9.17 L 137.92 9.82 C 137.70 9.67 137.24 9.39 137.02 9.24 Z" />
<path fill="#a5b2b9" opacity="1.00" d=" M 142.01 9.00 L 143.00 9.00 C 143.01 12.35 143.03 15.70 142.97 19.04 L 141.99 18.99 C 141.99 16.50 142.01 11.50 142.01 9.00 Z" />
<path fill="#a5b2b9" opacity="1.00" d=" M 150.04 9.01 L 151.01 8.99 C 150.93 12.42 151.32 16.03 150.26 19.33 C 149.93 15.91 149.92 12.45 150.04 9.01 Z" />
<path fill="#a5b2b9" opacity="1.00" d=" M 57.02 11.06 L 57.99 11.02 C 58.06 15.01 58.05 19.01 57.98 23.00 L 56.99 23.00 C 56.97 19.02 56.98 15.04 57.02 11.06 Z" />
<path fill="#a5b2b9" opacity="1.00" d=" M 63.25 11.12 L 63.95 11.12 C 63.95 11.83 63.95 13.24 63.95 13.95 L 63.25 13.92 C 63.15 13.42 62.94 12.44 62.84 11.95 L 63.25 11.12 Z" />
<path fill="#a5b2b9" opacity="1.00" d=" M 66.16 11.20 L 66.86 11.14 L 66.83 11.84 L 66.13 11.89 L 66.16 11.20 Z" />
<path fill="#a5b2b9" opacity="1.00" d=" M 79.02 11.02 L 79.97 11.05 C 80.03 15.03 80.04 19.01 80.01 23.00 L 79.02 23.00 C 78.94 19.01 78.94 15.01 79.02 11.02 Z" />
<path fill="#a5b2b9" opacity="1.00" d=" M 114.84 14.85 C 113.38 14.93 113.38 11.06 114.84 11.15 C 115.31 12.39 115.31 13.62 114.84 14.85 Z" />
<path fill="#a5b2b9" opacity="1.00" d=" M 136.06 11.26 L 136.73 11.28 L 136.75 11.95 C 136.58 11.78 136.23 11.43 136.06 11.26 Z" />
<path fill="#a5b2b9" opacity="1.00" d=" M 139.05 11.12 L 139.75 11.12 L 140.17 11.95 C 140.06 12.44 139.85 13.42 139.75 13.91 L 139.05 13.94 C 139.05 13.23 139.05 11.83 139.05 11.12 Z" />
<path fill="#a5b2b9" opacity="1.00" d=" M 20.16 15.04 C 20.06 13.69 20.69 13.06 22.04 13.17 C 22.22 14.61 21.60 15.23 20.16 15.04 Z" />
<path fill="#a5b2b9" opacity="1.00" d=" M 28.17 13.06 L 29.02 13.01 C 29.01 13.73 28.98 15.19 28.97 15.92 L 24.32 16.39 C 23.92 16.61 23.11 17.04 22.70 17.26 L 21.95 16.83 C 22.77 13.47 28.52 16.97 28.17 13.06 Z" />
<path fill="#a5b2b9" opacity="1.00" d=" M 42.21 13.12 L 42.89 13.28 L 42.90 14.07 C 42.73 13.83 42.38 13.36 42.21 13.12 Z" />
<path fill="#a5b2b9" opacity="1.00" d=" M 89.35 13.00 C 89.48 13.24 89.75 13.71 89.88 13.95 L 89.23 13.75 L 89.35 13.00 Z" />
<path fill="#a5b2b9" opacity="1.00" d=" M 94.11 13.28 L 94.79 13.12 C 94.62 13.36 94.27 13.83 94.10 14.07 L 94.11 13.28 Z" />
<path fill="#a5b2b9" opacity="1.00" d=" M 11.19 14.10 L 11.83 14.29 L 11.76 15.06 C 11.61 14.82 11.33 14.34 11.19 14.10 Z" />
<path fill="#a5b2b9" opacity="1.00" d=" M 18.13 14.96 C 18.27 14.72 18.56 14.25 18.70 14.02 L 18.78 14.76 L 18.13 14.96 Z" />
<path fill="#a5b2b9" opacity="1.00" d=" M 40.37 13.99 C 40.50 14.23 40.76 14.72 40.89 14.96 L 40.24 14.75 L 40.37 13.99 Z" />
<path fill="#a5b2b9" opacity="1.00" d=" M 42.90 14.07 C 43.38 14.07 44.35 14.07 44.83 14.07 C 45.01 16.05 42.23 16.47 42.90 14.07 Z" />
<path fill="#a5b2b9" opacity="1.00" d=" M 66.90 14.37 L 67.68 14.22 L 67.90 14.85 C 67.65 14.73 67.15 14.49 66.90 14.37 Z" />
<path fill="#a5b2b9" opacity="1.00" d=" M 92.17 14.07 C 92.65 14.07 93.62 14.07 94.10 14.07 C 94.77 16.47 91.99 16.05 92.17 14.07 Z" />
<path fill="#a5b2b9" opacity="1.00" d=" M 96.11 14.96 C 96.24 14.72 96.50 14.23 96.63 13.99 L 96.76 14.75 L 96.11 14.96 Z" />
<path fill="#a5b2b9" opacity="1.00" d=" M 136.06 14.74 C 136.23 14.57 136.58 14.22 136.75 14.05 L 136.73 14.72 L 136.06 14.74 Z" />
<path fill="#a5b2b9" opacity="1.00" d=" M 46.11 15.94 C 46.24 15.70 46.49 15.23 46.62 14.99 L 46.75 15.74 L 46.11 15.94 Z" />
<path fill="#a5b2b9" opacity="1.00" d=" M 64.23 15.02 C 64.43 15.20 64.82 15.56 65.02 15.74 L 64.30 15.72 L 64.23 15.02 Z" />
<path fill="#a5b2b9" opacity="1.00" d=" M 71.02 15.13 C 72.74 14.64 73.37 15.27 72.92 17.01 C 71.90 16.77 71.27 16.14 71.02 15.13 Z" />
<path fill="#a5b2b9" opacity="1.00" d=" M 90.25 14.97 C 90.41 15.21 90.73 15.69 90.88 15.93 L 90.20 15.74 L 90.25 14.97 Z" />
<path fill="#a5b2b9" opacity="1.00" d=" M 138.78 17.97 C 136.75 17.61 136.83 15.34 138.83 15.00 C 138.81 15.74 138.79 17.23 138.78 17.97 Z" />
<path fill="#a5b2b9" opacity="1.00" d=" M 12.12 16.06 L 12.78 16.27 L 12.68 17.04 C 12.54 16.80 12.26 16.31 12.12 16.06 Z" />
<path fill="#a5b2b9" opacity="1.00" d=" M 17.12 16.94 C 17.28 16.70 17.59 16.21 17.75 15.96 L 17.80 16.75 L 17.12 16.94 Z" />
<path fill="#a5b2b9" opacity="1.00" d=" M 41.25 15.97 C 41.41 16.21 41.75 16.68 41.92 16.92 L 41.22 16.75 L 41.25 15.97 Z" />
<path fill="#a5b2b9" opacity="1.00" d=" M 66.04 16.12 C 66.27 16.27 66.74 16.58 66.98 16.74 L 66.22 16.79 L 66.04 16.12 Z" />
<path fill="#a5b2b9" opacity="1.00" d=" M 95.08 16.92 C 95.25 16.68 95.59 16.21 95.75 15.97 L 95.78 16.75 L 95.08 16.92 Z" />
<path fill="#a5b2b9" opacity="1.00" d=" M 13.05 18.09 C 13.54 17.86 14.51 17.40 15.00 17.17 C 15.83 18.72 13.25 20.09 13.05 18.09 Z" />
<path fill="#a5b2b9" opacity="1.00" d=" M 45.16 17.92 C 45.30 17.67 45.59 17.17 45.73 16.92 L 45.82 17.70 L 45.16 17.92 Z" />
<path fill="#a5b2b9" opacity="1.00" d=" M 69.09 17.14 C 69.34 17.26 69.84 17.52 70.09 17.64 L 69.30 17.78 L 69.09 17.14 Z" />
<path fill="#a5b2b9" opacity="1.00" d=" M 91.27 16.93 C 91.41 17.17 91.69 17.67 91.83 17.92 L 91.17 17.70 L 91.27 16.93 Z" />
<path fill="#a5b2b9" opacity="1.00" d=" M 114.84 20.85 C 113.38 20.94 113.38 17.07 114.84 17.15 C 115.31 18.38 115.31 19.61 114.84 20.85 Z" />
<path fill="#a5b2b9" opacity="1.00" d=" M 16.12 18.93 C 16.28 18.69 16.60 18.21 16.76 17.97 L 16.80 18.74 L 16.12 18.93 Z" />
<path fill="#a5b2b9" opacity="1.00" d=" M 20.16 17.96 C 21.56 17.77 22.21 18.38 22.13 19.79 C 20.74 19.95 20.09 19.34 20.16 17.96 Z" />
<path fill="#a5b2b9" opacity="1.00" d=" M 24.95 18.41 L 25.69 18.22 L 25.92 18.80 C 25.68 18.70 25.19 18.51 24.95 18.41 Z" />
<path fill="#a5b2b9" opacity="1.00" d=" M 42.37 17.88 C 43.40 19.32 43.22 21.23 42.86 22.86 C 41.04 22.56 41.85 19.19 42.37 17.88 Z" />
<path fill="#a5b2b9" opacity="1.00" d=" M 73.05 18.07 L 73.75 18.09 C 73.86 18.58 74.06 19.56 74.17 20.05 L 73.75 20.88 L 73.05 20.88 C 73.05 20.18 73.05 18.77 73.05 18.07 Z" />
<path fill="#a5b2b9" opacity="1.00" d=" M 94.14 22.90 C 93.78 21.26 93.60 19.34 94.63 17.89 C 95.15 19.22 95.95 22.53 94.14 22.90 Z" />
<path fill="#a5b2b9" opacity="1.00" d=" M 136.32 17.83 L 136.88 18.20 C 136.91 18.63 136.97 19.49 136.99 19.92 L 136.18 19.83 L 135.89 18.80 L 136.32 17.83 Z" />
<path fill="#a5b2b9" opacity="1.00" d=" M 15.17 20.92 C 15.31 20.67 15.59 20.17 15.73 19.93 L 15.83 20.70 L 15.17 20.92 Z" />
<path fill="#a5b2b9" opacity="1.00" d=" M 23.09 20.16 C 23.31 20.27 23.76 20.49 23.99 20.60 L 23.28 20.75 L 23.09 20.16 Z" />
<path fill="#a5b2b9" opacity="1.00" d=" M 70.17 20.16 L 70.87 20.11 L 70.84 20.81 L 70.14 20.85 L 70.17 20.16 Z" />
<path fill="#a5b2b9" opacity="1.00" d=" M 125.02 20.17 L 125.77 20.22 L 125.85 20.95 C 125.65 20.75 125.23 20.37 125.02 20.17 Z" />
<path fill="#a5b2b9" opacity="1.00" d=" M 149.20 20.18 L 149.94 20.19 L 149.71 20.82 L 149.07 20.87 L 149.20 20.18 Z" />
<path fill="#a5b2b9" opacity="1.00" d=" M 152.17 20.90 C 152.31 20.68 152.61 20.24 152.75 20.02 L 152.81 20.75 L 152.17 20.90 Z" />
<path fill="#a5b2b9" opacity="1.00" d=" M 123.09 21.11 L 123.84 21.06 C 123.89 21.50 123.99 22.38 124.05 22.82 L 123.22 22.87 L 122.80 22.02 L 123.09 21.11 Z" />
<path fill="#a5b2b9" opacity="1.00" d=" M 139.20 21.06 L 139.82 21.28 L 139.68 22.03 C 139.56 21.79 139.32 21.30 139.20 21.06 Z" />
<path fill="#a5b2b9" opacity="1.00" d=" M 143.12 21.05 C 144.16 21.43 145.21 21.95 146.02 22.73 C 144.80 23.88 141.90 22.97 143.12 21.05 Z" />
<path fill="#a5b2b9" opacity="1.00" d=" M 71.02 22.76 C 71.24 22.61 71.70 22.33 71.92 22.18 L 71.75 22.83 L 71.02 22.76 Z" />
<path fill="#a5b2b9" opacity="1.00" d=" M 113.08 22.19 C 113.31 22.33 113.76 22.61 113.99 22.76 L 113.25 22.83 L 113.08 22.19 Z" />
<path fill="#a5b2b9" opacity="1.00" d=" M 150.02 22.75 C 150.24 22.61 150.68 22.31 150.90 22.17 L 150.75 22.81 L 150.02 22.75 Z" />
<path fill="#a5b2b9" opacity="1.00" d=" M 21.12 23.92 C 21.41 22.19 24.55 22.85 25.87 23.16 C 25.48 24.96 22.51 23.73 21.12 23.92 Z" />
<path fill="#a5b2b9" opacity="1.00" d=" M 26.96 25.83 C 26.77 24.39 27.40 23.77 28.83 23.96 C 28.94 25.31 28.31 25.94 26.96 25.83 Z" />
<path fill="#a5b2b9" opacity="1.00" d=" M 20.30 25.04 C 20.46 25.22 20.78 25.57 20.94 25.75 L 20.29 25.71 L 20.30 25.04 Z" />
<path fill="#a5b2b9" opacity="1.00" d=" M 102.09 24.99 C 105.25 24.23 108.16 27.42 106.04 31.02 L 105.16 30.92 C 105.09 30.46 104.95 29.53 104.88 29.06 L 104.11 29.06 C 104.05 29.54 103.91 30.50 103.84 30.98 C 101.68 31.40 99.86 29.13 97.93 30.98 C 98.11 29.17 98.22 25.45 100.84 26.03 C 100.91 26.51 101.06 27.45 101.13 27.92 L 101.94 27.99 C 101.98 27.24 102.05 25.74 102.09 24.99 M 103.12 26.16 L 102.80 27.00 L 103.12 27.84 L 103.88 27.84 L 104.20 27.00 L 103.88 26.16 L 103.12 26.16 Z" />
<path fill="#a5b2b9" opacity="1.00" d=" M 43.00 26.01 C 46.24 26.05 49.65 25.57 52.77 26.63 C 53.11 26.48 53.77 26.19 54.10 26.05 C 53.68 27.69 53.02 29.26 52.82 30.95 C 52.40 30.96 51.56 30.97 51.14 30.97 C 51.03 29.40 51.02 27.30 49.06 26.94 C 49.02 28.29 48.99 29.64 48.96 30.99 C 47.00 31.31 48.48 28.16 47.94 27.03 C 46.62 26.95 45.31 26.95 44.00 27.03 C 44.02 27.73 44.04 29.14 44.05 29.84 C 44.52 29.92 45.46 30.07 45.93 30.15 L 46.00 31.02 C 45.25 31.01 43.75 30.99 43.00 30.98 L 43.00 26.01 Z" />
<path fill="#a5b2b9" opacity="1.00" d=" M 55.18 26.05 C 55.87 26.04 57.24 26.02 57.93 26.01 C 57.98 27.33 58.02 28.66 58.05 29.98 C 60.55 30.61 57.46 25.41 59.88 26.07 C 59.95 26.56 60.07 27.55 60.14 28.04 C 62.29 26.77 65.75 21.99 63.04 31.01 L 62.13 30.93 C 62.07 30.45 61.93 29.48 61.87 28.99 C 60.51 29.43 59.84 30.89 58.83 31.81 C 57.24 30.81 55.44 30.88 53.92 31.98 C 53.84 29.91 55.00 28.09 55.18 26.05 M 56.18 27.18 C 56.10 27.64 55.93 28.56 55.85 29.03 C 56.70 31.88 58.30 26.65 56.18 27.18 Z" />
<path fill="#a5b2b9" opacity="1.00" d=" M 64.00 26.02 C 64.75 26.02 66.25 26.02 67.00 26.02 L 67.04 31.02 L 66.15 30.93 C 66.08 30.46 65.95 29.53 65.88 29.06 L 65.12 29.06 C 65.05 29.53 64.92 30.46 64.85 30.93 L 63.96 31.02 L 64.00 26.02 M 65.17 27.17 L 65.17 27.83 L 65.83 27.83 L 65.83 27.17 L 65.17 27.17 Z" />
<path fill="#a5b2b9" opacity="1.00" d=" M 70.00 26.00 C 70.75 26.00 72.25 26.00 73.00 26.00 C 73.00 27.67 73.00 29.33 73.00 31.00 C 72.25 31.00 70.75 31.00 70.00 31.00 C 70.00 29.33 70.00 27.67 70.00 26.00 M 71.17 27.17 L 71.17 27.83 L 71.83 27.83 L 71.83 27.17 L 71.17 27.17 M 71.17 29.17 L 71.17 29.83 L 71.83 29.83 L 71.83 29.17 L 71.17 29.17 Z" />
<path fill="#a5b2b9" opacity="1.00" d=" M 74.00 26.02 C 74.75 26.01 76.25 25.99 77.00 25.98 L 76.93 26.86 C 76.46 26.92 75.53 27.05 75.06 27.12 L 75.06 27.89 C 75.53 27.95 76.47 28.05 76.94 28.11 L 76.94 28.89 C 76.47 28.95 75.53 29.05 75.06 29.11 L 75.06 29.88 C 75.53 29.95 76.46 30.08 76.93 30.14 L 77.00 31.02 C 76.25 31.01 74.75 30.99 74.00 30.98 L 74.00 26.02 Z" />
<path fill="#a5b2b9" opacity="1.00" d=" M 78.00 26.02 C 78.75 26.01 80.25 25.99 81.00 25.98 L 80.93 26.86 C 80.46 26.92 79.53 27.05 79.06 27.11 L 79.06 27.88 C 79.53 27.95 80.47 28.08 80.95 28.15 C 80.96 28.86 80.98 30.27 81.00 30.98 C 80.25 30.98 78.75 30.99 78.00 30.99 L 78.00 26.02 M 79.17 29.17 L 79.17 29.83 L 79.83 29.83 L 79.83 29.17 L 79.17 29.17 Z" />
<path fill="#a5b2b9" opacity="1.00" d=" M 85.11 26.03 C 85.82 26.02 87.23 26.02 87.93 26.01 C 87.98 27.34 88.02 28.66 88.05 29.98 C 90.55 30.61 87.46 25.41 89.88 26.07 C 89.95 26.56 90.07 27.55 90.14 28.04 C 92.29 26.77 95.74 21.99 93.04 31.01 L 92.14 30.93 C 92.08 30.46 91.95 29.51 91.89 29.04 C 90.42 29.01 91.21 31.53 89.32 31.43 C 88.25 32.22 87.21 30.66 86.05 31.02 C 85.51 31.26 84.43 31.74 83.89 31.98 C 84.50 30.02 85.19 28.11 85.11 26.03 M 86.18 27.18 C 86.10 27.64 85.93 28.56 85.85 29.03 C 86.70 31.88 88.30 26.65 86.18 27.18 Z" />
<path fill="#a5b2b9" opacity="1.00" d=" M 94.00 25.98 C 94.75 25.99 96.25 26.01 97.00 26.02 L 97.00 30.98 C 96.25 30.99 94.75 31.01 94.00 31.02 L 94.07 30.14 C 94.54 30.08 95.47 29.95 95.94 29.88 L 95.94 29.11 C 95.47 29.05 94.53 28.95 94.06 28.89 L 94.06 28.11 C 94.53 28.05 95.47 27.95 95.94 27.89 L 95.94 27.12 C 95.47 27.05 94.54 26.92 94.07 26.86 L 94.00 25.98 Z" />
<path fill="#a5b2b9" opacity="1.00" d=" M 106.96 25.99 L 107.85 26.07 C 107.92 26.54 108.05 27.47 108.12 27.94 L 108.88 27.94 C 108.95 27.47 109.08 26.54 109.15 26.07 L 110.04 25.99 L 110.04 31.01 L 109.15 30.93 C 109.08 30.46 108.95 29.53 108.88 29.06 L 108.12 29.06 C 108.05 29.53 107.92 30.46 107.85 30.93 L 106.96 31.01 L 106.96 25.99 Z" />
<path fill="#a5b2b9" opacity="1.00" d=" M 112.23 26.19 C 112.63 26.13 113.43 25.99 113.83 25.92 C 114.32 27.62 115.16 29.23 115.08 31.05 C 113.79 29.88 112.21 29.87 110.93 31.05 C 110.86 29.31 111.44 27.71 112.23 26.19 Z" />
<path fill="#a5b2b9" opacity="1.00" d=" M 116.96 25.99 L 117.86 26.07 C 117.92 26.54 118.05 27.47 118.12 27.94 L 118.88 27.94 C 117.80 23.99 126.40 26.28 121.04 31.02 L 120.13 30.93 C 120.06 30.44 119.93 29.45 119.86 28.96 C 117.73 30.25 114.21 34.99 116.96 25.99 Z" />
<path fill="#a5b2b9" opacity="1.00" d=" M 123.24 26.18 C 123.92 25.31 127.15 26.25 125.08 26.97 C 122.97 27.21 125.05 30.67 123.24 30.81 C 122.73 29.37 122.60 27.59 123.24 26.18 Z" />
<path fill="#a5b2b9" opacity="1.00" d=" M 127.01 26.01 C 127.72 26.02 129.14 26.04 129.85 26.05 C 129.92 26.52 130.05 27.47 130.11 27.94 L 130.89 27.94 C 130.68 26.31 131.32 25.70 132.79 26.10 C 133.47 27.65 134.19 29.23 134.07 30.98 C 132.46 29.39 130.69 31.21 128.99 30.09 C 128.48 30.32 127.46 30.78 126.95 31.01 L 127.01 26.01 M 128.12 27.16 L 127.80 28.00 L 128.12 28.84 L 128.88 28.84 L 129.20 28.00 L 128.88 27.16 L 128.12 27.16 Z" />
<path fill="#a5b2b9" opacity="1.00" d=" M 137.20 26.36 C 138.52 26.85 139.72 26.99 140.92 26.06 C 140.97 26.55 141.07 27.54 141.11 28.04 C 143.30 26.81 146.70 21.94 144.04 31.01 L 143.14 30.93 C 143.08 30.46 142.95 29.53 142.88 29.06 L 142.13 29.08 C 142.06 29.52 141.90 30.39 141.82 30.83 C 139.51 30.83 137.21 32.38 135.10 30.81 C 134.93 29.60 134.93 28.40 135.10 27.20 C 135.62 26.99 136.68 26.57 137.20 26.36 M 136.12 28.16 L 135.80 29.00 L 136.12 29.84 L 136.88 29.84 L 137.20 29.00 L 136.88 28.16 L 136.12 28.16 M 138.12 28.16 L 137.80 29.00 L 138.12 29.84 L 138.88 29.84 L 139.20 29.00 L 138.88 28.16 L 138.12 28.16 Z" />
<path fill="#a5b2b9" opacity="1.00" d=" M 144.96 25.99 L 145.85 26.07 C 145.92 26.54 146.05 27.47 146.12 27.94 L 146.88 27.94 C 146.95 27.46 147.09 26.52 147.16 26.05 C 147.83 26.04 149.18 26.04 149.86 26.04 C 149.93 26.54 150.07 27.54 150.14 28.04 C 152.29 26.76 155.73 22.00 153.04 31.01 L 152.14 30.93 C 152.08 30.46 151.95 29.53 151.89 29.06 L 151.12 29.07 C 151.05 29.53 150.91 30.47 150.84 30.93 C 149.61 31.06 148.38 31.06 147.16 30.93 C 147.09 30.47 146.95 29.53 146.88 29.07 L 146.12 29.06 C 146.05 29.53 145.92 30.46 145.85 30.93 L 144.96 31.01 L 144.96 25.99 M 148.18 27.18 C 148.10 27.64 147.93 28.56 147.85 29.03 C 148.70 31.88 150.30 26.65 148.18 27.18 Z" />
<path fill="#a5b2b9" opacity="1.00" d=" M 82.17 29.17 L 82.83 29.17 L 82.83 29.83 L 82.17 29.83 L 82.17 29.17 Z" />
<path fill="#a5b2b9" opacity="1.00" d=" M 5.16 30.96 C 6.60 30.77 7.23 31.39 7.04 32.83 C 5.69 32.94 5.06 32.32 5.16 30.96 Z" />
<path fill="#a5b2b9" opacity="1.00" d=" M 30.96 32.84 C 30.77 31.40 31.39 30.77 32.83 30.96 C 32.94 32.31 32.32 32.94 30.96 32.84 Z" />
<path fill="#a5b2b9" opacity="1.00" d=" M 0.00 36.30 L 0.89 35.91 C 1.19 36.21 1.79 36.80 2.09 37.10 L 1.70 38.00 L 0.86 38.00 C 0.65 37.78 0.22 37.35 0.00 37.14 L 0.00 36.30 Z" />
<path fill="#a5b2b9" opacity="1.00" d=" M 155.91 37.11 C 156.21 36.81 156.80 36.21 157.10 35.91 L 158.00 36.30 L 158.00 37.14 C 157.78 37.35 157.35 37.78 157.14 38.00 L 156.30 38.00 L 155.91 37.11 Z" />
</g>
<g id="#1eace1ff">
<path fill="#1eace1" opacity="1.00" d=" M 1.70 0.00 L 156.30 0.00 L 155.91 0.89 C 104.64 1.08 53.36 1.07 2.09 0.90 L 1.70 0.00 Z" />
<path fill="#1eace1" opacity="1.00" d=" M 0.00 1.70 L 0.90 2.09 C 1.14 13.36 1.01 24.64 0.89 35.91 L 0.00 36.30 L 0.00 1.70 Z" />
<path fill="#1eace1" opacity="1.00" d=" M 157.11 2.09 L 158.00 1.70 L 158.00 36.30 L 157.10 35.91 C 156.86 24.64 156.99 13.36 157.11 2.09 Z" />
<path fill="#1eace1" opacity="1.00" d=" M 7.04 5.16 C 15.00 5.01 23.01 4.69 30.96 5.17 C 30.77 6.61 31.40 7.23 32.84 7.04 C 32.99 15.00 33.31 23.01 32.83 30.96 C 31.39 30.77 30.77 31.40 30.96 32.84 C 23.00 32.99 14.99 33.31 7.04 32.83 C 7.23 31.39 6.60 30.77 5.16 30.96 C 5.01 23.00 4.69 14.99 5.17 7.04 C 6.61 7.23 7.23 6.60 7.04 5.16 M 7.98 12.97 C 9.91 17.11 13.11 21.05 12.08 25.97 C 12.79 25.98 14.22 25.98 14.93 25.99 C 15.03 24.30 15.04 22.61 15.17 20.92 L 15.83 20.70 L 15.73 19.93 L 16.12 18.93 L 16.80 18.74 L 16.76 17.97 L 17.12 16.94 L 17.80 16.75 L 17.75 15.96 L 18.13 14.96 L 18.78 14.76 L 18.70 14.02 L 19.03 13.08 C 18.32 13.08 16.91 13.09 16.21 13.09 C 15.77 14.43 14.85 15.69 15.00 17.17 C 14.51 17.40 13.54 17.86 13.05 18.09 L 12.68 17.04 L 12.78 16.27 L 12.12 16.06 L 11.76 15.06 L 11.83 14.29 L 11.19 14.10 L 10.94 13.13 C 10.20 13.09 8.72 13.01 7.98 12.97 M 20.16 15.04 C 20.16 15.77 20.16 17.23 20.16 17.96 C 20.09 19.34 20.74 19.95 22.13 19.79 L 23.09 20.16 L 23.28 20.75 L 23.99 20.60 C 25.70 20.69 26.33 21.54 25.87 23.16 C 24.55 22.85 21.41 22.19 21.12 23.92 L 20.03 24.05 L 20.30 25.04 L 20.29 25.71 L 20.94 25.75 C 22.91 26.20 24.97 26.05 26.96 25.83 C 28.31 25.94 28.94 25.31 28.83 23.96 C 29.52 21.65 28.94 18.55 25.92 18.80 L 25.69 18.22 L 24.95 18.41 C 24.39 18.12 23.26 17.55 22.70 17.26 C 23.11 17.04 23.92 16.61 24.32 16.39 L 28.97 15.92 C 28.98 15.19 29.01 13.73 29.02 13.01 L 28.17 13.06 C 26.13 12.95 24.07 12.90 22.04 13.17 C 20.69 13.06 20.06 13.69 20.16 15.04 Z" />
<path fill="#1eace1" opacity="1.00" d=" M 37.90 9.01 C 38.64 9.02 40.12 9.03 40.86 9.04 C 41.17 10.45 41.94 11.70 42.21 13.12 C 42.38 13.36 42.73 13.83 42.90 14.07 C 42.23 16.47 45.01 16.05 44.83 14.07 C 44.95 12.58 45.79 11.33 46.37 10.00 C 46.51 9.82 46.80 9.45 46.94 9.27 C 47.49 9.19 48.58 9.02 49.12 8.93 C 48.76 11.12 47.43 12.96 46.62 14.99 C 46.49 15.23 46.24 15.70 46.11 15.94 L 45.73 16.92 C 45.59 17.17 45.30 17.67 45.16 17.92 C 45.01 19.62 45.00 21.32 44.98 23.03 C 44.45 22.99 43.39 22.90 42.86 22.86 C 43.22 21.23 43.40 19.32 42.37 17.88 L 41.92 16.92 C 41.75 16.68 41.41 16.21 41.25 15.97 L 40.89 14.96 C 40.76 14.72 40.50 14.23 40.37 13.99 C 39.62 12.30 38.90 10.58 37.90 9.01 Z" />
<path fill="#1eace1" opacity="1.00" d=" M 51.00 9.02 C 53.75 9.02 59.25 9.02 61.99 9.02 C 61.99 9.50 61.99 10.47 61.99 10.95 C 60.66 10.99 59.32 11.01 57.99 11.02 L 57.02 11.06 C 56.98 15.04 56.97 19.02 56.99 23.00 C 56.50 23.00 55.51 22.99 55.02 22.99 C 55.04 19.02 55.02 15.04 54.96 11.07 C 53.64 11.02 52.33 10.98 51.01 10.93 C 51.01 10.45 51.01 9.49 51.00 9.02 Z" />
<path fill="#1eace1" opacity="1.00" d=" M 65.99 9.24 C 67.97 8.84 70.08 8.85 72.07 9.25 C 72.22 9.42 72.53 9.78 72.69 9.95 L 73.05 10.82 C 71.50 10.90 68.41 11.06 66.86 11.14 L 66.16 11.20 L 66.13 11.89 C 66.32 12.51 66.70 13.75 66.90 14.37 C 67.15 14.49 67.65 14.73 67.90 14.85 C 68.68 14.92 70.24 15.06 71.02 15.13 C 71.27 16.14 71.90 16.77 72.92 17.01 L 73.05 18.07 C 73.05 18.77 73.05 20.18 73.05 20.88 L 72.90 21.89 L 71.92 22.18 C 71.70 22.33 71.24 22.61 71.02 22.76 C 69.26 22.82 65.76 22.94 64.00 23.00 C 64.00 22.51 64.01 21.53 64.01 21.04 C 65.54 21.00 68.61 20.90 70.14 20.85 L 70.84 20.81 L 70.87 20.11 C 70.68 19.50 70.28 18.26 70.09 17.64 C 69.84 17.52 69.34 17.26 69.09 17.14 C 68.56 17.04 67.50 16.84 66.98 16.74 C 66.74 16.58 66.27 16.27 66.04 16.12 L 65.02 15.74 C 64.82 15.56 64.43 15.20 64.23 15.02 L 63.95 13.95 C 63.95 13.24 63.95 11.83 63.95 11.12 L 64.10 10.11 L 65.08 9.82 C 65.30 9.68 65.76 9.39 65.99 9.24 Z" />
<path fill="#1eace1" opacity="1.00" d=" M 75.00 9.01 C 77.75 9.02 83.25 9.02 85.99 9.02 C 85.99 9.50 85.99 10.45 85.99 10.93 C 84.67 10.98 83.34 11.03 82.03 11.07 C 82.04 15.05 82.02 19.02 81.97 22.99 C 81.48 22.99 80.50 22.99 80.01 23.00 C 80.04 19.01 80.03 15.03 79.97 11.05 L 79.02 11.02 C 77.68 11.01 76.34 10.99 75.01 10.95 C 75.01 10.47 75.01 9.50 75.00 9.01 Z" />
<path fill="#1eace1" opacity="1.00" d=" M 87.88 8.93 C 88.43 9.02 89.51 9.19 90.06 9.27 C 90.20 9.45 90.49 9.82 90.63 10.00 C 91.21 11.33 92.05 12.58 92.17 14.07 C 91.99 16.05 94.77 16.47 94.10 14.07 C 94.27 13.83 94.62 13.36 94.79 13.12 C 95.06 11.70 95.83 10.45 96.14 9.04 C 96.88 9.03 98.36 9.02 99.10 9.01 C 98.10 10.58 97.38 12.30 96.63 13.99 C 96.50 14.23 96.24 14.72 96.11 14.96 L 95.75 15.97 C 95.59 16.21 95.25 16.68 95.08 16.92 L 94.63 17.89 C 93.60 19.34 93.78 21.26 94.14 22.90 C 93.62 22.91 92.58 22.94 92.06 22.96 C 91.96 21.28 91.96 19.60 91.83 17.92 C 91.69 17.67 91.41 17.17 91.27 16.93 L 90.88 15.93 C 90.73 15.69 90.41 15.21 90.25 14.97 L 89.88 13.95 C 89.75 13.71 89.48 13.24 89.35 13.00 C 88.76 11.68 88.09 10.38 87.88 8.93 Z" />
<path fill="#1eace1" opacity="1.00" d=" M 102.01 9.00 C 102.50 9.00 103.48 9.01 103.98 9.01 C 103.96 12.99 103.98 16.97 104.04 20.95 C 105.53 20.97 108.50 21.02 109.99 21.04 C 109.99 21.53 109.99 22.51 109.99 23.00 C 108.42 22.05 102.28 24.73 102.00 20.97 C 101.99 16.98 101.99 12.99 102.01 9.00 Z" />
<path fill="#1eace1" opacity="1.00" d=" M 113.97 9.10 C 115.73 9.08 119.24 9.03 121.00 9.01 C 120.99 9.49 120.99 10.46 120.99 10.95 C 119.46 11.00 116.38 11.10 114.84 11.15 C 113.38 11.06 113.38 14.93 114.84 14.85 C 116.55 15.00 118.27 14.98 119.99 15.06 C 119.99 15.53 119.99 16.47 119.99 16.94 C 118.27 17.02 116.55 17.00 114.84 17.15 C 113.38 17.07 113.38 20.94 114.84 20.85 C 116.38 20.90 119.45 21.00 120.99 21.05 C 122.19 25.12 116.46 22.92 113.99 22.76 C 113.76 22.61 113.31 22.33 113.08 22.19 L 112.13 21.92 C 112.13 19.18 112.11 13.71 112.10 10.97 C 113.12 10.75 113.75 10.12 113.97 9.10 Z" />
<path fill="#1eace1" opacity="1.00" d=" M 130.01 9.00 C 131.76 9.06 135.26 9.18 137.02 9.24 C 137.24 9.39 137.70 9.67 137.92 9.82 L 138.90 10.11 L 139.05 11.12 C 139.05 11.83 139.05 13.23 139.05 13.94 L 138.83 15.00 C 136.83 15.34 136.75 17.61 138.78 17.97 C 138.88 18.75 139.09 20.29 139.20 21.06 C 139.32 21.30 139.56 21.79 139.68 22.03 L 140.04 22.91 C 139.28 22.93 137.77 22.98 137.01 23.00 C 137.00 22.23 137.00 20.69 136.99 19.92 C 136.97 19.49 136.91 18.63 136.88 18.20 L 136.32 17.83 C 135.18 16.67 133.50 17.01 132.05 17.00 C 132.03 18.50 131.98 21.49 131.96 22.99 C 131.47 22.99 130.49 22.99 130.00 23.00 C 130.00 18.33 130.00 13.67 130.01 9.00 M 132.00 10.94 C 132.00 12.31 132.00 13.69 132.00 15.06 C 133.36 15.07 134.72 14.96 136.06 14.74 L 136.73 14.72 L 136.75 14.05 C 136.75 13.52 136.75 12.48 136.75 11.95 L 136.73 11.28 L 136.06 11.26 C 134.72 11.04 133.36 10.93 132.00 10.94 Z" />
<path fill="#1eace1" opacity="1.00" d=" M 143.00 9.00 C 143.49 9.00 144.48 9.01 144.97 9.01 C 145.01 11.71 145.09 17.12 145.13 19.82 C 145.96 21.27 147.66 21.02 149.07 20.87 L 149.71 20.82 L 149.94 20.19 L 150.26 19.33 C 151.32 16.03 150.93 12.42 151.01 8.99 C 151.51 9.00 152.50 9.00 152.99 9.01 C 152.93 11.76 152.81 17.27 152.75 20.02 C 152.61 20.24 152.31 20.68 152.17 20.90 L 151.81 21.81 L 150.90 22.17 C 150.68 22.31 150.24 22.61 150.02 22.75 C 148.68 23.13 147.35 23.13 146.02 22.73 C 145.21 21.95 144.16 21.43 143.12 21.05 C 143.08 20.55 143.01 19.55 142.97 19.04 C 143.03 15.70 143.01 12.35 143.00 9.00 Z" />
<path fill="#1eace1" opacity="1.00" d=" M 124.24 20.25 L 125.02 20.17 C 125.23 20.37 125.65 20.75 125.85 20.95 C 126.34 22.73 125.74 23.35 124.05 22.82 C 123.99 22.38 123.89 21.50 123.84 21.06 L 124.24 20.25 Z" />
<path fill="#1eace1" opacity="1.00" d=" M 2.09 37.10 C 53.36 36.93 104.63 36.92 155.91 37.11 L 156.30 38.00 L 1.70 38.00 L 2.09 37.10 Z" />
</g>
</svg>
